<svg width="2901" height="2901" viewBox="0 0 2901 2901" fill="none" xmlns="http://www.w3.org/2000/svg">
<g clip-path="url(#clip0_168_3)">
<path d="M839.649 592.798C877.272 595.966 910.553 565.51 913.984 524.772C917.415 484.034 889.698 448.44 852.074 445.272C850.125 445.108 848.195 445.088 846.273 445.1C844.479 424.059 841.198 403.449 836.476 383.418C838.262 382.687 840.044 381.929 841.801 381.025C876.099 363.4 891.062 319.229 875.222 282.364C859.382 245.497 818.737 229.901 784.439 247.525C782.646 248.448 780.939 249.482 779.253 250.543C768.055 233.634 755.655 217.71 742.157 202.906C743.405 201.283 744.632 199.632 745.77 197.871C767.553 164.177 760.188 118.123 729.322 95.0086C698.455 71.8956 655.773 80.4746 633.99 114.169C632.874 115.897 631.885 117.673 630.922 119.46C613.497 111.05 595.305 104.087 576.469 98.6386C576.804 96.5866 577.109 94.5205 577.287 92.4115C580.718 51.6725 588.143 5.67957 550.474 3.10057C463.336 -2.86543 444.473 40.1976 441.041 80.9356C440.863 83.0456 440.819 85.1326 440.806 87.2126C421.324 89.4346 402.224 93.2566 383.637 98.6326C382.986 96.7096 382.309 94.7925 381.497 92.9035C365.657 56.0396 368.517 31.4476 332.514 45.2596C254.004 75.3816 241.453 119.865 257.292 156.729C258.12 158.655 259.054 160.489 260.013 162.297C244.229 174.635 229.339 188.261 215.471 203.06C213.987 201.732 212.476 200.425 210.863 199.217C179.997 176.104 137.315 184.683 115.532 218.38C93.749 252.076 101.113 298.128 131.979 321.24C133.56 322.425 135.19 323.471 136.829 324.49C128.822 343.451 122.141 363.22 116.852 383.666C114.959 383.332 113.053 383.029 111.105 382.864C73.482 379.695 40.201 410.151 36.769 450.89C33.338 491.627 61.057 527.221 98.68 530.39C100.629 530.554 102.558 530.574 104.481 530.562C106.276 551.603 109.555 572.212 114.279 592.244C112.492 592.975 110.711 593.733 108.953 594.635C74.656 612.262 59.692 656.433 75.532 693.298C91.372 730.164 132.018 745.759 166.315 728.134C168.107 727.213 169.816 726.179 171.501 725.117C182.698 742.027 195.099 757.951 208.597 772.756C207.349 774.379 206.123 776.029 204.984 777.791C183.201 811.486 190.565 857.539 221.432 880.652C252.299 903.765 319.117 893.19 340.9 859.496C342.016 857.768 318.868 857.988 319.832 856.2C337.256 864.61 355.449 871.573 374.285 877.021C373.95 879.073 373.644 881.139 373.467 883.248C370.035 923.986 397.754 959.58 435.377 962.75C473 965.918 506.281 935.462 509.713 894.724C509.891 892.614 509.934 890.526 509.947 888.446C529.429 886.226 548.53 882.404 567.115 877.027C567.767 878.95 568.445 880.867 569.256 882.757C585.096 919.62 625.742 935.217 660.039 917.593C694.337 899.968 709.301 855.794 693.46 818.931C692.632 817.004 691.699 815.171 690.74 813.363C706.524 801.025 721.413 787.399 735.282 772.6C736.766 773.929 738.277 775.235 739.89 776.442C770.757 799.555 813.438 790.978 835.222 757.281C857.005 723.584 849.64 677.533 818.774 654.417C817.193 653.235 815.563 652.189 813.925 651.17C821.931 632.21 828.613 612.44 833.9 591.995C835.794 592.33 837.699 592.634 839.649 592.798ZM452.821 755.647C316.22 744.142 215.582 614.911 228.04 466.999C240.498 319.088 361.333 208.51 497.934 220.015C634.536 231.521 735.174 360.752 722.715 508.664C710.258 656.575 589.423 767.152 452.821 755.647Z" fill="#BFC6D1"/>
<path d="M841.8 381.025C876.098 363.399 891.061 319.228 875.222 282.362C859.381 245.497 818.736 229.899 784.438 247.525C782.644 248.446 780.938 249.482 779.252 250.543C768.055 233.633 755.654 217.71 742.156 202.906C743.404 201.284 744.631 199.632 745.769 197.87C767.552 164.176 784.287 97.339 751.213 77.514C688.439 39.888 655.773 80.477 633.99 114.17C632.874 115.898 631.885 117.673 630.921 119.46C613.496 111.051 595.305 104.089 576.468 98.64C576.804 96.588 577.11 94.522 577.287 92.413C579.154 70.241 571.748 49.642 558.587 34.916C550.2 98.617 542.298 162.375 535.03 226.205C652.265 255.716 734.014 374.501 722.715 508.665C713.14 622.356 639.507 713.915 543.929 745.007C544.149 757.435 544.47 769.891 544.354 782.335C544.042 816.104 541.852 849.944 539.628 883.753C548.901 881.879 558.071 879.644 567.116 877.028C567.767 878.952 568.445 880.869 569.256 882.758C585.096 919.623 620.487 942.036 683.592 912.422C718.501 896.04 709.301 855.798 693.459 818.933C692.632 817.007 691.698 815.173 690.74 813.366C706.524 801.027 721.413 787.401 735.281 772.604C736.765 773.932 738.277 775.239 739.889 776.446C770.756 799.56 840.002 786.583 861.785 752.887C883.568 719.19 849.639 677.537 818.773 654.423C817.192 653.239 815.562 652.193 813.923 651.173C821.93 632.214 828.61 612.443 833.899 591.999C835.794 592.333 837.699 592.637 839.647 592.8C877.27 595.97 910.551 565.512 913.983 524.774C917.414 484.037 889.696 448.441 852.073 445.274C850.123 445.11 848.194 445.09 846.272 445.103C844.478 424.062 841.197 403.452 836.475 383.421C838.261 382.686 840.043 381.927 841.8 381.025Z" fill="#BFC6D1"/>
<path d="M874.746 582.986C912.368 586.155 945.65 555.699 949.081 514.961C952.512 474.222 924.793 438.628 887.17 435.46C885.221 435.296 883.292 435.276 881.37 435.289C879.575 414.247 876.296 393.637 871.573 373.605C873.359 372.874 875.141 372.116 876.897 371.212C911.196 353.587 926.159 309.416 910.319 272.551C894.479 235.686 853.834 220.088 819.536 237.713C817.743 238.635 816.036 239.67 814.351 240.731C803.153 223.822 790.752 207.897 777.254 193.093C778.502 191.471 779.729 189.819 780.868 188.058C802.65 154.364 795.287 108.31 764.42 85.1974C733.553 62.0834 690.871 70.6634 669.089 104.357C667.973 106.085 666.985 107.861 666.021 109.648C648.596 101.238 630.405 94.2754 611.568 88.8274C611.903 86.7754 612.209 84.7094 612.387 82.5984C615.818 41.8604 588.1 6.26744 550.477 3.09844C512.854 -0.0695578 479.573 30.3854 476.142 71.1234C475.965 73.2344 475.921 75.3215 475.907 77.4015C456.425 79.6215 437.325 83.4444 418.74 88.8214C418.088 86.8984 417.411 84.9814 416.6 83.0924C400.76 46.2284 360.115 30.6304 325.816 48.2564C291.519 65.8804 276.555 110.054 292.395 146.917C293.223 148.844 294.156 150.677 295.116 152.485C279.332 164.824 264.442 178.449 250.574 193.248C249.09 191.92 247.579 190.615 245.965 189.404C215.098 166.291 172.417 174.871 150.634 208.567C128.851 242.264 136.215 288.315 167.082 311.429C168.663 312.613 170.294 313.659 171.932 314.679C163.925 333.638 157.245 353.408 151.955 373.854C150.062 373.52 148.157 373.217 146.208 373.054C108.585 369.884 75.304 400.341 71.873 441.078C68.442 481.817 96.1601 517.41 133.783 520.579C135.732 520.743 137.661 520.763 139.584 520.75C141.379 541.792 144.658 562.401 149.381 582.432C147.595 583.163 145.814 583.923 144.057 584.824C109.759 602.451 94.796 646.621 110.636 683.487C126.476 720.352 167.122 735.948 201.419 718.323C203.211 717.402 204.92 716.367 206.605 715.306C217.802 732.216 230.203 748.139 243.701 762.945C242.453 764.567 241.226 766.219 240.088 767.98C218.305 801.674 225.669 847.728 256.536 870.841C287.403 893.954 330.084 885.375 351.867 851.681C352.983 849.953 353.971 848.177 354.936 846.39C372.36 854.799 390.553 861.763 409.388 867.211C409.054 869.263 408.748 871.328 408.569 873.439C405.138 914.177 432.856 949.771 470.479 952.939C508.102 956.107 541.384 925.652 544.814 884.913C544.992 882.803 545.036 880.715 545.049 878.636C564.531 876.416 583.632 872.594 602.217 867.216C602.868 869.14 603.547 871.056 604.357 872.945C620.198 909.809 660.843 925.406 695.14 907.781C729.439 890.157 744.402 845.984 728.562 809.121C727.734 807.193 726.801 805.361 725.842 803.551C741.626 791.213 756.514 777.588 770.383 762.79C771.867 764.118 773.378 765.423 774.991 766.63C805.858 789.744 848.539 781.166 870.322 747.47C892.105 713.773 884.741 667.721 853.874 644.606C852.293 643.424 850.663 642.378 849.024 641.358C857.031 622.399 863.711 602.629 869 582.184C870.891 582.519 872.796 582.822 874.746 582.986ZM487.918 745.836C351.318 734.331 250.68 605.1 263.137 457.188C275.595 309.277 396.431 198.699 533.032 210.204C669.633 221.709 770.271 350.94 757.813 498.852C745.356 646.764 624.52 757.341 487.918 745.836Z" fill="#D8DEE8"/>
<path d="M1951.01 2175.89C1907.78 2177.14 1865.62 2166.25 1829.09 2144.36C1717.82 2077.66 1553.4 1967.5 1405.48 1823.31C1217.79 1640.33 1109.94 1454.34 1086.34 1271.7L1085.98 1268.84L1081.4 489.519C1081.4 335.502 1181.85 210.481 1370.46 128.33C1526.29 60.4582 1732.82 26.8282 1951.01 33.1432C2166.66 39.3852 2366.21 83.8802 2513.91 158.021C2689.48 246.156 2781.6 370.013 2781.6 516.856L2777.42 1261.5L2777.08 1264.24C2755.52 1439.14 2656.3 1619.92 2480.92 1802.73C2340.26 1949.36 2181.3 2065.56 2072.13 2137.55C2036.01 2161.38 1994.14 2174.65 1951.01 2175.89Z" fill="url(#paint0_linear_168_3)"/>
<path d="M1993.81 2175.89C1951.15 2177.14 1909.54 2166.25 1873.5 2144.36C1763.7 2077.66 1601.45 1967.5 1455.49 1823.31C1270.27 1640.33 1163.85 1454.34 1140.57 1271.7L1140.2 1268.84L1135.68 489.519C1135.68 335.502 1234.81 210.481 1420.92 128.33C1574.69 60.4582 1778.5 26.8282 1993.81 33.1432C2206.61 39.3852 2403.52 83.8802 2549.26 158.021C2722.52 246.156 2813.42 370.013 2813.42 516.856L2809.3 1261.5L2808.96 1264.24C2787.69 1439.14 2689.77 1619.92 2516.71 1802.73C2377.9 1949.36 2221.05 2065.56 2113.32 2137.55C2077.69 2161.38 2036.36 2174.65 1993.81 2175.89Z" fill="url(#paint1_linear_168_3)"/>
<path d="M1187.14 490.08L1191.69 1265.46C1242.73 1661.08 1707.67 1981.39 1910.17 2103.08C1968.18 2137.94 2042.34 2135.88 2099.94 2097.97C2298.21 1967.51 2737.69 1639.06 2784.65 1258.68L2788.82 516.092C2788.82 -34.8494 1187.14 -85.2164 1187.14 490.08Z" fill="url(#paint2_linear_168_3)"/>
<path d="M2005.29 1983.56C2001.58 1983.65 1995.97 1983.03 1990.29 1979.59C1906.91 1929.1 1745.29 1823.34 1604.68 1685.23C1452.8 1536.04 1365.21 1391 1345.12 1254.77L1340.67 492.225C1340.85 419.059 1398.77 356.441 1512.3 306.337C1639.04 250.401 1819.02 221.051 2005.3 225.475C2189.71 229.853 2364.45 266.977 2485.5 327.046C2592.58 380.178 2646.71 442.815 2646.89 513.451L2642.74 1249.59C2623.99 1381.42 2541.77 1523.53 2397.43 1672.93C2261.7 1813.39 2103.16 1924.74 2020.29 1978.89C2014.62 1982.59 2009.01 1983.47 2005.29 1983.56Z" fill="url(#paint3_linear_168_3)"/>
<path d="M1986.27 1931.44C1902.07 1879.58 1752.34 1779.44 1621.7 1650.88C1478.97 1510.41 1396.37 1375.61 1376.96 1250.89L1372.54 492.777C1372.67 440.464 1420.75 392.478 1515.09 350.71C1635.15 297.548 1807.17 269.536 1986.27 273.556C2163.65 277.538 2330.84 312.573 2445.74 369.422C2535.01 413.591 2580.17 461.773 2580.3 512.793L2576.15 1246.23C2557.94 1367.24 2480.03 1499.58 2343.79 1640.32C2217.3 1770.99 2070.09 1876.07 1986.27 1931.44Z" fill="#F4F7FA"/>
<path d="M2287.55 938.865L1720.55 943.909C1676.96 944.297 1641.45 978.276 1641.45 1019.78V1383.07C1641.45 1424.33 1676.83 1456.31 1720.26 1454.53L2285.26 1431.4C2325.45 1429.75 2358.04 1396.48 2358.25 1357.06L2360.04 1010.01C2360.25 970.371 2327.88 938.506 2287.55 938.865Z" fill="url(#paint4_linear_168_3)"/>
<path opacity="0.8" d="M2081.63 1147.19C2081.76 1107.06 2047.32 1075.35 2005.27 1078.01C1968.04 1080.36 1937.16 1110.42 1935.07 1146.5C1933.45 1174.49 1948.59 1198.74 1971.63 1211.04C1981.43 1216.28 1986.27 1227.24 1984.34 1238.07L1967.95 1329.84C1965.87 1341.52 1975.13 1351.8 1987.34 1351.37L2028.81 1349.92C2040.94 1349.49 2050.17 1338.63 2048.16 1327.14L2032.31 1236.24C2030.41 1225.39 2036.01 1214.63 2045.84 1208.72C2067.21 1195.86 2081.55 1172.98 2081.63 1147.19Z" fill="url(#paint5_linear_168_3)"/>
<path d="M2279.59 902.831C2262.56 902.942 2248.79 889.414 2248.86 872.61L2249.21 793.474C2249.56 713.993 2183.85 648.608 2101.96 647.795L1916.88 645.958C1832.13 645.115 1762.45 711.204 1762.37 793.198L1762.3 874.834C1762.29 892.167 1747.53 906.314 1729.3 906.433C1711.03 906.552 1696.2 892.542 1696.21 875.136L1696.24 793.16C1696.28 675.974 1796.08 581.874 1917 583.554L2102.16 586.128C2218.48 587.745 2311.39 680.84 2310.85 793.508L2310.47 872.329C2310.39 889.065 2296.58 902.719 2279.59 902.831Z" fill="url(#paint6_linear_168_3)"/>
<path d="M2863.56 2659.47L48.053 2635.48V2706.48C48.053 2725.76 60.333 2742.15 76.964 2745.07L873.104 2884.9C882.552 2886.56 892.134 2887 901.668 2886.21L2832.96 2726.78C2850.2 2725.36 2863.55 2708.92 2863.55 2689.12L2863.56 2659.47Z" fill="#26264F"/>
<path d="M1841.82 2545.68L77.1679 2675.58C45.5909 2677.91 19.9159 2653.21 19.9159 2620.41V1306.32C19.9159 1273.52 45.5909 1246.93 77.1679 1246.93H1841.82C1867.84 1246.93 1888.87 1270.97 1888.87 1300.62V2488.53C1888.87 2518.18 1867.84 2543.76 1841.82 2545.68Z" fill="#26264F"/>
<path d="M1869.96 2545.68L105.306 2675.58C73.728 2677.91 48.054 2653.21 48.054 2620.41V1306.32C48.054 1273.52 73.728 1246.93 105.306 1246.93H1869.96C1895.97 1246.93 1917.01 1270.97 1917.01 1300.62V2488.53C1917.01 2518.18 1895.97 2543.76 1869.96 2545.68Z" fill="url(#paint7_linear_168_3)"/>
<path d="M1814.98 2461.93L171.394 2574.77C145.697 2576.53 124.815 2556.26 124.815 2529.48V1379C124.815 1352.22 145.698 1330.42 171.394 1330.31L1814.98 1323.23C1836.44 1323.13 1853.8 1342.83 1853.8 1367.22V2415.11C1853.8 2439.49 1836.44 2460.46 1814.98 2461.93Z" fill="white"/>
<path d="M1049.95 1282.87C1049.95 1295.08 1040.87 1305.01 1029.66 1305.05C1018.43 1305.08 1009.31 1295.19 1009.31 1282.95C1009.31 1270.72 1018.43 1260.79 1029.66 1260.78C1040.87 1260.77 1049.95 1270.66 1049.95 1282.87Z" fill="white"/>
<path d="M1940.29 2538.47L48.053 2675.21L873.105 2820.12C882.553 2821.78 892.135 2822.22 901.669 2821.43L2863.56 2659.48L1970.39 2539.4C1960.4 2538.06 1950.33 2537.75 1940.29 2538.47Z" fill="url(#paint8_linear_168_3)"/>
<path d="M324.161 2676.39L1899.51 2560.85L2387.06 2625.87L825.287 2749.37L324.161 2676.39Z" fill="#26264F"/>
<path d="M834.571 2527.31L164.078 2572.43C144.407 2573.75 127.722 2558.15 127.722 2538.44V1364.14C127.722 1345.38 142.892 1330.15 161.653 1330.07L834.571 1327.35V2527.31Z" fill="#D8DEE8"/>
<path d="M1700.45 1886.95L994.005 1911.77V1840.34L1700.45 1818.2V1886.95Z" fill="#D8DEE8"/>
<path d="M1700.45 1999.57L994.005 2028.79V1957.36L1700.45 1930.83V1999.57Z" fill="#D8DEE8"/>
<path d="M765.412 1899.78L359.764 1913.61V1860.22L765.412 1847.51V1899.78Z" fill="white"/>
<path d="M765.412 1985.42L359.764 2001.07V1947.68L765.412 1933.14V1985.42Z" fill="white"/>
<path d="M765.412 2071.05L359.764 2088.53V2035.14L765.412 2018.78V2071.05Z" fill="white"/>
<path d="M765.412 2156.69L359.764 2175.99V2122.6L765.412 2104.42V2156.69Z" fill="white"/>
<path d="M1306.18 2130.96L994.005 2145.81V2074.38L1306.18 2060.71V2130.96Z" fill="#D8DEE8"/>
<path d="M1255.91 1571.23V1678.53C1255.91 1709.55 1282.01 1734.02 1314.11 1733.18L1393.69 1731.1C1425.4 1730.28 1451.03 1704.72 1451.03 1674.03V1567.86L1255.91 1571.23ZM1329.21 1682.15L1344 1637.34C1337.66 1634.07 1333.37 1627.63 1333.37 1620.12C1333.37 1609.11 1342.6 1600 1353.98 1599.79C1365.35 1599.57 1374.56 1608.31 1374.56 1619.3C1374.56 1626.79 1370.28 1633.39 1363.96 1636.92L1378.7 1681L1329.21 1682.15Z" fill="#D8DEE8"/>
<path d="M1428.41 1558.56C1419.96 1558.7 1413.11 1552.17 1413.11 1543.97C1413.11 1512.43 1386.63 1487.11 1353.98 1487.53C1321.22 1487.95 1294.48 1514.11 1294.48 1545.86C1294.48 1554.11 1287.53 1560.92 1278.96 1561.06C1270.38 1561.21 1263.42 1554.62 1263.42 1546.35C1263.42 1498.04 1304.16 1458.29 1353.99 1457.73C1403.55 1457.17 1443.67 1495.64 1443.67 1543.48C1443.67 1551.67 1436.84 1558.42 1428.41 1558.56Z" fill="#D8DEE8"/>
<path opacity="0.48" d="M105.299 2675.58L1861.02 2546.34L1869.96 2545.68C1881.89 2544.8 1892.75 2538.9 1901.04 2529.95C1774.7 2523.04 1696.22 2478.2 1645.6 2431.87C1543.94 2338.83 1561.57 2247.08 1451.94 2185.91C1315.21 2109.62 1207.7 2206.29 1103.94 2110.91C1041.03 2053.07 1071.92 2009.95 994.51 1923.53C908.78 1827.81 852.964 1859.99 766.806 1773.84C657.867 1664.91 712.351 1580.16 618.512 1501.96C504.672 1407.08 381.901 1494.89 273.534 1403.9C226.794 1364.66 201.147 1307.61 187.756 1246.93H105.307C73.729 1246.93 48.054 1273.52 48.054 1306.32V2620.41C48.053 2653.2 73.723 2677.9 105.299 2675.58Z" fill="white"/>
<path d="M1216.46 1240.22C1216.46 1468.04 1039.83 1655.94 818.907 1662.39C594.542 1668.94 406.14 1486.5 401.228 1252.25C396.256 1015.14 580.828 820.799 810.21 820.799C1036 820.799 1216.46 1009.69 1216.46 1240.22Z" fill="url(#paint9_linear_168_3)"/>
<path d="M1244.01 1240.22C1244.01 1468.04 1067.38 1655.94 846.458 1662.39C622.093 1668.94 433.69 1486.5 428.779 1252.25C423.807 1015.14 608.379 820.799 837.761 820.799C1063.55 820.799 1244.01 1009.69 1244.01 1240.22Z" fill="url(#paint10_linear_168_3)"/>
<path d="M1191.85 1240.99C1191.98 1341.65 1152.44 1433.35 1088.32 1499.95C1026.07 1564.61 671.989 1577.87 607.965 1521.73C533.861 1456.74 485.904 1360.48 483.772 1251.44C479.756 1046.04 639.603 877.608 838.344 877.219C1034.38 876.836 1191.58 1040.54 1191.85 1240.99Z" fill="white"/>
<mask id="mask0_168_3" style="mask-type:luminance" maskUnits="userSpaceOnUse" x="483" y="877" width="709" height="732">
<path d="M1191.85 1240.99C1192.11 1439.39 1038.26 1602.95 845.898 1608.21C650.934 1613.53 487.746 1454.69 483.772 1251.44C479.756 1046.04 639.603 877.609 838.344 877.22C1034.38 876.836 1191.58 1040.54 1191.85 1240.99Z" fill="white"/>
</mask>
<g mask="url(#mask0_168_3)">
<path d="M845.568 1366.23C778.503 1374.64 757.541 1399.59 730.606 1382.92C706.053 1367.73 715.701 1342.26 689.411 1324.71C652.5 1300.06 608.768 1333.62 591.119 1312.45C577.301 1295.88 603.206 1274.31 597.841 1230.01C591.446 1177.18 549.661 1166.32 554.93 1123.78C558.654 1093.72 582.717 1073.33 584.46 1071.89C603.093 1056.54 612.442 1064.48 629.642 1050.48C654.571 1030.18 643.456 1006.52 668.904 982.968C670.889 981.131 696.107 958.425 723.086 964.361C743.941 968.949 743.829 985.829 761.34 990.238C792.647 998.122 809.604 948.224 848.501 948.489C879.174 948.698 880.679 979.878 917.975 987.233C963.768 996.263 996.909 956.131 1014.82 972.04C1026.29 982.227 1013.55 999.482 1026.75 1018.9C1041.19 1040.14 1062.89 1028.94 1086.73 1051.12C1100.71 1064.13 1113.24 1086.61 1112.44 1109.72C1111.64 1132.67 1098.32 1138.45 1101.34 1158.74C1104.28 1178.52 1117.87 1179.15 1121.35 1198.04C1125.26 1219.29 1112.82 1244.45 1096.2 1258.21C1073.4 1277.11 1052.71 1266.25 1040.03 1285.01C1030.55 1299.04 1039.04 1309.63 1031.04 1326.1C1023.32 1341.97 1006.01 1351.5 972.831 1359.24C914.857 1372.76 900.867 1359.3 845.568 1366.23Z" fill="url(#paint11_linear_168_3)"/>
<g opacity="0.3">
<path d="M1060.8 1248.22C1022.45 1240.85 1018.67 1203.87 978.021 1192.69C907.959 1173.41 850.153 1263.82 814.787 1242.16C780.888 1221.39 825.964 1133.78 779.127 1081.86C744.461 1043.44 692.273 1060.73 680.352 1031.97C674.947 1018.93 678.599 998.288 706.952 963.903C686.77 966.853 670.484 981.507 668.905 982.968C643.457 1006.52 654.571 1030.18 629.643 1050.48C612.443 1064.48 603.094 1056.53 584.461 1071.89C582.718 1073.33 558.655 1093.72 554.931 1123.78C549.662 1166.32 591.446 1177.18 597.842 1230.01C603.207 1274.31 577.302 1295.88 591.12 1312.45C608.768 1333.62 652.5 1300.06 689.412 1324.71C715.702 1342.26 706.054 1367.73 730.607 1382.92C757.542 1399.59 778.504 1374.64 845.569 1366.23C900.869 1359.3 914.858 1372.76 972.834 1359.24C1006.02 1351.5 1023.32 1341.97 1031.04 1326.1C1039.05 1309.63 1030.55 1299.04 1040.03 1285.02C1052.71 1266.25 1073.4 1277.11 1096.21 1258.22C1102.34 1253.14 1107.89 1246.51 1112.27 1239.1C1095.55 1247.49 1078.12 1251.55 1060.8 1248.22Z" fill="url(#paint12_linear_168_3)"/>
</g>
<path d="M597.708 1626.69C621.29 1662.53 703.071 1642.41 856.724 1636.24C1009.91 1630.09 1077.63 1644.2 1101.05 1608.47C1111.92 1591.89 1107.72 1573.06 1099.73 1537.24C1094.25 1512.71 1083.54 1464.69 1044.37 1432.29C996.092 1392.34 928.626 1395.97 860.452 1399.65C788.789 1403.51 689.343 1408.87 634.744 1474C596.545 1519.56 593.57 1578.64 593.241 1587.35C592.467 1607.88 592.079 1618.14 597.708 1626.69Z" fill="url(#paint13_linear_168_3)"/>
<path d="M823.284 1283.4C823.284 1283.4 833.635 1392.56 759.384 1415.86C751.147 1418.44 749.213 1429.52 756.048 1434.81C779.868 1453.23 822.69 1482.48 858.05 1485.56C894.757 1488.76 937.924 1448.91 959.969 1425.41C965.869 1419.12 962.536 1408.73 954.223 1407.37C922.623 1402.21 865.653 1380.01 870.65 1286.84L823.284 1283.4Z" fill="url(#paint14_linear_168_3)"/>
<path d="M772.377 1205.02C772.377 1205.02 768.395 1314.82 844.854 1312.24C920.915 1309.67 914.759 1216.65 910.337 1192.58C910.337 1192.58 910.324 1128.86 859.479 1134.89C808.468 1140.94 774.11 1157.95 772.377 1205.02Z" fill="url(#paint15_linear_168_3)"/>
<path d="M904.699 1231.56C904.699 1231.56 911.751 1202.86 926.922 1216.81C948.922 1237.04 902.55 1261.02 902.55 1261.02L904.699 1231.56Z" fill="url(#paint16_linear_168_3)"/>
<path d="M780.026 1233.34C780.026 1233.34 772.314 1204.71 757.274 1219.15C735.408 1240.13 782.804 1262.85 782.804 1262.85L780.026 1233.34Z" fill="url(#paint17_linear_168_3)"/>
<path d="M769.998 1203.55C770.683 1205.73 773.665 1205.79 774.43 1203.63C779.466 1189.47 795.529 1157.27 838.515 1152.14C876.868 1147.56 897.501 1176.49 906.524 1194.59C908.496 1198.54 914.241 1197.37 914.636 1192.94C916.984 1166.52 913.061 1115.59 847.689 1116.26C764.81 1117.11 763.279 1182.16 769.998 1203.55Z" fill="url(#paint18_linear_168_3)"/>
</g>
<path d="M1887.49 2848.93C1887.49 2848.93 1814.3 2882.2 1813.11 2887.51C1811.91 2892.82 1860.18 2885.73 1879.88 2886.49C1899.58 2887.26 1915.79 2881.43 1914 2873.09C1912.22 2864.74 1905.33 2843.75 1905.33 2843.75L1887.49 2848.93Z" fill="url(#paint19_linear_168_3)"/>
<path d="M1884.81 2821.94L1889.27 2854.89C1889.27 2854.89 1900.85 2859.01 1908.64 2854.14L1911.96 2818L1884.81 2821.94Z" fill="url(#paint20_linear_168_3)"/>
<path d="M2229.49 2822.73L2238 2836.39C2240.38 2840.22 2241.09 2844.82 2239.95 2849.17C2236.97 2860.54 2231.03 2882.69 2228.43 2888.46C2224.9 2896.33 2177.54 2901 2177.54 2901C2177.54 2901 2173.31 2895.06 2183.15 2887.88C2192.98 2880.7 2199.3 2879.57 2202.77 2868.98C2206.24 2858.38 2208.56 2828.42 2208.56 2828.42L2229.49 2822.73Z" fill="url(#paint21_linear_168_3)"/>
<path d="M2194.05 2788C2197.16 2790.48 2212.37 2836.65 2212.37 2836.65C2212.37 2836.65 2217.3 2842.94 2226.65 2833.65C2236 2824.36 2230.88 2829.49 2230.88 2829.49L2229.13 2784.07L2194.05 2788Z" fill="url(#paint22_linear_168_3)"/>
<path d="M1844.55 2159.91C1840.68 2258.2 1840.53 2365 1846.18 2479.08C1852.55 2607.56 1865.35 2726.3 1881.48 2833.93C1887.47 2834.13 1893.77 2834.16 1900.35 2833.97C1904.79 2833.85 1909.1 2833.63 1913.26 2833.35C1921.63 2811.03 1931.52 2781.68 1940.38 2746.62C1949.69 2709.75 1955.31 2676.69 1959.31 2645.07C1973.41 2533.73 1956.89 2524.02 1968.33 2441.51C1978.46 2368.44 1992.87 2365.59 2009.78 2261.84C2028.13 2149.27 2014.47 2132.38 2007.82 2126.28C1979.55 2100.3 1913.12 2117.99 1844.55 2159.91Z" fill="url(#paint23_linear_168_3)"/>
<path opacity="0.3" d="M2007.82 2126.28C1980.85 2101.5 1919.17 2116.5 1854.03 2154.31C1928.97 2235.28 1937.14 2287.81 1928.16 2321.89C1918 2360.41 1887.13 2371.51 1887.25 2413.63C1887.39 2465.39 1934.11 2479.1 1933.12 2533.87C1932.46 2570.09 1911.93 2569.71 1907.08 2614.45C1901.35 2667.38 1928.17 2685.61 1919.48 2724.78C1915.74 2741.62 1905.08 2763.64 1874.7 2786.32C1876.89 2802.4 1879.14 2818.32 1881.48 2833.94C1887.47 2834.12 1893.77 2834.16 1900.35 2833.97C1904.8 2833.85 1909.1 2833.63 1913.26 2833.35C1921.63 2811.03 1931.52 2781.68 1940.38 2746.62C1949.69 2709.75 1955.31 2676.69 1959.31 2645.07C1973.41 2533.73 1956.89 2524.02 1968.33 2441.51C1978.46 2368.44 1992.87 2365.58 2009.78 2261.84C2028.13 2149.26 2014.47 2132.38 2007.82 2126.28Z" fill="url(#paint24_linear_168_3)"/>
<path d="M1890.97 2158.26C1955.5 2252.68 2025.1 2370.19 2087.35 2510.85C2134.39 2617.14 2168.5 2716.94 2193.55 2805.89C2196.94 2807.46 2204.94 2810.59 2215.15 2809.24C2229.09 2807.39 2237.44 2798.5 2239.62 2796.02C2249.82 2732.26 2248.69 2678.25 2245.23 2639.28C2243.02 2614.33 2239.1 2572.77 2223.19 2521.48C2205.38 2464.01 2193.13 2460.78 2169.89 2399.99C2145.76 2336.89 2151.61 2321.14 2128.51 2242.17C2119.02 2209.74 2103.13 2161.46 2076.92 2103.72C2014.93 2121.89 1952.95 2140.08 1890.97 2158.26Z" fill="url(#paint25_linear_168_3)"/>
<path d="M1585.75 1486.14C1585.75 1486.14 1573.23 1471.15 1565.24 1459.99C1557.26 1448.82 1520.47 1417.76 1520.47 1417.76C1520.47 1417.76 1517.83 1422.88 1525.78 1430.79C1533.72 1438.71 1550.38 1452.21 1546.75 1458.15C1543.12 1464.1 1532.64 1469.5 1540.52 1480.4C1548.4 1491.31 1561.52 1483.46 1568.51 1492.19C1575.49 1500.92 1582.66 1510.45 1582.66 1510.45L1585.75 1486.14Z" fill="url(#paint26_linear_168_3)"/>
<path d="M1587.5 1470.4C1579.15 1480.88 1570.79 1491.36 1562.44 1501.84C1573.12 1548.06 1595.9 1617.71 1648.84 1685.36C1704.96 1757.07 1824.67 1864.47 1899.19 1829.26C1944.61 1807.8 2005.93 1734.16 1983.89 1698.66C1962.71 1664.53 1871.04 1680.66 1808.08 1666.44C1746.37 1652.5 1666.28 1607.59 1587.5 1470.4Z" fill="url(#paint27_linear_168_3)"/>
<path d="M2162.88 1742.99C2162.88 1742.99 2211.71 1909.18 2181.46 1973.13C2151.21 2037.08 2054.75 1966.85 2054.75 1966.85L2162.88 1742.99Z" fill="url(#paint28_linear_168_3)"/>
<path d="M2153.84 1743.19C2153.84 1743.19 2202.67 1909.38 2172.42 1973.33C2142.17 2037.27 2045.71 1967.05 2045.71 1967.05L2153.84 1743.19Z" fill="url(#paint29_linear_168_3)"/>
<path d="M2011.04 1681.54C1948.32 1680.39 1900.01 1682.44 1873.3 1710.32C1845.1 1739.76 1874.95 1771.66 1870.33 1847.17C1863.26 1962.78 1790.34 1992.58 1787.36 2109.78C1786.35 2149.26 1793.73 2181.36 1799.34 2200.66C1815.92 2220.41 1842.95 2248.2 1882.45 2271.07C1939.93 2304.34 1972.7 2297.61 2054.65 2318.13C2188.71 2351.69 2201.51 2394.87 2267.35 2382.36C2333.89 2369.72 2391.25 2312.25 2383.5 2281.54C2378.86 2263.15 2352.06 2268.97 2320.45 2241.46C2279.71 2206 2294.35 2170.98 2263.13 2132.6C2218.28 2077.47 2158.25 2113.08 2120.02 2065.29C2081.34 2016.95 2094.15 1919.74 2124.69 1866.24C2144.65 1831.3 2152.63 1790.69 2169.46 1754.14C2170.86 1751.1 2172.45 1746.14 2171.57 1739.99C2168.2 1716.5 2128.66 1704.58 2098.71 1695.86C2053.05 1682.55 2016.2 1681.63 2011.04 1681.54Z" fill="url(#paint30_linear_168_3)"/>
<path d="M1949.98 1680.27L1962.26 1676.2C1962.26 1676.2 1965.86 1692.87 2005.64 1694.09C2027.7 1693.61 2041.69 1680.94 2041.69 1680.94L2050.27 1686.91C2050.27 1686.91 2032.25 1710.46 2002.77 1710.51C1964.72 1710.58 1949.98 1680.27 1949.98 1680.27Z" fill="url(#paint31_linear_168_3)"/>
<path d="M1960.05 1626.47C1956.69 1608.25 1966.91 1592.58 1969.16 1589.21C1978.56 1575.1 1980.81 1573.26 1984.89 1571.04L1990.52 1568.23C1990.52 1568.23 1990.85 1568.14 1991.18 1568.05C1994.72 1567.14 2006.43 1567.86 2008.74 1568.58C2016.15 1570.88 2021.39 1602.4 2015.12 1645.71C2015.42 1649.11 2015.72 1652.51 2016.01 1655.91C2032.88 1653.58 2037.76 1655.18 2038.62 1657.44C2040.5 1662.33 2028.75 1690.91 2012.69 1696.54C1992.54 1703.6 1964.48 1685.2 1962.8 1678.54C1962.11 1675.85 1962.23 1678.16 1975.95 1670.22C1977.21 1666.24 1981.14 1655.45 1982.4 1651.47C1979.49 1649.6 1962.53 1639.9 1960.05 1626.47Z" fill="url(#paint32_linear_168_3)"/>
<path d="M1983.04 1611.81C1986.76 1607.57 1992.18 1612.36 1991.67 1618.24C1991.17 1624.12 1984.92 1629.71 1979.5 1628.04C1974.09 1626.38 1978.03 1617.51 1983.04 1611.81Z" fill="url(#paint33_linear_168_3)"/>
<g opacity="0.3">
<path d="M2220.24 2283.13C2157.16 2241.22 2100.06 2289.16 2055.47 2252.24C2018.75 2221.83 2048.86 2182.18 2009.13 2128.66C1965.57 2069.98 1905.12 2084.99 1890.71 2041.13C1875.82 1995.81 1935.56 1965.05 1937.05 1902.11C1937.81 1869.99 1923.39 1828.16 1865.78 1777.99C1868.89 1796.3 1872.08 1818.61 1870.33 1847.17C1863.26 1962.78 1790.34 1992.58 1787.36 2109.77C1786.35 2149.26 1793.73 2181.36 1799.34 2200.66C1815.92 2220.41 1842.95 2248.2 1882.45 2271.06C1939.93 2304.34 1972.7 2297.61 2054.65 2318.13C2188.71 2351.69 2201.51 2394.87 2267.35 2382.36C2286.53 2378.72 2304.93 2371.34 2321.24 2361.96C2302.07 2358.98 2287.77 2352.46 2276.88 2344.92C2248.07 2324.98 2253.13 2304.99 2220.24 2283.13Z" fill="url(#paint34_linear_168_3)"/>
</g>
<path d="M2087.54 1492.37C2053.27 1496.26 2041.62 1466.64 2011.34 1472.69C1973.24 1480.31 1943.3 1536.83 1957.76 1565.09C1966.8 1582.74 1988.27 1579.86 2001.03 1602.45C2006.35 1611.85 2008.99 1623.59 2005.16 1651.6C1995.85 1719.66 1968.99 1732.79 1978.37 1757.76C1989.94 1788.57 2042.63 1800.04 2075.21 1799.05C2086.23 1798.71 2115.22 1797.83 2139.08 1779.39C2160.45 1762.87 2158.89 1746.82 2180.86 1736.49C2198.81 1728.06 2205.53 1736.1 2229.74 1730.24C2250.12 1725.3 2286.09 1709.73 2291.55 1685.02C2297.63 1657.48 2260.03 1644.88 2263.24 1609.73C2265.31 1587 2281.61 1585.95 2287.43 1559.2C2295.61 1521.62 2271.17 1488.23 2266.83 1482.52C2247.22 1456.71 2208.68 1430.58 2172.05 1437.3C2130.67 1444.9 2127.74 1487.81 2087.54 1492.37Z" fill="url(#paint35_linear_168_3)"/>
</g>
<defs>
<linearGradient id="paint0_linear_168_3" x1="2928.78" y1="-26.4768" x2="2438.74" y2="444.526" gradientUnits="userSpaceOnUse">
<stop stop-color="#FFC444"/>
<stop offset="0.9964" stop-color="#F36F56"/>
</linearGradient>
<linearGradient id="paint1_linear_168_3" x1="1472.32" y1="80.8476" x2="3138.06" y2="2805.28" gradientUnits="userSpaceOnUse">
<stop stop-color="#FFC444"/>
<stop offset="0.9964" stop-color="#F36F56"/>
</linearGradient>
<linearGradient id="paint2_linear_168_3" x1="2355.6" y1="1632.03" x2="1002.77" y2="-1088.22" gradientUnits="userSpaceOnUse">
<stop stop-color="#FFC444"/>
<stop offset="0.9964" stop-color="#F36F56"/>
</linearGradient>
<linearGradient id="paint3_linear_168_3" x1="1340.66" y1="1104.3" x2="2646.89" y2="1104.3" gradientUnits="userSpaceOnUse">
<stop stop-color="#311944"/>
<stop offset="1" stop-color="#893976"/>
</linearGradient>
<linearGradient id="paint4_linear_168_3" x1="2409.83" y1="430.376" x2="1872.61" y2="1423.43" gradientUnits="userSpaceOnUse">
<stop offset="0.0036" stop-color="#E38DDD"/>
<stop offset="1" stop-color="#9571F6"/>
</linearGradient>
<linearGradient id="paint5_linear_168_3" x1="1799.08" y1="210.467" x2="2076.12" y2="1471.61" gradientUnits="userSpaceOnUse">
<stop offset="0.0036" stop-color="#E38DDD"/>
<stop offset="1" stop-color="#9571F6"/>
</linearGradient>
<linearGradient id="paint6_linear_168_3" x1="2254.6" y1="346.398" x2="1717.37" y2="1339.45" gradientUnits="userSpaceOnUse">
<stop offset="0.0036" stop-color="#E38DDD"/>
<stop offset="1" stop-color="#9571F6"/>
</linearGradient>
<linearGradient id="paint7_linear_168_3" x1="48.0533" y1="1961.33" x2="1917.01" y2="1961.33" gradientUnits="userSpaceOnUse">
<stop stop-color="#444B8C"/>
<stop offset="0.9964" stop-color="#26264F"/>
</linearGradient>
<linearGradient id="paint8_linear_168_3" x1="48.0533" y1="2679.95" x2="2863.56" y2="2679.95" gradientUnits="userSpaceOnUse">
<stop stop-color="#444B8C"/>
<stop offset="0.9964" stop-color="#26264F"/>
</linearGradient>
<linearGradient id="paint9_linear_168_3" x1="401.13" y1="1241.68" x2="1216.46" y2="1241.68" gradientUnits="userSpaceOnUse">
<stop stop-color="#AB316D"/>
<stop offset="1" stop-color="#792D3D"/>
</linearGradient>
<linearGradient id="paint10_linear_168_3" x1="1076.57" y1="787.567" x2="429.624" y2="2009.57" gradientUnits="userSpaceOnUse">
<stop stop-color="#FF9085"/>
<stop offset="1" stop-color="#FB6FBB"/>
</linearGradient>
<linearGradient id="paint11_linear_168_3" x1="862.926" y1="1352.92" x2="813.059" y2="956.758" gradientUnits="userSpaceOnUse">
<stop stop-color="#311944"/>
<stop offset="1" stop-color="#6B3976"/>
</linearGradient>
<linearGradient id="paint12_linear_168_3" x1="854.431" y1="1353.99" x2="804.566" y2="957.836" gradientUnits="userSpaceOnUse">
<stop stop-color="#311944"/>
<stop offset="1" stop-color="#6B3976"/>
</linearGradient>
<linearGradient id="paint13_linear_168_3" x1="844.928" y1="1425.37" x2="854.019" y2="1717.1" gradientUnits="userSpaceOnUse">
<stop stop-color="#FFC444"/>
<stop offset="0.9964" stop-color="#F36F56"/>
</linearGradient>
<linearGradient id="paint14_linear_168_3" x1="854.928" y1="1497.71" x2="863.273" y2="1244.86" gradientUnits="userSpaceOnUse">
<stop stop-color="#AB316D"/>
<stop offset="1" stop-color="#792D3D"/>
</linearGradient>
<linearGradient id="paint15_linear_168_3" x1="838.031" y1="1284.5" x2="849.021" y2="1116.26" gradientUnits="userSpaceOnUse">
<stop stop-color="#AB316D"/>
<stop offset="1" stop-color="#792D3D"/>
</linearGradient>
<linearGradient id="paint16_linear_168_3" x1="914.834" y1="1288.91" x2="925.82" y2="1120.75" gradientUnits="userSpaceOnUse">
<stop stop-color="#AB316D"/>
<stop offset="1" stop-color="#792D3D"/>
</linearGradient>
<linearGradient id="paint17_linear_168_3" x1="764.942" y1="1280.6" x2="775.881" y2="1113.15" gradientUnits="userSpaceOnUse">
<stop stop-color="#AB316D"/>
<stop offset="1" stop-color="#792D3D"/>
</linearGradient>
<linearGradient id="paint18_linear_168_3" x1="840.348" y1="1223.72" x2="848.054" y2="910.352" gradientUnits="userSpaceOnUse">
<stop stop-color="#FFC444"/>
<stop offset="0.9964" stop-color="#F36F56"/>
</linearGradient>
<linearGradient id="paint19_linear_168_3" x1="1852.03" y1="2733.53" x2="1870.21" y2="2964.93" gradientUnits="userSpaceOnUse">
<stop offset="0.0036" stop-color="#26264F"/>
<stop offset="1" stop-color="#444B8C"/>
</linearGradient>
<linearGradient id="paint20_linear_168_3" x1="1898.97" y1="2862.36" x2="1895.67" y2="2622.7" gradientUnits="userSpaceOnUse">
<stop stop-color="#AB316D"/>
<stop offset="1" stop-color="#792D3D"/>
</linearGradient>
<linearGradient id="paint21_linear_168_3" x1="2195.62" y1="2706.53" x2="2213.8" y2="2937.93" gradientUnits="userSpaceOnUse">
<stop offset="0.0036" stop-color="#26264F"/>
<stop offset="1" stop-color="#444B8C"/>
</linearGradient>
<linearGradient id="paint22_linear_168_3" x1="2213.86" y1="2858.01" x2="2210.55" y2="2618.35" gradientUnits="userSpaceOnUse">
<stop stop-color="#AB316D"/>
<stop offset="1" stop-color="#792D3D"/>
</linearGradient>
<linearGradient id="paint23_linear_168_3" x1="1841.77" y1="2474.11" x2="2018.98" y2="2474.11" gradientUnits="userSpaceOnUse">
<stop offset="0.0036" stop-color="#E38DDD"/>
<stop offset="1" stop-color="#9571F6"/>
</linearGradient>
<linearGradient id="paint24_linear_168_3" x1="1854.03" y1="2474.12" x2="2018.97" y2="2474.12" gradientUnits="userSpaceOnUse">
<stop offset="0.0036" stop-color="#E38DDD"/>
<stop offset="1" stop-color="#9571F6"/>
</linearGradient>
<linearGradient id="paint25_linear_168_3" x1="1890.97" y1="2456.64" x2="2247.69" y2="2456.64" gradientUnits="userSpaceOnUse">
<stop offset="0.0036" stop-color="#E38DDD"/>
<stop offset="1" stop-color="#9571F6"/>
</linearGradient>
<linearGradient id="paint26_linear_168_3" x1="1533.43" y1="1401.31" x2="1637.63" y2="1692.6" gradientUnits="userSpaceOnUse">
<stop stop-color="#AB316D"/>
<stop offset="1" stop-color="#792D3D"/>
</linearGradient>
<linearGradient id="paint27_linear_168_3" x1="1785.91" y1="1646.46" x2="1968.34" y2="2336.47" gradientUnits="userSpaceOnUse">
<stop stop-color="#FFC444"/>
<stop offset="0.9964" stop-color="#F36F56"/>
</linearGradient>
<linearGradient id="paint28_linear_168_3" x1="2052.72" y1="1873.65" x2="2190.47" y2="1870.64" gradientUnits="userSpaceOnUse">
<stop stop-color="#FFC444"/>
<stop offset="0.9964" stop-color="#F36F56"/>
</linearGradient>
<linearGradient id="paint29_linear_168_3" x1="2043.68" y1="1873.84" x2="2181.43" y2="1870.84" gradientUnits="userSpaceOnUse">
<stop stop-color="#FFC444"/>
<stop offset="0.9964" stop-color="#F36F56"/>
</linearGradient>
<linearGradient id="paint30_linear_168_3" x1="1924.48" y1="1609.83" x2="2106.9" y2="2299.83" gradientUnits="userSpaceOnUse">
<stop stop-color="#FFC444"/>
<stop offset="0.9964" stop-color="#F36F56"/>
</linearGradient>
<linearGradient id="paint31_linear_168_3" x1="1963.91" y1="1628.9" x2="2020.2" y2="1714.19" gradientUnits="userSpaceOnUse">
<stop stop-color="#FF9085"/>
<stop offset="1" stop-color="#FB6FBB"/>
</linearGradient>
<linearGradient id="paint32_linear_168_3" x1="2008.61" y1="1598.46" x2="1979.54" y2="1716.05" gradientUnits="userSpaceOnUse">
<stop stop-color="#AB316D"/>
<stop offset="1" stop-color="#792D3D"/>
</linearGradient>
<linearGradient id="paint33_linear_168_3" x1="1984.42" y1="1590.78" x2="1983.99" y2="1700.84" gradientUnits="userSpaceOnUse">
<stop stop-color="#AB316D"/>
<stop offset="1" stop-color="#792D3D"/>
</linearGradient>
<linearGradient id="paint34_linear_168_3" x1="1885.44" y1="1620.15" x2="2067.87" y2="2310.15" gradientUnits="userSpaceOnUse">
<stop stop-color="#FFC444"/>
<stop offset="0.9964" stop-color="#F36F56"/>
</linearGradient>
<linearGradient id="paint35_linear_168_3" x1="1954.06" y1="1617.67" x2="2292.22" y2="1617.67" gradientUnits="userSpaceOnUse">
<stop stop-color="#311944"/>
<stop offset="1" stop-color="#6B3976"/>
</linearGradient>
<clipPath id="clip0_168_3">
<rect width="2901" height="2901" fill="white"/>
</clipPath>
</defs>
</svg>
