<svg width="2901" height="2901" viewBox="0 0 2901 2901" fill="none" xmlns="http://www.w3.org/2000/svg">
<g clip-path="url(#clip0_168_591)">
<path d="M146.671 1302.27C146.584 1302.27 146.499 1302.27 146.413 1302.26L119.764 1300.74C117.312 1300.6 115.437 1298.49 115.576 1296.04C115.719 1293.59 117.879 1291.73 120.272 1291.85L146.921 1293.38C149.373 1293.52 151.248 1295.62 151.109 1298.07C150.972 1300.44 149.01 1302.27 146.671 1302.27Z" fill="#BFC8D6"/>
<path d="M2473.92 1435.39C2473.83 1435.39 2473.75 1435.38 2473.66 1435.38L2420.77 1432.35C2418.32 1432.21 2416.44 1430.11 2416.58 1427.66C2416.72 1425.2 2418.98 1423.34 2421.28 1423.47L2474.17 1426.5C2476.62 1426.64 2478.5 1428.74 2478.36 1431.19C2478.22 1433.56 2476.26 1435.39 2473.92 1435.39ZM2368.14 1429.34C2368.05 1429.34 2367.96 1429.33 2367.88 1429.33L2314.99 1426.3C2312.53 1426.16 2310.66 1424.06 2310.8 1421.61C2310.94 1419.15 2313.16 1417.28 2315.49 1417.42L2368.38 1420.45C2370.84 1420.59 2372.71 1422.69 2372.57 1425.14C2372.44 1427.51 2370.48 1429.34 2368.14 1429.34ZM2262.35 1423.29C2262.27 1423.29 2262.18 1423.28 2262.1 1423.28L2209.2 1420.25C2206.75 1420.11 2204.87 1418.01 2205.02 1415.56C2205.16 1413.1 2207.39 1411.24 2209.71 1411.37L2262.6 1414.39C2265.06 1414.54 2266.93 1416.64 2266.79 1419.09C2266.65 1421.46 2264.69 1423.29 2262.35 1423.29ZM2156.57 1417.23C2156.48 1417.23 2156.39 1417.23 2156.31 1417.23L2103.42 1414.2C2100.96 1414.06 2099.09 1411.96 2099.23 1409.51C2099.37 1407.05 2101.63 1405.17 2103.92 1405.32L2156.81 1408.34C2159.27 1408.48 2161.15 1410.59 2161 1413.04C2160.87 1415.41 2158.91 1417.23 2156.57 1417.23ZM2050.78 1411.18C2050.7 1411.18 2050.61 1411.18 2050.53 1411.18L1997.64 1408.15C1995.18 1408.01 1993.3 1405.91 1993.45 1403.46C1993.59 1401 1995.81 1399.13 1998.14 1399.27L2051.03 1402.29C2053.49 1402.43 2055.36 1404.54 2055.22 1406.99C2055.09 1409.36 2053.13 1411.18 2050.78 1411.18ZM1945 1405.13C1944.91 1405.13 1944.82 1405.13 1944.74 1405.12L1891.85 1402.1C1889.39 1401.96 1887.52 1399.86 1887.66 1397.4C1887.8 1394.95 1890.05 1393.07 1892.35 1393.22L1945.25 1396.24C1947.7 1396.38 1949.58 1398.48 1949.43 1400.94C1949.3 1403.3 1947.34 1405.13 1945 1405.13ZM1839.22 1399.08C1839.13 1399.08 1839.04 1399.08 1838.96 1399.07L1786.07 1396.05C1783.61 1395.91 1781.74 1393.81 1781.88 1391.35C1782.02 1388.9 1784.29 1387.03 1786.57 1387.17L1839.46 1390.19C1841.92 1390.33 1843.8 1392.43 1843.65 1394.89C1843.52 1397.25 1841.56 1399.08 1839.22 1399.08ZM1733.43 1393.03C1733.34 1393.03 1733.26 1393.03 1733.17 1393.02L1680.29 1390C1677.83 1389.86 1675.95 1387.75 1676.1 1385.3C1676.24 1382.85 1678.46 1380.97 1680.79 1381.11L1733.68 1384.14C1736.13 1384.28 1738.01 1386.38 1737.87 1388.84C1737.73 1391.2 1735.77 1393.03 1733.43 1393.03ZM1627.65 1386.98C1627.56 1386.98 1627.47 1386.98 1627.39 1386.97L1574.5 1383.95C1572.04 1383.81 1570.17 1381.7 1570.31 1379.25C1570.45 1376.8 1572.7 1374.93 1575 1375.06L1627.9 1378.09C1630.35 1378.23 1632.23 1380.33 1632.08 1382.78C1631.95 1385.15 1629.99 1386.98 1627.65 1386.98ZM1521.86 1380.93C1521.77 1380.93 1521.69 1380.93 1521.61 1380.92L1468.72 1377.9C1466.26 1377.76 1464.39 1375.65 1464.53 1373.2C1464.67 1370.75 1466.94 1368.88 1469.22 1369.01L1522.11 1372.04C1524.56 1372.18 1526.44 1374.28 1526.3 1376.73C1526.16 1379.1 1524.2 1380.93 1521.86 1380.93ZM1416.08 1374.88C1415.99 1374.88 1415.91 1374.88 1415.82 1374.87L1362.93 1371.85C1360.48 1371.7 1358.6 1369.6 1358.74 1367.15C1358.88 1364.7 1360.99 1362.82 1363.44 1362.96L1416.33 1365.99C1418.78 1366.13 1420.66 1368.23 1420.51 1370.68C1420.38 1373.05 1418.42 1374.88 1416.08 1374.88ZM1310.29 1368.83C1310.21 1368.83 1310.12 1368.83 1310.04 1368.82L1257.14 1365.79C1254.69 1365.65 1252.82 1363.55 1252.96 1361.1C1253.1 1358.64 1255.23 1356.78 1257.65 1356.91L1310.54 1359.94C1313 1360.08 1314.87 1362.18 1314.73 1364.63C1314.59 1367 1312.64 1368.83 1310.29 1368.83ZM1204.51 1362.78C1204.42 1362.78 1204.34 1362.77 1204.25 1362.77L1151.36 1359.74C1148.91 1359.6 1147.03 1357.5 1147.17 1355.05C1147.31 1352.59 1149.44 1350.72 1151.87 1350.86L1204.76 1353.89C1207.21 1354.03 1209.09 1356.13 1208.95 1358.58C1208.81 1360.95 1206.85 1362.78 1204.51 1362.78ZM1098.73 1356.73C1098.64 1356.73 1098.56 1356.72 1098.47 1356.72L1045.58 1353.69C1043.12 1353.55 1041.25 1351.45 1041.39 1349C1041.53 1346.54 1043.65 1344.68 1046.08 1344.81L1098.98 1347.83C1101.43 1347.98 1103.3 1350.08 1103.17 1352.53C1103.03 1354.9 1101.07 1356.73 1098.73 1356.73ZM992.944 1350.67C992.859 1350.67 992.772 1350.67 992.686 1350.67L939.795 1347.64C937.342 1347.5 935.468 1345.4 935.607 1342.95C935.748 1340.49 937.864 1338.61 940.303 1338.76L993.194 1341.78C995.646 1341.92 997.521 1344.03 997.382 1346.48C997.245 1348.85 995.283 1350.67 992.944 1350.67ZM887.16 1344.62C887.073 1344.62 886.988 1344.62 886.901 1344.62L834.01 1341.59C831.558 1341.45 829.683 1339.35 829.822 1336.9C829.963 1334.44 832.075 1332.58 834.518 1332.71L887.409 1335.73C889.861 1335.87 891.736 1337.98 891.597 1340.43C891.461 1342.8 889.499 1344.62 887.16 1344.62ZM781.376 1338.57C781.289 1338.57 781.204 1338.57 781.117 1338.56L728.226 1335.54C725.774 1335.4 723.899 1333.3 724.038 1330.84C724.179 1328.39 726.345 1326.53 728.734 1326.66L781.625 1329.68C784.077 1329.82 785.952 1331.92 785.813 1334.38C785.677 1336.74 783.715 1338.57 781.376 1338.57ZM675.591 1332.52C675.504 1332.52 675.419 1332.52 675.333 1332.52L622.442 1329.49C619.99 1329.35 618.115 1327.25 618.254 1324.79C618.397 1322.34 620.557 1320.48 622.95 1320.61L675.841 1323.63C678.293 1323.77 680.168 1325.87 680.029 1328.33C679.892 1330.69 677.931 1332.52 675.591 1332.52ZM569.807 1326.47C569.72 1326.47 569.635 1326.47 569.549 1326.46L516.658 1323.44C514.206 1323.3 512.331 1321.2 512.47 1318.74C512.613 1316.29 514.768 1314.43 517.166 1314.55L570.057 1317.58C572.509 1317.72 574.384 1319.82 574.245 1322.28C574.108 1324.64 572.147 1326.47 569.807 1326.47ZM464.023 1320.42C463.936 1320.42 463.851 1320.42 463.764 1320.41L410.873 1317.39C408.421 1317.25 406.546 1315.15 406.685 1312.69C406.828 1310.24 408.979 1308.38 411.381 1308.5L464.272 1311.53C466.724 1311.67 468.599 1313.77 468.46 1316.23C468.324 1318.59 466.362 1320.42 464.023 1320.42ZM358.239 1314.37C358.152 1314.37 358.067 1314.37 357.981 1314.36L305.09 1311.34C302.638 1311.2 300.763 1309.09 300.902 1306.64C301.045 1304.19 303.191 1302.33 305.598 1302.45L358.489 1305.48C360.941 1305.62 362.816 1307.72 362.677 1310.18C362.54 1312.54 360.578 1314.37 358.239 1314.37ZM252.455 1308.32C252.368 1308.32 252.283 1308.32 252.196 1308.31L199.305 1305.29C196.853 1305.15 194.978 1303.04 195.117 1300.59C195.26 1298.14 197.4 1296.26 199.813 1296.4L252.704 1299.43C255.156 1299.57 257.031 1301.67 256.892 1304.12C256.756 1306.49 254.794 1308.32 252.455 1308.32Z" fill="#BFC8D6"/>
<path d="M2553.46 1439.94C2553.37 1439.94 2553.28 1439.93 2553.2 1439.93L2526.55 1438.41C2524.1 1438.26 2522.22 1436.16 2522.37 1433.71C2522.5 1431.26 2524.74 1429.38 2527.06 1429.52L2553.71 1431.05C2556.16 1431.19 2558.04 1433.29 2557.89 1435.74C2557.76 1438.11 2555.8 1439.94 2553.46 1439.94Z" fill="#BFC8D6"/>
<path d="M643.801 520.41C643.558 520.41 643.312 520.39 643.062 520.348L616.735 515.948C614.313 515.543 612.677 513.25 613.081 510.827C613.487 508.404 615.77 506.767 618.203 507.172L644.53 511.572C646.952 511.977 648.588 514.27 648.184 516.693C647.822 518.869 645.936 520.41 643.801 520.41Z" fill="#BFC8D6"/>
<path d="M2256.31 789.942C2256.07 789.942 2255.82 789.922 2255.57 789.881L2201.82 780.896C2199.39 780.491 2197.76 778.198 2198.16 775.775C2198.57 773.352 2200.85 771.716 2203.29 772.121L2257.04 781.106C2259.46 781.511 2261.1 783.804 2260.69 786.227C2260.33 788.401 2258.45 789.942 2256.31 789.942ZM2148.81 771.973C2148.56 771.973 2148.32 771.953 2148.07 771.912L2094.32 762.928C2091.9 762.523 2090.26 760.23 2090.67 757.807C2091.07 755.384 2093.36 753.749 2095.79 754.153L2149.54 763.137C2151.96 763.542 2153.6 765.835 2153.19 768.259C2152.83 770.432 2150.94 771.973 2148.81 771.973ZM2041.31 754.004C2041.06 754.004 2040.82 753.984 2040.57 753.943L1986.82 744.959C1984.39 744.554 1982.76 742.261 1983.16 739.838C1983.57 737.415 1985.86 735.774 1988.29 736.184L2042.04 745.168C2044.46 745.573 2046.09 747.866 2045.69 750.289C2045.32 752.463 2043.44 754.004 2041.31 754.004ZM1933.81 736.035C1933.56 736.035 1933.32 736.015 1933.07 735.974L1879.32 726.989C1876.9 726.584 1875.26 724.291 1875.67 721.868C1876.07 719.445 1878.37 717.809 1880.79 718.214L1934.54 727.199C1936.96 727.604 1938.6 729.897 1938.19 732.32C1937.83 734.494 1935.94 736.035 1933.81 736.035ZM1826.31 718.066C1826.06 718.066 1825.82 718.046 1825.57 718.005L1771.82 709.021C1769.39 708.616 1767.76 706.323 1768.16 703.9C1768.57 701.477 1770.85 699.842 1773.29 700.246L1827.04 709.23C1829.46 709.635 1831.09 711.928 1830.69 714.352C1830.32 716.525 1828.44 718.066 1826.31 718.066ZM1718.81 700.097C1718.56 700.097 1718.32 700.077 1718.07 700.036L1664.32 691.052C1661.89 690.647 1660.26 688.354 1660.66 685.931C1661.07 683.508 1663.36 681.872 1665.78 682.277L1719.54 691.261C1721.96 691.666 1723.6 693.959 1723.19 696.382C1722.83 698.556 1720.95 700.097 1718.81 700.097ZM1611.3 682.129C1611.06 682.129 1610.81 682.109 1610.57 682.068L1556.82 673.084C1554.39 672.679 1552.76 670.386 1553.16 667.963C1553.57 665.54 1555.86 663.905 1558.28 664.308L1612.03 673.292C1614.46 673.697 1616.09 675.99 1615.69 678.413C1615.32 680.588 1613.44 682.129 1611.3 682.129ZM1503.81 664.16C1503.56 664.16 1503.32 664.14 1503.07 664.099L1449.31 655.115C1446.89 654.71 1445.26 652.417 1445.66 649.994C1446.07 647.572 1448.35 645.93 1450.78 646.339L1504.54 655.323C1506.96 655.728 1508.59 658.021 1508.19 660.445C1507.83 662.619 1505.95 664.16 1503.81 664.16ZM1396.3 646.191C1396.06 646.191 1395.81 646.171 1395.57 646.13L1341.82 637.145C1339.39 636.74 1337.76 634.447 1338.16 632.024C1338.57 629.601 1340.86 627.96 1343.28 628.37L1397.03 637.355C1399.46 637.76 1401.09 640.053 1400.69 642.476C1400.32 644.65 1398.44 646.191 1396.3 646.191ZM1288.8 628.222C1288.56 628.222 1288.31 628.202 1288.06 628.161L1234.31 619.177C1231.89 618.772 1230.26 616.479 1230.66 614.055C1231.06 611.633 1233.35 609.997 1235.78 610.401L1289.53 619.385C1291.95 619.79 1293.59 622.083 1293.19 624.506C1292.83 626.681 1290.94 628.222 1288.8 628.222ZM1181.3 610.254C1181.06 610.254 1180.81 610.234 1180.56 610.193L1126.81 601.208C1124.39 600.803 1122.76 598.51 1123.16 596.086C1123.57 593.664 1125.84 592.025 1128.28 592.432L1182.03 601.417C1184.45 601.822 1186.09 604.115 1185.69 606.538C1185.33 608.713 1183.44 610.254 1181.3 610.254ZM1073.8 592.285C1073.56 592.285 1073.31 592.265 1073.06 592.224L1019.31 583.24C1016.89 582.835 1015.26 580.542 1015.66 578.119C1016.06 575.696 1018.34 574.06 1020.78 574.465L1074.53 583.449C1076.95 583.854 1078.59 586.147 1078.19 588.57C1077.83 590.744 1075.94 592.285 1073.8 592.285ZM966.304 574.316C966.061 574.316 965.815 574.296 965.565 574.254L911.814 565.27C909.392 564.865 907.756 562.572 908.16 560.149C908.564 557.724 910.86 556.091 913.282 556.495L967.033 565.479C969.455 565.884 971.091 568.177 970.687 570.6C970.325 572.775 968.439 574.316 966.304 574.316ZM858.804 556.347C858.561 556.347 858.315 556.327 858.065 556.285L804.314 547.301C801.892 546.896 800.256 544.603 800.66 542.18C801.064 539.757 803.338 538.12 805.782 538.526L859.533 547.51C861.955 547.915 863.591 550.208 863.187 552.631C862.825 554.806 860.939 556.347 858.804 556.347ZM751.304 538.378C751.061 538.378 750.815 538.358 750.565 538.317L696.814 529.333C694.392 528.928 692.756 526.635 693.16 524.212C693.564 521.789 695.836 520.151 698.282 520.558L752.033 529.542C754.455 529.947 756.091 532.24 755.687 534.663C755.324 536.837 753.439 538.378 751.304 538.378Z" fill="#BFC8D6"/>
<path d="M2331.3 829.532C2331.02 829.532 2330.73 829.505 2330.45 829.449C2328.04 828.981 2326.46 826.646 2326.93 824.234L2331.14 802.514L2309.32 798.866C2306.9 798.461 2305.26 796.168 2305.67 793.745C2306.07 791.322 2308.37 789.685 2310.79 790.09L2337.11 794.49C2338.3 794.688 2339.35 795.356 2340.03 796.341C2340.72 797.327 2340.98 798.547 2340.75 799.725L2335.66 825.928C2335.25 828.055 2333.39 829.531 2331.3 829.532Z" fill="#BFC8D6"/>
<path d="M2080.84 2120.23C2080.56 2120.23 2080.28 2120.2 2079.99 2120.15C2077.58 2119.68 2076 2117.34 2076.47 2114.93L2086.91 2061.15C2087.38 2058.74 2089.71 2057.17 2092.12 2057.63C2094.53 2058.1 2096.11 2060.44 2095.64 2062.85L2085.21 2116.63C2084.79 2118.75 2082.93 2120.23 2080.84 2120.23ZM2101.72 2012.67C2101.43 2012.67 2101.15 2012.64 2100.86 2012.59C2098.45 2012.12 2096.88 2009.79 2097.34 2007.38L2107.78 1953.6C2108.25 1951.18 2110.59 1949.61 2112.99 1950.08C2115.4 1950.54 2116.98 1952.88 2116.51 1955.29L2106.08 2009.07C2105.66 2011.2 2103.81 2012.67 2101.72 2012.67ZM2122.58 1905.11C2122.3 1905.11 2122.02 1905.09 2121.73 1905.03C2119.32 1904.56 2117.75 1902.23 2118.21 1899.82L2128.65 1846.04C2129.12 1843.62 2131.46 1842.05 2133.86 1842.52C2136.27 1842.98 2137.85 1845.32 2137.38 1847.73L2126.95 1901.51C2126.53 1903.64 2124.67 1905.11 2122.58 1905.11ZM2143.46 1797.56C2143.18 1797.56 2142.9 1797.53 2142.61 1797.47C2140.2 1797 2138.62 1794.67 2139.09 1792.26L2149.53 1738.48C2149.99 1736.07 2152.34 1734.5 2154.74 1734.96C2157.15 1735.43 2158.73 1737.76 2158.26 1740.17L2147.82 1793.95C2147.41 1796.08 2145.55 1797.56 2143.46 1797.56ZM2164.33 1690C2164.05 1690 2163.77 1689.97 2163.48 1689.91C2161.07 1689.45 2159.49 1687.11 2159.96 1684.7L2170.4 1630.92C2170.87 1628.51 2173.21 1626.94 2175.61 1627.4C2178.02 1627.87 2179.6 1630.2 2179.13 1632.62L2168.69 1686.4C2168.28 1688.52 2166.42 1690 2164.33 1690ZM2185.2 1582.44C2184.92 1582.44 2184.64 1582.41 2184.35 1582.36C2181.94 1581.89 2180.36 1579.55 2180.83 1577.14L2191.27 1523.36C2191.73 1520.95 2194.08 1519.38 2196.48 1519.84C2198.89 1520.31 2200.47 1522.65 2200 1525.06L2189.56 1578.84C2189.15 1580.96 2187.29 1582.44 2185.2 1582.44ZM2206.07 1474.88C2205.79 1474.88 2205.51 1474.85 2205.22 1474.8C2202.81 1474.33 2201.23 1471.99 2201.7 1469.58L2212.14 1415.8C2212.61 1413.39 2214.96 1411.82 2217.35 1412.28C2219.76 1412.75 2221.34 1415.09 2220.87 1417.5L2210.43 1471.28C2210.02 1473.4 2208.16 1474.88 2206.07 1474.88ZM2226.94 1367.32C2226.66 1367.32 2226.38 1367.3 2226.09 1367.24C2223.68 1366.77 2222.1 1364.44 2222.57 1362.03L2233.01 1308.25C2233.48 1305.83 2235.81 1304.26 2238.22 1304.73C2240.63 1305.19 2242.21 1307.53 2241.74 1309.94L2231.3 1363.72C2230.89 1365.85 2229.03 1367.32 2226.94 1367.32ZM2247.81 1259.76C2247.53 1259.76 2247.25 1259.74 2246.96 1259.68C2244.55 1259.21 2242.97 1256.88 2243.44 1254.47L2253.88 1200.69C2254.35 1198.28 2256.68 1196.7 2259.09 1197.17C2261.5 1197.64 2263.08 1199.97 2262.61 1202.38L2252.17 1256.16C2251.76 1258.29 2249.9 1259.76 2247.81 1259.76ZM2268.69 1152.21C2268.41 1152.21 2268.12 1152.18 2267.84 1152.12C2265.43 1151.66 2263.85 1149.32 2264.32 1146.91L2274.75 1093.13C2275.22 1090.72 2277.56 1089.15 2279.97 1089.61C2282.38 1090.08 2283.95 1092.41 2283.48 1094.82L2273.05 1148.6C2272.64 1150.73 2270.78 1152.21 2268.69 1152.21ZM2289.56 1044.65C2289.28 1044.65 2288.99 1044.62 2288.71 1044.56C2286.3 1044.1 2284.72 1041.76 2285.19 1039.35L2295.62 985.571C2296.09 983.158 2298.43 981.586 2300.83 982.051C2303.25 982.519 2304.82 984.854 2304.35 987.265L2293.92 1041.04C2293.51 1043.17 2291.65 1044.65 2289.56 1044.65ZM2310.43 937.089C2310.15 937.089 2309.86 937.062 2309.58 937.006C2307.17 936.538 2305.59 934.203 2306.06 931.792L2316.49 878.013C2316.96 875.6 2319.31 874.03 2321.71 874.493C2324.12 874.961 2325.69 877.296 2325.23 879.707L2314.79 933.486C2314.38 935.613 2312.52 937.089 2310.43 937.089Z" fill="#BFC8D6"/>
<path d="M2065.32 2200.21C2065.07 2200.21 2064.81 2200.19 2064.55 2200.14L2038.26 2195.54C2035.84 2195.12 2034.22 2192.81 2034.64 2190.39C2035.06 2187.97 2037.33 2186.34 2039.79 2186.77L2061.78 2190.62L2066.03 2168.71C2066.5 2166.3 2068.84 2164.72 2071.25 2165.19C2073.66 2165.66 2075.24 2167.99 2074.77 2170.4L2069.68 2196.61C2069.27 2198.73 2067.41 2200.21 2065.32 2200.21Z" fill="#BFC8D6"/>
<path d="M1987.26 2186.54C1987 2186.54 1986.74 2186.52 1986.48 2186.47L1934.71 2177.41C1932.29 2176.98 1930.68 2174.68 1931.1 2172.26C1931.52 2169.84 1933.79 2168.21 1936.25 2168.64L1988.02 2177.71C1990.44 2178.13 1992.06 2180.44 1991.64 2182.86C1991.26 2185.02 1989.38 2186.54 1987.26 2186.54ZM1883.71 2168.41C1883.46 2168.41 1883.19 2168.39 1882.93 2168.34L1831.16 2159.27C1828.74 2158.85 1827.13 2156.54 1827.55 2154.12C1827.97 2151.71 1830.24 2150.08 1832.7 2150.51L1884.47 2159.58C1886.89 2160 1888.51 2162.31 1888.09 2164.73C1887.71 2166.89 1885.83 2168.41 1883.71 2168.41ZM1780.16 2150.27C1779.91 2150.27 1779.65 2150.25 1779.39 2150.21L1727.61 2141.14C1725.19 2140.72 1723.58 2138.41 1724 2135.99C1724.42 2133.58 1726.69 2131.95 1729.15 2132.38L1780.93 2141.44C1783.35 2141.87 1784.96 2144.17 1784.54 2146.59C1784.16 2148.75 1782.28 2150.27 1780.16 2150.27ZM1676.61 2132.14C1676.36 2132.14 1676.1 2132.12 1675.84 2132.08L1624.07 2123.01C1621.65 2122.58 1620.03 2120.28 1620.45 2117.86C1620.88 2115.44 1623.14 2113.81 1625.61 2114.24L1677.38 2123.31C1679.8 2123.74 1681.41 2126.04 1680.99 2128.46C1680.62 2130.62 1678.73 2132.14 1676.61 2132.14ZM1573.07 2114.01C1572.82 2114.01 1572.56 2113.99 1572.3 2113.94L1520.52 2104.88C1518.1 2104.45 1516.48 2102.15 1516.9 2099.73C1517.33 2097.31 1519.61 2095.68 1522.06 2096.11L1573.83 2105.18C1576.25 2105.6 1577.87 2107.91 1577.45 2110.33C1577.07 2112.49 1575.19 2114.01 1573.07 2114.01ZM1469.52 2095.88C1469.27 2095.88 1469.01 2095.85 1468.75 2095.81L1416.98 2086.74C1414.56 2086.32 1412.94 2084.01 1413.36 2081.59C1413.78 2079.18 1416.05 2077.55 1418.51 2077.98L1470.29 2087.05C1472.71 2087.47 1474.32 2089.77 1473.9 2092.19C1473.52 2094.36 1471.64 2095.88 1469.52 2095.88ZM1365.97 2077.74C1365.72 2077.74 1365.46 2077.72 1365.2 2077.68L1313.43 2068.61C1311.01 2068.19 1309.39 2065.88 1309.81 2063.46C1310.23 2061.04 1312.5 2059.41 1314.96 2059.85L1366.74 2068.91C1369.16 2069.34 1370.77 2071.64 1370.35 2074.06C1369.97 2076.22 1368.09 2077.74 1365.97 2077.74ZM1262.42 2059.61C1262.17 2059.61 1261.91 2059.59 1261.65 2059.54L1209.88 2050.48C1207.46 2050.05 1205.84 2047.75 1206.27 2045.33C1206.69 2042.91 1209.01 2041.29 1211.41 2041.71L1263.19 2050.78C1265.61 2051.2 1267.23 2053.51 1266.8 2055.93C1266.42 2058.09 1264.55 2059.61 1262.42 2059.61ZM1158.88 2041.48C1158.62 2041.48 1158.36 2041.46 1158.11 2041.41L1106.34 2032.35C1103.92 2031.92 1102.3 2029.62 1102.72 2027.2C1103.15 2024.78 1105.45 2023.16 1107.87 2023.58L1159.64 2032.65C1162.06 2033.07 1163.68 2035.38 1163.26 2037.8C1162.88 2039.96 1161 2041.48 1158.88 2041.48ZM1055.33 2023.35C1055.08 2023.35 1054.82 2023.32 1054.56 2023.28L1002.79 2014.21C1000.37 2013.79 998.748 2011.48 999.171 2009.06C999.597 2006.64 1001.91 2005.02 1004.32 2005.45L1056.09 2014.51C1058.51 2014.94 1060.13 2017.24 1059.71 2019.66C1059.33 2021.82 1057.45 2023.35 1055.33 2023.35ZM951.785 2005.21C951.531 2005.21 951.272 2005.19 951.014 2005.15L899.239 1996.08C896.819 1995.66 895.201 1993.35 895.624 1990.93C896.05 1988.51 898.363 1986.89 900.772 1987.32L952.546 1996.38C954.966 1996.81 956.584 1999.11 956.161 2001.53C955.784 2003.69 953.905 2005.21 951.785 2005.21ZM848.236 1987.08C847.982 1987.08 847.723 1987.06 847.465 1987.01L795.693 1977.95C793.273 1977.52 791.655 1975.22 792.078 1972.8C792.504 1970.38 794.817 1968.76 797.226 1969.18L848.998 1978.25C851.418 1978.67 853.036 1980.98 852.613 1983.4C852.235 1985.56 850.356 1987.08 848.236 1987.08ZM744.689 1968.95C744.435 1968.95 744.176 1968.93 743.918 1968.88L692.146 1959.81C689.726 1959.39 688.108 1957.09 688.531 1954.67C688.955 1952.25 691.272 1950.62 693.679 1951.05L745.451 1960.12C747.871 1960.54 749.489 1962.85 749.066 1965.27C748.688 1967.43 746.811 1968.95 744.689 1968.95Z" fill="#BFC8D6"/>
<path d="M641.142 1950.82C640.888 1950.82 640.629 1950.79 640.371 1950.75L614.079 1946.14C612.634 1945.89 611.407 1944.94 610.799 1943.61C610.191 1942.28 610.278 1940.73 611.031 1939.47L624.77 1916.59C626.034 1914.48 628.762 1913.8 630.874 1915.06C632.981 1916.33 633.663 1919.06 632.399 1921.17L621.994 1938.5L641.904 1941.98C644.324 1942.41 645.942 1944.71 645.519 1947.13C645.141 1949.29 643.265 1950.82 641.142 1950.82Z" fill="#BFC8D6"/>
<path d="M656.753 1876.4C655.973 1876.4 655.185 1876.19 654.468 1875.76C652.361 1874.5 651.679 1871.77 652.943 1869.66L681.116 1822.73C682.376 1820.62 685.111 1819.94 687.22 1821.21C689.327 1822.47 690.009 1825.2 688.745 1827.31L660.573 1874.24C659.739 1875.63 658.265 1876.4 656.753 1876.4ZM713.102 1782.54C712.322 1782.54 711.534 1782.34 710.817 1781.91C708.71 1780.64 708.028 1777.91 709.292 1775.8L737.465 1728.87C738.727 1726.77 741.458 1726.08 743.569 1727.35C745.676 1728.61 746.358 1731.35 745.094 1733.45L716.922 1780.38C716.088 1781.77 714.614 1782.54 713.102 1782.54ZM769.451 1688.68C768.671 1688.68 767.883 1688.48 767.166 1688.05C765.059 1686.78 764.377 1684.05 765.641 1681.94L793.814 1635.02C795.076 1632.91 797.811 1632.23 799.918 1633.49C802.025 1634.76 802.707 1637.49 801.443 1639.59L773.271 1686.52C772.437 1687.91 770.963 1688.68 769.451 1688.68ZM825.798 1594.83C825.018 1594.83 824.23 1594.62 823.513 1594.19C821.406 1592.93 820.725 1590.19 821.989 1588.09L850.164 1541.16C851.428 1539.05 854.159 1538.37 856.268 1539.63C858.375 1540.9 859.057 1543.63 857.793 1545.74L829.617 1592.67C828.783 1594.06 827.31 1594.83 825.798 1594.83ZM882.147 1500.97C881.367 1500.97 880.579 1500.76 879.862 1500.33C877.755 1499.07 877.074 1496.34 878.338 1494.23L906.51 1447.3C907.77 1445.19 910.506 1444.51 912.615 1445.78C914.722 1447.04 915.404 1449.77 914.14 1451.88L885.966 1498.81C885.132 1500.2 883.659 1500.97 882.147 1500.97ZM938.496 1407.11C937.716 1407.11 936.928 1406.91 936.211 1406.48C934.104 1405.21 933.423 1402.48 934.687 1400.37L962.859 1353.44C964.121 1351.34 966.852 1350.65 968.964 1351.92C971.071 1353.18 971.753 1355.92 970.489 1358.02L942.315 1404.95C941.481 1406.34 940.008 1407.11 938.496 1407.11ZM994.846 1313.25C994.066 1313.25 993.279 1313.05 992.562 1312.62C990.455 1311.36 989.772 1308.62 991.036 1306.52L1019.21 1259.59C1020.47 1257.48 1023.21 1256.8 1025.31 1258.06C1027.42 1259.33 1028.1 1262.06 1026.84 1264.17L998.667 1311.1C997.831 1312.48 996.357 1313.25 994.846 1313.25ZM1051.19 1219.4C1050.41 1219.4 1049.63 1219.19 1048.91 1218.76C1046.8 1217.5 1046.12 1214.76 1047.38 1212.66L1075.56 1165.73C1076.83 1163.62 1079.56 1162.94 1081.66 1164.21C1083.77 1165.47 1084.45 1168.2 1083.19 1170.31L1055.01 1217.24C1054.18 1218.63 1052.7 1219.4 1051.19 1219.4ZM1107.54 1125.54C1106.76 1125.54 1105.97 1125.33 1105.26 1124.9C1103.15 1123.64 1102.47 1120.91 1103.73 1118.8L1131.91 1071.87C1133.17 1069.77 1135.9 1069.08 1138.01 1070.35C1140.12 1071.61 1140.8 1074.34 1139.53 1076.45L1111.36 1123.38C1110.53 1124.77 1109.05 1125.54 1107.54 1125.54ZM1163.89 1031.68C1163.11 1031.68 1162.32 1031.48 1161.61 1031.05C1159.5 1029.78 1158.82 1027.05 1160.08 1024.94L1188.25 978.015C1189.52 975.909 1192.25 975.225 1194.36 976.491C1196.47 977.755 1197.15 980.488 1195.88 982.595L1167.71 1029.52C1166.88 1030.91 1165.4 1031.68 1163.89 1031.68ZM1220.24 937.825C1219.46 937.825 1218.67 937.62 1217.96 937.19C1215.85 935.926 1215.17 933.193 1216.43 931.087L1244.6 884.158C1245.87 882.051 1248.6 881.369 1250.71 882.633C1252.82 883.898 1253.5 886.631 1252.23 888.737L1224.06 935.666C1223.23 937.055 1221.75 937.825 1220.24 937.825ZM1276.59 843.967C1275.81 843.967 1275.02 843.762 1274.3 843.332C1272.2 842.067 1271.51 839.335 1272.78 837.228L1300.95 790.3C1302.22 788.196 1304.95 787.509 1307.06 788.776C1309.16 790.041 1309.85 792.773 1308.58 794.88L1280.41 841.808C1279.57 843.197 1278.1 843.967 1276.59 843.967ZM1332.94 750.11C1332.16 750.11 1331.37 749.905 1330.65 749.475C1328.54 748.211 1327.86 745.478 1329.13 743.371L1357.3 696.443C1358.56 694.34 1361.29 693.651 1363.4 694.919C1365.51 696.183 1366.19 698.916 1364.93 701.023L1336.76 747.951C1335.92 749.34 1334.45 750.11 1332.94 750.11ZM1389.28 656.253C1388.51 656.253 1387.72 656.048 1387 655.618C1384.89 654.353 1384.21 651.621 1385.47 649.514L1413.65 602.585C1414.92 600.48 1417.64 599.793 1419.76 601.061C1421.86 602.326 1422.54 605.058 1421.28 607.165L1393.1 654.094C1392.27 655.483 1390.8 656.253 1389.28 656.253ZM1445.63 562.395C1444.86 562.395 1444.07 562.19 1443.35 561.76C1441.24 560.496 1440.56 557.763 1441.82 555.656L1470 508.727C1471.26 506.623 1473.99 505.936 1476.1 507.203C1478.21 508.467 1478.89 511.2 1477.63 513.307L1449.45 560.236C1448.62 561.625 1447.15 562.395 1445.63 562.395ZM1501.98 468.538C1501.2 468.538 1500.41 468.333 1499.7 467.903C1497.59 466.639 1496.91 463.905 1498.17 461.799L1526.34 414.871C1527.6 412.766 1530.34 412.079 1532.45 413.347C1534.56 414.611 1535.24 417.344 1533.97 419.451L1505.8 466.379C1504.97 467.768 1503.49 468.538 1501.98 468.538Z" fill="#BFC8D6"/>
<path d="M1558.33 374.682C1557.55 374.682 1556.76 374.477 1556.04 374.047C1553.94 372.782 1553.25 370.049 1554.52 367.943L1568.26 345.058C1569.52 342.954 1572.25 342.266 1574.36 343.534C1576.47 344.799 1577.15 347.532 1575.89 349.638L1562.15 372.523C1561.31 373.912 1559.84 374.682 1558.33 374.682Z" fill="#BFC8D6"/>
<path d="M140.791 1322.53C139.396 1322.53 138.024 1321.87 137.157 1320.65L121.73 1298.87C120.702 1297.42 120.637 1295.49 121.563 1293.98L135.465 1271.19C136.747 1269.09 139.484 1268.43 141.58 1269.71C143.676 1270.99 144.339 1273.73 143.059 1275.83L130.682 1296.11L144.417 1315.51C145.838 1317.51 145.364 1320.29 143.359 1321.71C142.576 1322.26 141.679 1322.53 140.791 1322.53Z" fill="#BFC8D6"/>
<path d="M166.724 1232.94C165.933 1232.94 165.134 1232.73 164.411 1232.29C162.315 1231.01 161.652 1228.27 162.932 1226.17L190.4 1181.16C191.682 1179.06 194.419 1178.4 196.515 1179.68C198.611 1180.96 199.274 1183.69 197.994 1185.79L170.527 1230.81C169.687 1232.18 168.223 1232.94 166.724 1232.94ZM221.659 1142.91C220.868 1142.91 220.069 1142.69 219.346 1142.25C217.25 1140.97 216.587 1138.23 217.867 1136.14L245.334 1091.12C246.616 1089.02 249.353 1088.36 251.449 1089.64C253.545 1090.92 254.208 1093.66 252.928 1095.76L225.46 1140.77C224.622 1142.15 223.158 1142.91 221.659 1142.91ZM276.595 1052.87C275.804 1052.87 275.005 1052.66 274.282 1052.22C272.186 1050.94 271.523 1048.2 272.803 1046.1L300.27 1001.08C301.549 998.985 304.291 998.325 306.385 999.604C308.481 1000.88 309.144 1003.62 307.864 1005.72L280.396 1050.74C279.557 1052.11 278.093 1052.87 276.595 1052.87ZM331.53 962.833C330.739 962.833 329.94 962.623 329.217 962.181C327.121 960.902 326.458 958.164 327.738 956.066L355.205 911.048C356.485 908.95 359.226 908.289 361.32 909.568C363.416 910.847 364.079 913.585 362.799 915.683L335.332 960.701C334.492 962.075 333.028 962.833 331.53 962.833ZM386.465 872.797C385.674 872.797 384.875 872.587 384.152 872.145C382.056 870.866 381.393 868.128 382.673 866.03L410.14 821.012C411.419 818.913 414.161 818.253 416.255 819.532C418.351 820.811 419.014 823.55 417.734 825.647L390.267 870.665C389.427 872.039 387.963 872.797 386.465 872.797ZM441.4 782.761C440.609 782.761 439.81 782.551 439.087 782.109C436.991 780.829 436.328 778.091 437.608 775.994L465.075 730.976C466.354 728.878 469.096 728.217 471.19 729.496C473.286 730.775 473.949 733.513 472.669 735.611L445.202 780.629C444.362 782.003 442.898 782.761 441.4 782.761ZM496.335 692.725C495.544 692.725 494.745 692.515 494.022 692.073C491.926 690.794 491.263 688.056 492.543 685.958L520.01 640.94C521.29 638.842 524.031 638.181 526.125 639.46C528.221 640.739 528.884 643.477 527.604 645.575L500.136 690.593C499.297 691.967 497.833 692.725 496.335 692.725ZM551.27 602.689C550.479 602.689 549.68 602.479 548.957 602.037C546.861 600.758 546.198 598.02 547.478 595.922L574.946 550.904C576.225 548.805 578.969 548.146 581.061 549.424C583.157 550.704 583.82 553.441 582.54 555.539L555.073 600.557C554.233 601.931 552.768 602.689 551.27 602.689Z" fill="#BFC8D6"/>
<path d="M606.207 512.654C605.416 512.654 604.617 512.444 603.894 512.002C601.798 510.722 601.135 507.985 602.415 505.887L616.317 483.102C616.986 482.003 618.1 481.249 619.369 481.033L645.683 476.558C648.109 476.145 650.401 477.776 650.814 480.198C651.227 482.62 649.595 484.918 647.173 485.33L622.857 489.466L610.008 510.523C609.17 511.895 607.706 512.654 606.207 512.654Z" fill="#BFC8D6"/>
<path d="M2513.7 1342.99C2511.82 1342.99 2510.08 1341.8 2509.46 1339.92L2493.24 1290.13C2492.48 1287.79 2493.76 1285.28 2496.09 1284.52C2498.43 1283.76 2500.94 1285.04 2501.7 1287.37L2517.93 1337.16C2518.69 1339.5 2517.41 1342.01 2515.07 1342.77C2514.62 1342.92 2514.15 1342.99 2513.7 1342.99ZM2481.24 1243.41C2479.36 1243.41 2477.62 1242.21 2477.01 1240.34L2460.78 1190.54C2460.02 1188.21 2461.3 1185.7 2463.64 1184.94C2465.97 1184.17 2468.48 1185.45 2469.24 1187.79L2485.47 1237.58C2486.23 1239.92 2484.95 1242.43 2482.62 1243.19C2482.16 1243.34 2481.69 1243.41 2481.24 1243.41ZM2448.78 1143.82C2446.91 1143.82 2445.16 1142.63 2444.55 1140.75L2428.32 1090.96C2427.56 1088.62 2428.84 1086.11 2431.18 1085.35C2433.51 1084.59 2436.02 1085.87 2436.79 1088.2L2453.01 1138C2453.77 1140.33 2452.5 1142.84 2450.16 1143.6C2449.7 1143.75 2449.24 1143.82 2448.78 1143.82ZM2416.32 1044.24C2414.45 1044.24 2412.71 1043.05 2412.09 1041.17L2395.87 991.378C2395.11 989.042 2396.38 986.531 2398.72 985.77C2401.05 985.006 2403.56 986.286 2404.33 988.621L2420.56 1038.41C2421.32 1040.75 2420.04 1043.26 2417.7 1044.02C2417.25 1044.17 2416.78 1044.24 2416.32 1044.24ZM2383.87 944.657C2381.99 944.657 2380.25 943.464 2379.64 941.585L2363.41 891.793C2362.65 889.457 2363.93 886.946 2366.26 886.185C2368.59 885.421 2371.11 886.701 2371.87 889.036L2388.1 938.828C2388.86 941.164 2387.58 943.675 2385.25 944.436C2384.79 944.586 2384.32 944.657 2383.87 944.657ZM2351.41 845.073C2349.53 845.073 2347.79 843.88 2347.18 842.001L2332.66 797.443L2330.75 796.267C2328.66 794.978 2328.01 792.238 2329.3 790.146C2330.58 788.056 2333.32 787.401 2335.42 788.693L2338.72 790.725C2339.61 791.278 2340.28 792.131 2340.61 793.134L2355.64 839.244C2356.4 841.58 2355.12 844.091 2352.79 844.852C2352.33 845.002 2351.87 845.073 2351.41 845.073ZM2288.51 769.441C2287.71 769.441 2286.9 769.227 2286.18 768.779L2241.6 741.291C2239.51 740.001 2238.86 737.261 2240.14 735.169C2241.43 733.079 2244.18 732.428 2246.27 733.717L2290.84 761.205C2292.94 762.495 2293.58 765.235 2292.3 767.327C2291.46 768.69 2290 769.441 2288.51 769.441ZM2199.36 714.464C2198.56 714.464 2197.75 714.25 2197.03 713.802L2152.45 686.313C2150.35 685.023 2149.71 682.282 2150.99 680.191C2152.28 678.103 2155.02 677.447 2157.11 678.739L2201.69 706.228C2203.79 707.518 2204.43 710.259 2203.15 712.35C2202.31 713.713 2200.85 714.464 2199.36 714.464ZM2110.2 659.488C2109.41 659.488 2108.6 659.274 2107.88 658.825L2063.3 631.337C2061.2 630.047 2060.56 627.306 2061.84 625.215C2063.13 623.124 2065.87 622.474 2067.96 623.763L2112.54 651.251C2114.63 652.541 2115.28 655.282 2114 657.373C2113.15 658.736 2111.69 659.488 2110.2 659.488ZM2021.05 604.511C2020.26 604.511 2019.45 604.297 2018.72 603.849L1974.15 576.361C1972.05 575.071 1971.4 572.331 1972.69 570.239C1973.98 568.15 1976.72 567.494 1978.81 568.787L2023.39 596.275C2025.48 597.565 2026.13 600.306 2024.84 602.397C2024 603.76 2022.55 604.511 2021.05 604.511ZM1931.9 549.534C1931.11 549.534 1930.3 549.32 1929.57 548.872L1884.99 521.384C1882.9 520.095 1882.25 517.353 1883.54 515.262C1884.83 513.173 1887.57 512.517 1889.66 513.81L1934.24 541.299C1936.33 542.588 1936.98 545.329 1935.69 547.421C1934.85 548.784 1933.39 549.534 1931.9 549.534ZM1842.75 494.558C1841.95 494.558 1841.15 494.344 1840.42 493.895L1795.84 466.407C1793.75 465.117 1793.1 462.377 1794.39 460.285C1795.68 458.196 1798.42 457.54 1800.51 458.833L1845.09 486.321C1847.18 487.611 1847.83 490.351 1846.54 492.443C1845.7 493.807 1844.24 494.558 1842.75 494.558ZM698.052 476.612C695.921 476.612 694.04 475.079 693.671 472.909C693.258 470.487 694.89 468.189 697.312 467.777L748.941 458.996C751.346 458.589 753.659 460.212 754.072 462.636C754.485 465.058 752.853 467.356 750.431 467.767L698.802 476.548C698.549 476.592 698.3 476.612 698.052 476.612ZM801.31 459.052C799.179 459.052 797.298 457.518 796.929 455.348C796.516 452.926 798.148 450.628 800.57 450.216L852.199 441.435C854.628 441.021 856.919 442.653 857.33 445.075C857.743 447.497 856.111 449.795 853.689 450.207L802.06 458.988C801.807 459.031 801.558 459.052 801.31 459.052ZM904.565 441.491C902.434 441.491 900.553 439.957 900.184 437.788C899.771 435.366 901.403 433.068 903.825 432.656L955.454 423.875C957.878 423.463 960.172 425.093 960.585 427.515C960.998 429.937 959.366 432.235 956.944 432.647L905.315 441.428C905.063 441.47 904.813 441.491 904.565 441.491ZM1753.6 439.581C1752.8 439.581 1751.99 439.367 1751.27 438.918L1706.69 411.43C1704.6 410.141 1703.95 407.4 1705.24 405.308C1706.53 403.219 1709.26 402.564 1711.36 403.856L1755.93 431.344C1758.03 432.633 1758.68 435.374 1757.39 437.466C1756.55 438.83 1755.09 439.581 1753.6 439.581ZM1007.82 423.93C1005.69 423.93 1003.81 422.396 1003.44 420.226C1003.03 417.804 1004.66 415.506 1007.08 415.094L1058.71 406.313C1061.12 405.901 1063.43 407.531 1063.84 409.953C1064.26 412.375 1062.62 414.673 1060.2 415.085L1008.57 423.866C1008.32 423.909 1008.07 423.93 1007.82 423.93ZM1111.08 406.369C1108.95 406.369 1107.07 404.835 1106.7 402.665C1106.29 400.243 1107.92 397.945 1110.34 397.533L1161.97 388.752C1164.37 388.343 1166.69 389.968 1167.1 392.392C1167.51 394.814 1165.88 397.112 1163.46 397.524L1111.83 406.305C1111.58 406.348 1111.33 406.369 1111.08 406.369ZM1214.34 388.808C1212.21 388.808 1210.33 387.274 1209.96 385.105C1209.54 382.683 1211.18 380.385 1213.6 379.973L1265.23 371.192C1267.64 370.779 1269.94 372.41 1270.36 374.832C1270.77 377.254 1269.14 379.552 1266.72 379.964L1215.09 388.745C1214.83 388.787 1214.58 388.808 1214.34 388.808ZM1664.45 384.604C1663.65 384.604 1662.84 384.39 1662.12 383.942L1617.54 356.454C1615.45 355.164 1614.8 352.424 1616.08 350.332C1617.37 348.243 1620.11 347.587 1622.21 348.88L1666.78 376.368C1668.88 377.658 1669.52 380.398 1668.24 382.49C1667.4 383.854 1665.94 384.604 1664.45 384.604ZM1317.6 371.247C1315.47 371.247 1313.58 369.713 1313.22 367.543C1312.81 365.121 1314.43 362.823 1316.85 362.411L1368.48 353.63C1370.91 353.22 1373.21 354.848 1373.61 357.27C1374.02 359.692 1372.39 361.99 1369.97 362.402L1318.35 371.182C1318.1 371.226 1317.85 371.247 1317.6 371.247ZM1420.85 353.686C1418.72 353.686 1416.84 352.152 1416.47 349.983C1416.06 347.561 1417.69 345.263 1420.11 344.852L1471.74 336.071C1474.16 335.66 1476.46 337.289 1476.87 339.711C1477.28 342.133 1475.65 344.431 1473.23 344.842L1421.6 353.623C1421.35 353.665 1421.1 353.686 1420.85 353.686ZM1524.11 336.125C1521.98 336.125 1520.09 334.591 1519.73 332.421C1519.32 329.999 1520.95 327.701 1523.37 327.29L1571.74 319.062C1572.82 318.881 1573.91 319.095 1574.82 319.661L1577.63 321.391C1579.73 322.68 1580.37 325.421 1579.09 327.513C1577.79 329.602 1575.05 330.257 1572.97 328.965L1571.58 328.115L1524.86 336.061C1524.61 336.105 1524.36 336.125 1524.11 336.125Z" fill="#BFC8D6"/>
<path d="M2524.37 1441C2523.58 1441 2522.79 1440.79 2522.07 1440.35C2519.97 1439.08 2519.29 1436.34 2520.57 1434.24L2533.34 1413.15L2525.69 1389.71C2524.93 1387.38 2526.21 1384.87 2528.55 1384.1C2530.88 1383.34 2533.4 1384.62 2534.16 1386.96L2542.43 1412.33C2542.83 1413.56 2542.67 1414.91 2542 1416.02L2528.18 1438.85C2527.34 1440.23 2525.87 1441 2524.37 1441Z" fill="#BFC8D6"/>
<path d="M1221.03 2465.5C1219.14 2465.5 1217.39 2464.29 1216.79 2462.39C1216.05 2460.04 1217.36 2457.54 1219.7 2456.81L1269.44 2441.2C1271.79 2440.47 1274.28 2441.77 1275.01 2444.11C1275.75 2446.46 1274.44 2448.96 1272.1 2449.69L1222.37 2465.3C1221.92 2465.44 1221.48 2465.5 1221.03 2465.5ZM1320.5 2434.29C1318.6 2434.29 1316.85 2433.07 1316.25 2431.17C1315.52 2428.83 1316.82 2426.33 1319.16 2425.6L1368.9 2409.99C1371.26 2409.25 1373.74 2410.56 1374.47 2412.9C1375.21 2415.25 1373.91 2417.74 1371.56 2418.48L1321.83 2434.08C1321.39 2434.22 1320.93 2434.29 1320.5 2434.29ZM1419.96 2403.08C1418.07 2403.08 1416.31 2401.86 1415.72 2399.96C1414.98 2397.62 1416.28 2395.12 1418.63 2394.38L1468.36 2378.78C1470.7 2378.04 1473.2 2379.35 1473.94 2381.69C1474.67 2384.03 1473.37 2386.53 1471.02 2387.27L1421.29 2402.87C1420.85 2403.01 1420.4 2403.08 1419.96 2403.08ZM1519.42 2371.87C1517.53 2371.87 1515.77 2370.65 1515.18 2368.75C1514.44 2366.4 1515.75 2363.91 1518.09 2363.17L1567.82 2347.56C1570.17 2346.83 1572.66 2348.14 1573.4 2350.48C1574.13 2352.82 1572.83 2355.32 1570.49 2356.05L1520.76 2371.66C1520.31 2371.8 1519.86 2371.87 1519.42 2371.87ZM1618.88 2340.65C1616.99 2340.65 1615.23 2339.44 1614.64 2337.54C1613.9 2335.19 1615.21 2332.69 1617.55 2331.96L1667.28 2316.35C1669.63 2315.61 1672.12 2316.92 1672.86 2319.26C1673.59 2321.61 1672.29 2324.11 1669.95 2324.84L1620.21 2340.45C1619.77 2340.59 1619.32 2340.65 1618.88 2340.65ZM1718.34 2309.44C1716.45 2309.44 1714.69 2308.22 1714.1 2306.32C1713.36 2303.98 1714.67 2301.48 1717.01 2300.75L1766.74 2285.14C1769.1 2284.4 1771.59 2285.71 1772.32 2288.05C1773.06 2290.4 1771.75 2292.89 1769.41 2293.63L1719.68 2309.23C1719.23 2309.37 1718.78 2309.44 1718.34 2309.44ZM1817.81 2278.23C1815.91 2278.23 1814.16 2277.01 1813.56 2275.11C1812.83 2272.77 1814.13 2270.27 1816.48 2269.53L1866.21 2253.93C1868.55 2253.19 1871.05 2254.5 1871.78 2256.84C1872.52 2259.19 1871.21 2261.68 1868.87 2262.42L1819.14 2278.02C1818.7 2278.16 1818.25 2278.23 1817.81 2278.23ZM1917.27 2247.02C1915.38 2247.02 1913.62 2245.8 1913.02 2243.9C1912.29 2241.55 1913.59 2239.06 1915.94 2238.32L1965.67 2222.72C1968.02 2221.98 1970.51 2223.29 1971.24 2225.63C1971.98 2227.97 1970.67 2230.47 1968.33 2231.2L1918.6 2246.81C1918.16 2246.95 1917.71 2247.02 1917.27 2247.02ZM2016.73 2215.8C2014.84 2215.8 2013.08 2214.59 2012.49 2212.69C2011.75 2210.34 2013.05 2207.85 2015.4 2207.11L2061.51 2192.64L2061.73 2192.26C2063.01 2190.16 2065.75 2189.49 2067.85 2190.77C2069.95 2192.04 2070.62 2194.78 2069.35 2196.88L2068.25 2198.69C2067.69 2199.61 2066.8 2200.3 2065.77 2200.63L2018.06 2215.6C2017.62 2215.74 2017.17 2215.8 2016.73 2215.8ZM2092.52 2154.43C2091.74 2154.43 2090.95 2154.22 2090.22 2153.79C2088.12 2152.51 2087.45 2149.78 2088.72 2147.68L2115.71 2103.09C2116.99 2100.98 2119.72 2100.31 2121.82 2101.58C2123.92 2102.86 2124.6 2105.59 2123.32 2107.69L2096.33 2152.28C2095.49 2153.67 2094.03 2154.43 2092.52 2154.43ZM2146.51 2065.25C2145.72 2065.25 2144.93 2065.04 2144.21 2064.61C2142.11 2063.33 2141.43 2060.6 2142.71 2058.5L2169.69 2013.91C2170.97 2011.8 2173.7 2011.14 2175.8 2012.41C2177.9 2013.68 2178.58 2016.41 2177.3 2018.52L2150.32 2063.11C2149.48 2064.49 2148.01 2065.25 2146.51 2065.25ZM2200.49 1976.07C2199.7 1976.07 2198.91 1975.86 2198.19 1975.43C2196.08 1974.16 2195.41 1971.42 2196.68 1969.32L2223.68 1924.73C2224.95 1922.63 2227.68 1921.96 2229.78 1923.23C2231.89 1924.5 2232.56 1927.24 2231.29 1929.34L2204.3 1973.93C2203.46 1975.31 2201.99 1976.07 2200.49 1976.07ZM2254.47 1886.89C2253.68 1886.89 2252.89 1886.69 2252.17 1886.25C2250.07 1884.98 2249.39 1882.24 2250.67 1880.14L2277.66 1835.55C2278.92 1833.45 2281.66 1832.78 2283.76 1834.05C2285.87 1835.32 2286.54 1838.05 2285.27 1840.16L2258.28 1884.75C2257.45 1886.13 2255.97 1886.89 2254.47 1886.89ZM2308.45 1797.71C2307.66 1797.71 2306.87 1797.51 2306.15 1797.07C2304.05 1795.8 2303.37 1793.06 2304.65 1790.96L2331.64 1746.37C2332.92 1744.27 2335.65 1743.6 2337.75 1744.87C2339.85 1746.14 2340.52 1748.88 2339.25 1750.98L2312.26 1795.57C2311.42 1796.95 2309.95 1797.71 2308.45 1797.71ZM2362.43 1708.53C2361.64 1708.53 2360.85 1708.33 2360.13 1707.89C2358.03 1706.62 2357.35 1703.88 2358.63 1701.78L2385.62 1657.19C2386.9 1655.09 2389.63 1654.42 2391.73 1655.69C2393.83 1656.96 2394.5 1659.7 2393.23 1661.8L2366.24 1706.39C2365.4 1707.77 2363.93 1708.53 2362.43 1708.53ZM2416.41 1619.35C2415.62 1619.35 2414.83 1619.15 2414.11 1618.71C2412.01 1617.44 2411.34 1614.7 2412.61 1612.6L2439.6 1568.01C2440.87 1565.91 2443.61 1565.24 2445.71 1566.51C2447.81 1567.78 2448.49 1570.52 2447.21 1572.62L2420.22 1617.21C2419.39 1618.59 2417.91 1619.35 2416.41 1619.35ZM2470.39 1530.18C2469.6 1530.18 2468.81 1529.97 2468.09 1529.53C2465.99 1528.26 2465.32 1525.52 2466.59 1523.42L2493.58 1478.83C2494.85 1476.73 2497.59 1476.06 2499.69 1477.33C2501.79 1478.6 2502.47 1481.34 2501.19 1483.44L2474.2 1528.03C2473.37 1529.41 2471.89 1530.18 2470.39 1530.18Z" fill="#BFC8D6"/>
<path d="M1145.83 2489.1C1144.72 2489.1 1143.62 2488.68 1142.78 2487.89L1123.35 2469.59C1121.56 2467.91 1121.48 2465.09 1123.16 2463.3C1124.85 2461.51 1127.66 2461.43 1129.45 2463.11L1146.99 2479.63L1169.97 2472.42C1172.3 2471.68 1174.81 2472.98 1175.55 2475.33C1176.28 2477.67 1174.98 2480.17 1172.63 2480.9L1147.17 2488.9C1146.73 2489.03 1146.28 2489.1 1145.83 2489.1Z" fill="#BFC8D6"/>
<path d="M1088.22 2434.85C1087.13 2434.85 1086.03 2434.45 1085.17 2433.64L1047 2397.69C1045.21 2396 1045.13 2393.19 1046.81 2391.4C1048.49 2389.61 1051.31 2389.53 1053.1 2391.21L1091.27 2427.16C1093.06 2428.85 1093.15 2431.66 1091.46 2433.45C1090.59 2434.38 1089.41 2434.85 1088.22 2434.85ZM1011.87 2362.95C1010.77 2362.95 1009.68 2362.55 1008.82 2361.74L970.643 2325.79C968.855 2324.1 968.771 2321.29 970.454 2319.5C972.142 2317.71 974.957 2317.63 976.742 2319.31L1014.92 2355.26C1016.71 2356.95 1016.79 2359.76 1015.11 2361.55C1014.23 2362.48 1013.05 2362.95 1011.87 2362.95ZM935.517 2291.05C934.422 2291.05 933.327 2290.64 932.467 2289.84L894.288 2253.88C892.5 2252.2 892.416 2249.38 894.099 2247.6C895.782 2245.8 898.6 2245.72 900.387 2247.41L938.566 2283.36C940.354 2285.04 940.439 2287.86 938.755 2289.65C937.881 2290.58 936.699 2291.05 935.517 2291.05ZM859.162 2219.14C858.067 2219.14 856.972 2218.74 856.112 2217.93L817.936 2181.98C816.148 2180.3 816.063 2177.48 817.747 2175.69C819.435 2173.9 822.25 2173.82 824.036 2175.5L862.213 2211.45C864.001 2213.14 864.085 2215.95 862.402 2217.74C861.526 2218.67 860.344 2219.14 859.162 2219.14ZM782.807 2147.24C781.712 2147.24 780.615 2146.84 779.757 2146.03L741.58 2110.08C739.792 2108.39 739.708 2105.58 741.391 2103.79C743.074 2102 745.896 2101.92 747.68 2103.6L785.857 2139.55C787.645 2141.24 787.729 2144.05 786.046 2145.84C785.17 2146.77 783.989 2147.24 782.807 2147.24ZM706.454 2075.34C705.359 2075.34 704.262 2074.94 703.404 2074.13L665.227 2038.18C663.439 2036.49 663.354 2033.68 665.038 2031.89C666.722 2030.1 669.539 2030.02 671.327 2031.7L709.504 2067.65C711.292 2069.34 711.376 2072.15 709.693 2073.94C708.817 2074.87 707.636 2075.34 706.454 2075.34ZM630.099 2003.43C629.004 2003.43 627.907 2003.03 627.049 2002.22L605.835 1982.25C605.62 1982.04 605.424 1981.82 605.255 1981.58L591.787 1962.57C590.366 1960.56 590.84 1957.79 592.845 1956.36C594.852 1954.94 597.626 1955.42 599.047 1957.42L612.258 1976.08L633.148 1995.75C634.938 1997.43 635.02 2000.25 633.337 2002.04C632.462 2002.97 631.281 2003.43 630.099 2003.43ZM565.113 1921.65C563.718 1921.65 562.346 1920.99 561.479 1919.77L531.17 1876.98C529.749 1874.97 530.223 1872.19 532.228 1870.77C534.24 1869.35 537.009 1869.83 538.43 1871.83L568.739 1914.63C570.16 1916.63 569.686 1919.41 567.681 1920.83C566.899 1921.38 566.002 1921.65 565.113 1921.65ZM504.496 1836.06C503.101 1836.06 501.729 1835.41 500.862 1834.18L470.553 1791.39C469.132 1789.38 469.606 1786.61 471.611 1785.19C473.62 1783.76 476.394 1784.24 477.813 1786.24L508.122 1829.04C509.543 1831.04 509.069 1833.82 507.064 1835.24C506.281 1835.79 505.384 1836.06 504.496 1836.06ZM443.878 1750.47C442.483 1750.47 441.111 1749.82 440.244 1748.59L409.935 1705.8C408.514 1703.79 408.988 1701.02 410.993 1699.6C413.002 1698.18 415.776 1698.65 417.195 1700.66L447.504 1743.45C448.925 1745.46 448.451 1748.23 446.446 1749.65C445.664 1750.2 444.767 1750.47 443.878 1750.47ZM383.26 1664.88C381.866 1664.88 380.493 1664.23 379.626 1663L349.317 1620.21C347.896 1618.2 348.37 1615.43 350.375 1614.01C352.382 1612.59 355.16 1613.06 356.577 1615.07L386.886 1657.86C388.307 1659.87 387.833 1662.64 385.828 1664.06C385.046 1664.62 384.149 1664.88 383.26 1664.88ZM322.643 1579.29C321.249 1579.29 319.876 1578.64 319.009 1577.41L288.7 1534.62C287.279 1532.62 287.753 1529.84 289.758 1528.42C291.77 1527 294.539 1527.47 295.96 1529.48L326.269 1572.27C327.69 1574.28 327.216 1577.05 325.211 1578.47C324.429 1579.03 323.531 1579.29 322.643 1579.29ZM262.025 1493.7C260.63 1493.7 259.258 1493.05 258.391 1491.83L228.082 1449.03C226.661 1447.03 227.135 1444.25 229.14 1442.83C231.149 1441.41 233.923 1441.88 235.342 1443.89L265.651 1486.68C267.072 1488.69 266.598 1491.46 264.593 1492.88C263.811 1493.44 262.914 1493.7 262.025 1493.7ZM201.408 1408.12C200.013 1408.12 198.641 1407.46 197.774 1406.24L167.465 1363.44C166.044 1361.44 166.518 1358.66 168.523 1357.24C170.53 1355.82 173.304 1356.3 174.725 1358.3L205.034 1401.09C206.455 1403.1 205.981 1405.88 203.976 1407.3C203.194 1407.85 202.296 1408.12 201.408 1408.12Z" fill="#BFC8D6"/>
<path d="M1579.08 377.552C1577.13 377.552 1575.33 376.25 1574.79 374.271L1567.78 348.516C1567.14 346.145 1568.54 343.7 1570.91 343.055C1573.28 342.41 1575.72 343.808 1576.37 346.179L1583.38 371.934C1584.03 374.305 1582.63 376.75 1580.26 377.395C1579.86 377.502 1579.47 377.552 1579.08 377.552Z" fill="#BFC8D6"/>
<path d="M2048.64 2102.38C2046.68 2102.38 2044.89 2101.08 2044.35 2099.1L2030.54 2048.37C2029.89 2046 2031.29 2043.55 2033.66 2042.91C2036.03 2042.26 2038.48 2043.66 2039.12 2046.03L2052.93 2096.76C2053.58 2099.13 2052.18 2101.58 2049.81 2102.22C2049.42 2102.33 2049.02 2102.38 2048.64 2102.38ZM2021.01 2000.92C2019.06 2000.92 2017.26 1999.62 2016.73 1997.64L2002.91 1946.91C2002.27 1944.54 2003.67 1942.09 2006.04 1941.45C2008.4 1940.8 2010.85 1942.2 2011.5 1944.57L2025.31 1995.3C2025.96 1997.67 2024.56 2000.12 2022.19 2000.76C2021.8 2000.87 2021.4 2000.92 2021.01 2000.92ZM1993.39 1899.46C1991.44 1899.46 1989.64 1898.16 1989.1 1896.18L1975.29 1845.45C1974.65 1843.08 1976.04 1840.63 1978.42 1839.99C1980.79 1839.34 1983.23 1840.74 1983.88 1843.11L1997.69 1893.84C1998.34 1896.21 1996.94 1898.66 1994.56 1899.3C1994.17 1899.41 1993.78 1899.46 1993.39 1899.46ZM1965.77 1798C1963.82 1798 1962.02 1796.7 1961.48 1794.72L1947.68 1743.99C1947.03 1741.62 1948.43 1739.17 1950.8 1738.53C1953.16 1737.89 1955.62 1739.28 1956.26 1741.65L1970.07 1792.38C1970.71 1794.75 1969.32 1797.2 1966.94 1797.84C1966.55 1797.95 1966.16 1798 1965.77 1798ZM1938.15 1696.54C1936.2 1696.54 1934.4 1695.24 1933.86 1693.26L1920.05 1642.53C1919.41 1640.16 1920.81 1637.71 1923.18 1637.07C1925.55 1636.42 1927.99 1637.82 1928.64 1640.19L1942.45 1690.92C1943.1 1693.29 1941.7 1695.74 1939.33 1696.38C1938.93 1696.49 1938.54 1696.54 1938.15 1696.54ZM1910.53 1595.08C1908.58 1595.08 1906.78 1593.78 1906.24 1591.8L1892.43 1541.07C1891.78 1538.7 1893.18 1536.25 1895.56 1535.61C1897.92 1534.96 1900.37 1536.36 1901.02 1538.73L1914.83 1589.46C1915.47 1591.83 1914.08 1594.28 1911.7 1594.92C1911.31 1595.03 1910.92 1595.08 1910.53 1595.08ZM1882.91 1493.62C1880.95 1493.62 1879.16 1492.32 1878.62 1490.34L1864.81 1439.61C1864.16 1437.24 1865.56 1434.79 1867.93 1434.15C1870.3 1433.5 1872.75 1434.9 1873.4 1437.27L1887.21 1488C1887.85 1490.37 1886.45 1492.82 1884.08 1493.46C1883.69 1493.57 1883.3 1493.62 1882.91 1493.62ZM1855.29 1392.16C1853.33 1392.16 1851.54 1390.86 1851 1388.88L1837.19 1338.15C1836.55 1335.78 1837.94 1333.33 1840.32 1332.68C1842.68 1332.04 1845.13 1333.44 1845.78 1335.81L1859.58 1386.54C1860.23 1388.91 1858.83 1391.35 1856.46 1392C1856.07 1392.11 1855.67 1392.16 1855.29 1392.16ZM1827.67 1290.7C1825.72 1290.7 1823.92 1289.39 1823.38 1287.42L1809.57 1236.69C1808.92 1234.32 1810.32 1231.87 1812.7 1231.22C1815.06 1230.58 1817.51 1231.98 1818.16 1234.35L1831.97 1285.08C1832.61 1287.45 1831.22 1289.89 1828.84 1290.54C1828.45 1290.65 1828.06 1290.7 1827.67 1290.7ZM1800.05 1189.24C1798.09 1189.24 1796.3 1187.93 1795.76 1185.95L1781.95 1135.22C1781.3 1132.85 1782.7 1130.41 1785.07 1129.76C1787.45 1129.12 1789.89 1130.52 1790.53 1132.89L1804.35 1183.62C1804.99 1185.99 1803.59 1188.43 1801.22 1189.08C1800.83 1189.18 1800.43 1189.24 1800.05 1189.24ZM1772.43 1087.78C1770.47 1087.78 1768.68 1086.47 1768.14 1084.49L1754.33 1033.76C1753.68 1031.39 1755.08 1028.95 1757.45 1028.3C1759.82 1027.66 1762.27 1029.06 1762.91 1031.43L1776.72 1082.16C1777.37 1084.53 1775.97 1086.97 1773.6 1087.62C1773.21 1087.72 1772.81 1087.78 1772.43 1087.78ZM1744.81 986.316C1742.85 986.316 1741.06 985.014 1740.52 983.035L1726.71 932.305C1726.06 929.934 1727.46 927.489 1729.83 926.844C1732.21 926.2 1734.65 927.597 1735.3 929.968L1749.11 980.698C1749.75 983.068 1748.35 985.514 1745.98 986.159C1745.59 986.265 1745.2 986.316 1744.81 986.316ZM1717.19 884.855C1715.23 884.855 1713.44 883.553 1712.9 881.574L1699.09 830.844C1698.44 828.473 1699.84 826.028 1702.21 825.382C1704.58 824.737 1707.03 826.135 1707.67 828.506L1721.48 879.236C1722.13 881.606 1720.73 884.052 1718.36 884.697C1717.97 884.804 1717.57 884.855 1717.19 884.855ZM1689.57 783.394C1687.61 783.394 1685.82 782.092 1685.28 780.113L1671.47 729.383C1670.82 727.012 1672.22 724.567 1674.59 723.922C1676.95 723.277 1679.41 724.675 1680.05 727.046L1693.86 777.776C1694.51 780.146 1693.11 782.592 1690.74 783.237C1690.35 783.343 1689.95 783.394 1689.57 783.394ZM1661.94 681.934C1659.99 681.934 1658.2 680.632 1657.66 678.653L1643.85 627.923C1643.2 625.553 1644.6 623.107 1646.97 622.462C1649.34 621.818 1651.78 623.215 1652.43 625.586L1666.24 676.316C1666.89 678.687 1665.49 681.132 1663.12 681.777C1662.73 681.883 1662.33 681.934 1661.94 681.934ZM1634.33 580.473C1632.37 580.473 1630.58 579.171 1630.04 577.192L1616.23 526.462C1615.58 524.092 1616.98 521.647 1619.35 521.001C1621.71 520.356 1624.17 521.754 1624.81 524.125L1638.62 574.855C1639.27 577.226 1637.87 579.671 1635.5 580.316C1635.11 580.423 1634.71 580.473 1634.33 580.473ZM1606.7 479.013C1604.75 479.013 1602.96 477.711 1602.42 475.732L1588.61 425.001C1587.96 422.63 1589.36 420.185 1591.73 419.54C1594.1 418.896 1596.54 420.293 1597.19 422.664L1611 473.394C1611.65 475.765 1610.25 478.21 1607.88 478.855C1607.49 478.962 1607.09 479.013 1606.7 479.013Z" fill="#BFC8D6"/>
<path d="M2069.46 2178.87C2067.5 2178.87 2065.71 2177.56 2065.17 2175.58L2058.16 2149.83C2057.51 2147.46 2058.91 2145.01 2061.28 2144.37C2063.65 2143.72 2066.1 2145.12 2066.74 2147.49L2073.76 2173.25C2074.4 2175.62 2073 2178.06 2070.63 2178.71C2070.24 2178.81 2069.84 2178.87 2069.46 2178.87Z" fill="#BFC8D6"/>
<path d="M623.445 540.855C620.988 540.855 619.845 538.863 619.845 536.406V509.714C619.845 507.257 620.989 505.265 623.445 505.265C625.901 505.265 627.045 507.257 627.045 509.714V536.406C627.045 538.864 625.901 540.855 623.445 540.855Z" fill="#BFC8D6"/>
<path d="M623.445 1902.15C620.988 1902.15 619.845 1900.16 619.845 1897.7V1871.01C619.845 1868.55 620.989 1866.56 623.445 1866.56C625.901 1866.56 627.045 1868.55 627.045 1871.01V1897.7C627.045 1900.16 625.901 1902.15 623.445 1902.15ZM623.445 1822.07C620.988 1822.07 619.845 1820.08 619.845 1817.62V1764.24C619.845 1761.78 620.989 1759.79 623.445 1759.79C625.901 1759.79 627.045 1761.78 627.045 1764.24V1817.62C627.045 1820.08 625.901 1822.07 623.445 1822.07ZM623.445 1715.3C620.988 1715.3 619.845 1713.31 619.845 1710.86V1657.47C619.845 1655.01 620.989 1653.02 623.445 1653.02C625.901 1653.02 627.045 1655.01 627.045 1657.47V1710.86C627.045 1713.31 625.901 1715.3 623.445 1715.3ZM623.445 1608.54C620.988 1608.54 619.845 1606.54 619.845 1604.09V1550.7C619.845 1548.25 620.989 1546.25 623.445 1546.25C625.901 1546.25 627.045 1548.25 627.045 1550.7V1604.09C627.045 1606.54 625.901 1608.54 623.445 1608.54ZM623.445 1501.77C620.988 1501.77 619.845 1499.78 619.845 1497.32V1443.94C619.845 1441.48 620.989 1439.49 623.445 1439.49C625.901 1439.49 627.045 1441.48 627.045 1443.94V1497.32C627.045 1499.78 625.901 1501.77 623.445 1501.77ZM623.445 1395C620.988 1395 619.845 1393.01 619.845 1390.55V1337.17C619.845 1334.71 620.989 1332.72 623.445 1332.72C625.901 1332.72 627.045 1334.71 627.045 1337.17V1390.55C627.045 1393.01 625.901 1395 623.445 1395ZM623.445 1288.23C620.988 1288.23 619.845 1286.24 619.845 1283.78V1230.4C619.845 1227.94 620.989 1225.95 623.445 1225.95C625.901 1225.95 627.045 1227.94 627.045 1230.4V1283.78C627.045 1286.24 625.901 1288.23 623.445 1288.23ZM623.445 1181.46C620.988 1181.46 619.845 1179.47 619.845 1177.01V1123.63C619.845 1121.17 620.989 1119.18 623.445 1119.18C625.901 1119.18 627.045 1121.17 627.045 1123.63V1177.01C627.045 1179.47 625.901 1181.46 623.445 1181.46ZM623.445 1074.7C620.988 1074.7 619.845 1072.7 619.845 1070.25V1016.86C619.845 1014.41 620.989 1012.41 623.445 1012.41C625.901 1012.41 627.045 1014.41 627.045 1016.86V1070.25C627.045 1072.7 625.901 1074.7 623.445 1074.7ZM623.445 967.928C620.988 967.928 619.845 965.936 619.845 963.479V910.095C619.845 907.638 620.989 905.646 623.445 905.646C625.901 905.646 627.045 907.638 627.045 910.095V963.479C627.045 965.936 625.901 967.928 623.445 967.928ZM623.445 861.16C620.988 861.16 619.845 859.168 619.845 856.711V803.327C619.845 800.87 620.989 798.878 623.445 798.878C625.901 798.878 627.045 800.87 627.045 803.327V856.711C627.045 859.168 625.901 861.16 623.445 861.16ZM623.445 754.392C620.988 754.392 619.845 752.4 619.845 749.943V696.559C619.845 694.102 620.989 692.11 623.445 692.11C625.901 692.11 627.045 694.102 627.045 696.559V749.943C627.045 752.4 625.901 754.392 623.445 754.392ZM623.445 647.624C620.988 647.624 619.845 645.632 619.845 643.175V589.791C619.845 587.334 620.989 585.342 623.445 585.342C625.901 585.342 627.045 587.334 627.045 589.791V643.175C627.045 645.632 625.901 647.624 623.445 647.624Z" fill="#BFC8D6"/>
<path d="M623.445 1955.53C620.988 1955.53 619.845 1953.54 619.845 1951.08V1924.39C619.845 1921.93 620.989 1919.94 623.445 1919.94C625.901 1919.94 627.045 1921.93 627.045 1924.39V1951.08C627.045 1953.54 625.901 1955.53 623.445 1955.53Z" fill="#BFC8D6"/>
<path d="M1407.86 1978.95C1381.38 1979.72 1355.55 1973.04 1333.18 1959.64C1265.03 1918.78 1164.33 1851.31 1073.73 1763C958.766 1650.93 892.713 1537.01 878.261 1425.14L878.034 1423.39L875.23 946.07C875.23 851.737 936.758 775.164 1052.28 724.848C1147.72 683.277 1274.22 662.679 1407.85 666.548C1539.94 670.371 1662.16 697.623 1752.62 743.033C1860.15 797.014 1916.58 872.874 1916.58 962.814L1914.02 1418.9L1913.81 1420.57C1900.6 1527.69 1839.83 1638.42 1732.42 1750.39C1646.26 1840.2 1548.9 1911.37 1482.04 1955.47C1459.92 1970.06 1434.27 1978.18 1407.86 1978.95Z" fill="url(#paint0_linear_168_591)"/>
<path d="M1434.07 1978.95C1407.94 1979.72 1382.46 1973.04 1360.38 1959.64C1293.13 1918.78 1193.76 1851.31 1104.35 1763C990.911 1650.93 925.731 1537.01 911.471 1425.14L911.247 1423.39L908.48 946.07C908.48 851.737 969.195 775.164 1083.19 724.848C1177.37 683.277 1302.19 662.679 1434.07 666.548C1564.4 670.371 1685.01 697.623 1774.28 743.033C1880.39 797.014 1936.07 872.874 1936.07 962.814L1933.54 1418.9L1933.34 1420.57C1920.31 1527.69 1860.34 1638.42 1754.34 1750.39C1669.32 1840.2 1573.25 1911.37 1507.27 1955.47C1485.44 1970.06 1460.13 1978.18 1434.07 1978.95Z" fill="url(#paint1_linear_168_591)"/>
<path d="M939.995 946.414L942.781 1421.32C974.042 1663.63 1258.81 1859.82 1382.84 1934.35C1418.37 1955.71 1463.79 1954.44 1499.07 1931.23C1620.51 1851.32 1889.69 1650.15 1918.45 1417.17L1921 962.345C1921 624.903 939.995 594.053 939.995 946.414Z" fill="url(#paint2_linear_168_591)"/>
<path d="M1441.1 1861.15C1438.83 1861.2 1435.39 1860.83 1431.91 1858.72C1380.85 1827.79 1281.85 1763.02 1195.73 1678.43C1102.71 1587.05 1049.06 1498.21 1036.76 1414.77L1034.03 947.729C1034.14 902.916 1069.62 864.562 1139.15 833.875C1216.78 799.615 1327.02 781.637 1441.11 784.346C1554.06 787.028 1661.08 809.766 1735.22 846.557C1800.81 879.099 1833.96 917.465 1834.07 960.728L1831.53 1411.6C1820.04 1492.34 1769.69 1579.39 1681.28 1670.89C1598.15 1756.92 1501.04 1825.12 1450.29 1858.29C1446.82 1860.55 1443.38 1861.1 1441.1 1861.15Z" fill="url(#paint3_linear_168_591)"/>
<path d="M1429.45 1829.23C1377.88 1797.46 1286.17 1736.13 1206.16 1657.39C1118.74 1571.35 1068.15 1488.79 1056.26 1412.4L1053.55 948.067C1053.63 916.026 1083.08 886.635 1140.86 861.053C1214.4 828.492 1319.75 811.335 1429.45 813.797C1538.09 816.236 1640.5 837.694 1710.87 872.513C1765.55 899.566 1793.21 929.077 1793.28 960.325L1790.75 1409.54C1779.59 1483.66 1731.87 1564.72 1648.43 1650.92C1570.96 1730.95 1480.79 1795.31 1429.45 1829.23Z" fill="url(#paint4_linear_168_591)"/>
<path d="M1398.16 1480.42C1381.78 1480.42 1366.79 1472.57 1358.56 1459.77L1230.37 1260.41C1219.26 1243.13 1225.23 1218.01 1243.93 1203.83C1263.02 1189.36 1288.44 1191.5 1300.45 1209.12L1394.76 1347.52L1535.49 1082.62C1549.15 1056.91 1582.73 1040.72 1610.99 1046.93C1640.02 1053.3 1651.8 1080.61 1636.76 1107.42L1441.15 1456.14C1433.05 1470.58 1417.15 1479.84 1399.82 1480.39C1399.27 1480.41 1398.71 1480.42 1398.16 1480.42Z" fill="white"/>
<path d="M744.767 698.757L486.687 693.655C454.22 693.013 428.236 666.349 428.589 634.098L431.368 380.073C431.721 347.82 458.281 321.883 490.753 322.142L748.875 324.198C781.95 324.462 808.522 351.135 808.164 383.774L805.344 640.844C804.985 673.483 777.836 699.41 744.767 698.757Z" fill="url(#paint5_linear_168_591)"/>
<path d="M753.498 700.502L494.926 695.361C462.398 694.714 436.365 668.022 436.718 635.741L439.499 381.478C439.852 349.195 466.462 323.237 498.995 323.499L757.609 325.582C790.748 325.849 817.373 352.551 817.014 385.222L814.191 642.543C813.834 675.213 786.632 701.161 753.498 700.502Z" fill="url(#paint6_linear_168_591)"/>
<path opacity="0.48" d="M639.952 579.539C608.821 537.071 640.945 509.201 607.836 461.246C568.334 404.032 503.542 416.226 478.82 365.246C473.384 354.038 471.094 342.188 470.857 330.324C452.4 340.071 439.742 359.275 439.499 381.478L436.718 635.741C436.365 668.022 462.398 694.715 494.926 695.361L753.498 700.502C780.026 701.029 802.713 684.48 810.905 661.092C764.634 609.174 683.552 639.015 639.952 579.539Z" fill="white"/>
<path d="M704.543 638.366L532.461 635.273C511.869 634.903 495.378 617.931 495.604 597.364L497.473 426.577C497.698 406.01 514.555 389.502 535.149 389.706L707.25 391.41C728.106 391.617 744.85 408.593 744.623 429.327L742.735 601.504C742.508 622.237 725.397 638.741 704.543 638.366Z" fill="url(#paint7_linear_168_591)"/>
<path d="M709.569 633.399L539.702 630.377C519.369 630.015 503.084 613.382 503.304 593.226L505.136 425.842C505.357 405.685 522.001 389.511 542.336 389.718L712.221 391.442C732.802 391.651 749.327 408.288 749.104 428.601L747.254 597.283C747.032 617.596 730.148 633.765 709.569 633.399Z" fill="url(#paint8_linear_168_591)"/>
<path opacity="0.48" d="M639.953 579.54C608.822 537.072 640.946 509.202 607.837 461.247C581.856 423.616 544.922 416.009 515.664 400.708C509.255 407.2 505.244 416.038 505.137 425.842L503.305 593.226C503.084 613.382 519.369 630.016 539.703 630.377L709.57 633.399C718.767 633.563 727.211 630.407 733.775 625.07C699.177 617.943 663.915 612.228 639.953 579.54Z" fill="white"/>
<path d="M2233.77 2443.21L1883.18 2436.28C1839.08 2435.41 1803.78 2399.19 1804.26 2355.38L1808.04 2010.3C1808.51 1966.49 1844.6 1931.25 1888.71 1931.6L2239.35 1934.4C2284.28 1934.75 2320.38 1970.99 2319.89 2015.33L2316.06 2364.54C2315.57 2408.88 2278.69 2444.1 2233.77 2443.21Z" fill="url(#paint9_linear_168_591)"/>
<path d="M2245.63 2445.58L1894.38 2438.6C1850.19 2437.72 1814.83 2401.46 1815.31 2357.61L1819.08 2012.21C1819.56 1968.35 1855.71 1933.09 1899.91 1933.45L2251.22 1936.28C2296.24 1936.64 2332.4 1972.91 2331.92 2017.29L2328.08 2366.85C2327.59 2411.23 2290.64 2446.48 2245.63 2445.58Z" fill="url(#paint10_linear_168_591)"/>
<path opacity="0.48" d="M2091.39 2281.26C2049.1 2223.57 2092.74 2185.71 2047.76 2120.57C1994.1 2042.85 1906.08 2059.41 1872.5 1990.16C1865.12 1974.93 1862 1958.83 1861.68 1942.72C1836.61 1955.96 1819.41 1982.05 1819.08 2012.21L1815.31 2357.61C1814.83 2401.46 1850.19 2437.72 1894.38 2438.6L2245.63 2445.58C2281.67 2446.3 2312.49 2423.82 2323.62 2392.04C2260.76 2321.52 2150.61 2362.06 2091.39 2281.26Z" fill="white"/>
<path d="M2179.13 2361.17L1945.37 2356.97C1917.39 2356.47 1894.99 2333.41 1895.3 2305.48L1897.84 2073.47C1898.14 2045.53 1921.04 2023.11 1949.02 2023.38L2182.81 2025.7C2211.14 2025.98 2233.88 2049.04 2233.58 2077.21L2231.01 2311.1C2230.7 2339.26 2207.46 2361.68 2179.13 2361.17Z" fill="url(#paint11_linear_168_591)"/>
<path d="M2185.96 2354.43L1955.2 2350.32C1927.58 2349.83 1905.46 2327.24 1905.76 2299.85L1908.25 2072.47C1908.55 2045.09 1931.16 2023.12 1958.78 2023.4L2189.56 2025.74C2217.52 2026.02 2239.97 2048.63 2239.66 2076.22L2237.15 2305.37C2236.85 2332.96 2213.91 2354.92 2185.96 2354.43Z" fill="url(#paint12_linear_168_591)"/>
<path opacity="0.48" d="M2091.39 2281.26C2049.1 2223.57 2092.74 2185.71 2047.76 2120.57C2012.47 2069.45 1962.29 2059.11 1922.55 2038.33C1913.84 2047.15 1908.39 2059.15 1908.25 2072.47L1905.76 2299.85C1905.46 2327.23 1927.58 2349.83 1955.2 2350.32L2185.96 2354.43C2198.45 2354.65 2209.92 2350.36 2218.84 2343.11C2171.84 2333.43 2123.94 2325.67 2091.39 2281.26Z" fill="white"/>
<path d="M2465.67 993.766L2182.66 988.172C2147.05 987.468 2118.56 958.229 2118.95 922.862L2121.99 644.296C2122.38 608.927 2151.51 580.485 2187.12 580.769L2470.17 583.024C2506.44 583.313 2535.58 612.564 2535.19 648.356L2532.1 930.261C2531.71 966.051 2501.93 994.482 2465.67 993.766Z" fill="url(#paint13_linear_168_591)"/>
<path d="M2475.25 995.68L2191.69 990.042C2156.02 989.333 2127.47 960.062 2127.86 924.662L2130.91 645.836C2131.3 610.434 2160.48 581.968 2196.16 582.255L2479.75 584.539C2516.09 584.832 2545.29 614.114 2544.9 649.941L2541.8 932.121C2541.41 967.947 2511.58 996.402 2475.25 995.68Z" fill="url(#paint14_linear_168_591)"/>
<path opacity="0.48" d="M2350.73 863.03C2316.59 816.46 2351.82 785.897 2315.51 733.31C2272.19 670.569 2201.14 683.94 2174.03 628.035C2168.07 615.744 2165.56 602.749 2165.3 589.74C2145.06 600.428 2131.18 621.487 2130.91 645.835L2127.86 924.661C2127.48 960.061 2156.02 989.332 2191.69 990.041L2475.25 995.679C2504.34 996.257 2529.22 978.109 2538.2 952.461C2487.46 895.529 2398.54 928.253 2350.73 863.03Z" fill="white"/>
<path d="M2421.56 927.54L2232.85 924.148C2210.27 923.742 2192.19 905.13 2192.44 882.577L2194.49 695.291C2194.73 672.737 2213.22 654.635 2235.8 654.859L2424.53 656.728C2447.4 656.955 2465.76 675.57 2465.51 698.307L2463.44 887.117C2463.19 909.853 2444.43 927.951 2421.56 927.54Z" fill="url(#paint15_linear_168_591)"/>
<path d="M2427.07 922.093L2240.79 918.779C2218.5 918.382 2200.64 900.142 2200.88 878.038L2202.89 694.484C2203.13 672.379 2221.38 654.643 2243.68 654.87L2429.98 656.76C2452.55 656.989 2470.67 675.233 2470.43 697.509L2468.4 882.487C2468.15 904.763 2449.64 922.495 2427.07 922.093Z" fill="url(#paint16_linear_168_591)"/>
<path opacity="0.48" d="M2350.73 863.032C2316.59 816.461 2351.82 785.899 2315.51 733.311C2287.02 692.045 2246.52 683.703 2214.43 666.924C2207.41 674.043 2203.01 683.735 2202.89 694.486L2200.88 878.04C2200.64 900.144 2218.5 918.384 2240.79 918.781L2427.07 922.095C2437.16 922.275 2446.42 918.814 2453.62 912.962C2415.68 905.145 2377.01 898.878 2350.73 863.032Z" fill="white"/>
<path d="M1646.63 441.853L1484.34 438.645C1463.93 438.241 1447.59 421.475 1447.81 401.195L1449.56 241.462C1449.78 221.181 1466.48 204.872 1486.9 205.035L1649.21 206.328C1670.01 206.494 1686.72 223.266 1686.49 243.79L1684.72 405.438C1684.49 425.961 1667.42 442.264 1646.63 441.853Z" fill="url(#paint17_linear_168_591)"/>
<path d="M1652.12 442.951L1489.53 439.718C1469.07 439.311 1452.7 422.527 1452.93 402.228L1454.67 242.346C1454.9 222.046 1471.63 205.724 1492.09 205.888L1654.71 207.198C1675.54 207.366 1692.29 224.156 1692.06 244.7L1690.28 406.505C1690.06 427.048 1672.95 443.365 1652.12 442.951Z" fill="url(#paint18_linear_168_591)"/>
<path opacity="0.48" d="M1580.72 366.889C1561.14 340.185 1581.35 322.66 1560.53 292.506C1535.69 256.529 1494.94 264.197 1479.4 232.14C1475.98 225.092 1474.54 217.641 1474.39 210.181C1462.79 216.31 1454.83 228.385 1454.67 242.347L1452.93 402.229C1452.7 422.528 1469.07 439.312 1489.53 439.719L1652.12 442.952C1668.8 443.284 1683.07 432.877 1688.22 418.17C1659.12 385.524 1608.14 404.289 1580.72 366.889Z" fill="white"/>
<path d="M1621.33 403.88L1513.13 401.935C1500.18 401.702 1489.81 391.03 1489.95 378.098L1491.13 270.706C1491.27 257.773 1501.87 247.393 1514.82 247.521L1623.04 248.593C1636.15 248.723 1646.68 259.398 1646.54 272.436L1645.35 380.702C1645.21 393.738 1634.45 404.115 1621.33 403.88Z" fill="url(#paint19_linear_168_591)"/>
<path d="M1624.49 400.757L1517.68 398.857C1504.9 398.63 1494.66 388.171 1494.79 375.496L1495.95 270.244C1496.09 257.569 1506.55 247.399 1519.34 247.529L1626.16 248.613C1639.11 248.744 1649.5 259.206 1649.36 271.979L1648.19 378.048C1648.05 390.819 1637.43 400.987 1624.49 400.757Z" fill="url(#paint20_linear_168_591)"/>
<path opacity="0.48" d="M1580.72 366.888C1561.14 340.184 1581.34 322.659 1560.52 292.505C1544.19 268.843 1520.96 264.059 1502.57 254.438C1498.54 258.52 1496.01 264.078 1495.95 270.242L1494.79 375.495C1494.66 388.17 1504.9 398.627 1517.68 398.855L1624.49 400.755C1630.28 400.858 1635.59 398.874 1639.71 395.518C1617.96 391.037 1595.79 387.443 1580.72 366.888Z" fill="white"/>
<path d="M199.494 1409L37.212 1405.8C16.797 1405.39 0.457974 1388.63 0.678974 1368.35L2.42598 1208.61C2.64798 1188.33 19.349 1172.02 39.768 1172.19L202.077 1173.48C222.875 1173.65 239.584 1190.42 239.358 1210.94L237.585 1372.59C237.36 1393.11 220.288 1409.42 199.494 1409Z" fill="url(#paint21_linear_168_591)"/>
<path d="M204.985 1410.1L42.3933 1406.87C21.9393 1406.46 5.56929 1389.68 5.79129 1369.38L7.54029 1209.5C7.76229 1189.2 24.4953 1172.87 44.9523 1173.04L207.57 1174.35C228.408 1174.52 245.15 1191.31 244.925 1211.85L243.15 1373.66C242.925 1394.2 225.82 1410.52 204.985 1410.1Z" fill="url(#paint22_linear_168_591)"/>
<path opacity="0.48" d="M133.586 1334.04C114.01 1307.34 134.211 1289.81 113.391 1259.66C88.5523 1223.68 47.8103 1231.35 32.2653 1199.29C28.8473 1192.24 27.4073 1184.79 27.2583 1177.33C15.6523 1183.46 7.69329 1195.54 7.54029 1209.5L5.79129 1369.38C5.56929 1389.68 21.9393 1406.46 42.3933 1406.87L204.985 1410.1C221.666 1410.44 235.932 1400.03 241.083 1385.32C211.988 1352.68 161.002 1371.44 133.586 1334.04Z" fill="white"/>
<path d="M174.201 1371.03L65.9949 1369.09C53.0469 1368.85 42.6768 1358.18 42.8188 1345.25L43.9938 1237.86C44.1348 1224.92 54.7349 1214.54 67.6849 1214.67L175.903 1215.74C189.018 1215.87 199.546 1226.55 199.403 1239.59L198.216 1347.85C198.074 1360.89 187.314 1371.27 174.201 1371.03Z" fill="url(#paint23_linear_168_591)"/>
<path d="M177.362 1367.91L70.5485 1366.01C57.7625 1365.78 47.5226 1355.32 47.6616 1342.65L48.8136 1237.4C48.9526 1224.72 59.4186 1214.55 72.2056 1214.68L179.031 1215.76C191.973 1215.89 202.363 1226.36 202.223 1239.13L201.06 1345.2C200.919 1357.97 190.302 1368.14 177.362 1367.91Z" fill="url(#paint24_linear_168_591)"/>
<path opacity="0.48" d="M133.586 1334.04C114.01 1307.34 134.211 1289.81 113.391 1259.66C97.0536 1236 73.8296 1231.21 55.4316 1221.59C51.4016 1225.67 48.8796 1231.23 48.8126 1237.39L47.6606 1342.65C47.5216 1355.32 57.7616 1365.78 70.5476 1366.01L177.361 1367.91C183.144 1368.01 188.454 1366.03 192.581 1362.67C170.827 1358.19 148.654 1354.6 133.586 1334.04Z" fill="white"/>
<path d="M1269.59 2606.11L1071.02 2602.19C1046.04 2601.7 1026.05 2581.18 1026.32 2556.37L1028.46 2360.91C1028.73 2336.1 1049.17 2316.14 1074.15 2316.34L1272.75 2317.92C1298.2 2318.13 1318.65 2338.65 1318.37 2363.76L1316.2 2561.56C1315.93 2586.67 1295.04 2606.62 1269.59 2606.11Z" fill="url(#paint25_linear_168_591)"/>
<path d="M1276.31 2607.46L1077.36 2603.5C1052.33 2603 1032.3 2582.47 1032.58 2557.63L1034.72 2362C1034.99 2337.16 1055.46 2317.18 1080.49 2317.39L1279.47 2318.99C1304.97 2319.2 1325.46 2339.74 1325.18 2364.88L1323.01 2562.86C1322.73 2588 1301.8 2607.96 1276.31 2607.46Z" fill="url(#paint26_linear_168_591)"/>
<path opacity="0.48" d="M1188.95 2514.39C1164.99 2481.71 1189.71 2460.27 1164.24 2423.37C1133.84 2379.35 1083.99 2388.73 1064.97 2349.51C1060.79 2340.88 1059.03 2331.76 1058.84 2322.64C1044.64 2330.14 1034.9 2344.91 1034.72 2361.99L1032.58 2557.63C1032.3 2582.47 1052.34 2603 1077.36 2603.5L1276.31 2607.46C1296.72 2607.86 1314.18 2595.13 1320.48 2577.13C1284.88 2537.19 1222.49 2560.15 1188.95 2514.39Z" fill="white"/>
<path d="M1238.64 2559.65L1106.24 2557.27C1090.4 2556.98 1077.71 2543.92 1077.88 2528.1L1079.32 2396.69C1079.49 2380.87 1092.46 2368.17 1108.31 2368.33L1240.73 2369.64C1256.77 2369.8 1269.66 2382.86 1269.48 2398.81L1268.03 2531.29C1267.85 2547.24 1254.69 2559.94 1238.64 2559.65Z" fill="url(#paint27_linear_168_591)"/>
<path d="M1242.51 2555.83L1111.81 2553.5C1096.17 2553.22 1083.64 2540.43 1083.81 2524.92L1085.22 2396.13C1085.39 2380.62 1098.19 2368.17 1113.84 2368.33L1244.55 2369.66C1260.39 2369.82 1273.1 2382.62 1272.93 2398.25L1271.51 2528.04C1271.33 2543.67 1258.34 2556.11 1242.51 2555.83Z" fill="url(#paint28_linear_168_591)"/>
<path opacity="0.48" d="M1188.95 2514.39C1164.99 2481.71 1189.71 2460.27 1164.24 2423.37C1144.25 2394.42 1115.83 2388.56 1093.32 2376.79C1088.39 2381.79 1085.3 2388.59 1085.22 2396.13L1083.81 2524.92C1083.64 2540.43 1096.17 2553.22 1111.81 2553.5L1242.51 2555.83C1249.59 2555.95 1256.08 2553.53 1261.13 2549.42C1234.51 2543.93 1207.38 2539.54 1188.95 2514.39Z" fill="white"/>
<path d="M2627.59 1527.97L2465.31 1524.76C2444.89 1524.36 2428.55 1507.59 2428.78 1487.31L2430.52 1327.58C2430.74 1307.3 2447.45 1290.99 2467.86 1291.15L2630.17 1292.44C2650.97 1292.61 2667.68 1309.38 2667.45 1329.9L2665.68 1491.55C2665.46 1512.07 2648.39 1528.38 2627.59 1527.97Z" fill="url(#paint29_linear_168_591)"/>
<path d="M2633.08 1529.06L2470.49 1525.83C2450.04 1525.42 2433.67 1508.64 2433.89 1488.34L2435.64 1328.46C2435.86 1308.16 2452.59 1291.84 2473.05 1292L2635.67 1293.31C2656.51 1293.48 2673.25 1310.27 2673.02 1330.81L2671.25 1492.62C2671.02 1513.16 2653.92 1529.48 2633.08 1529.06Z" fill="url(#paint30_linear_168_591)"/>
<path opacity="0.48" d="M2561.68 1453C2542.11 1426.3 2562.31 1408.77 2541.49 1378.62C2516.65 1342.64 2475.91 1350.31 2460.36 1318.25C2456.94 1311.21 2455.5 1303.75 2455.36 1296.29C2443.75 1302.42 2435.79 1314.5 2435.64 1328.46L2433.89 1488.34C2433.67 1508.64 2450.04 1525.43 2470.49 1525.83L2633.08 1529.07C2649.76 1529.4 2664.03 1518.99 2669.18 1504.28C2640.08 1471.64 2589.1 1490.4 2561.68 1453Z" fill="white"/>
<path d="M2602.3 1489.99L2494.09 1488.05C2481.14 1487.82 2470.77 1477.14 2470.92 1464.21L2472.09 1356.82C2472.23 1343.89 2482.83 1333.51 2495.78 1333.63L2604 1334.71C2617.12 1334.84 2627.64 1345.51 2627.5 1358.55L2626.31 1466.82C2626.17 1479.85 2615.41 1490.23 2602.3 1489.99Z" fill="url(#paint31_linear_168_591)"/>
<path d="M2605.46 1486.87L2498.65 1484.97C2485.86 1484.74 2475.62 1474.28 2475.76 1461.61L2476.91 1356.36C2477.05 1343.68 2487.52 1333.51 2500.3 1333.64L2607.13 1334.73C2620.07 1334.86 2630.46 1345.32 2630.32 1358.09L2629.16 1464.16C2629.02 1476.93 2618.4 1487.1 2605.46 1486.87Z" fill="url(#paint32_linear_168_591)"/>
<path opacity="0.48" d="M2561.68 1453C2542.11 1426.3 2562.31 1408.77 2541.49 1378.62C2525.15 1354.96 2501.93 1350.17 2483.53 1340.55C2479.5 1344.63 2476.98 1350.19 2476.91 1356.36L2475.76 1461.61C2475.62 1474.28 2485.86 1484.74 2498.65 1484.97L2605.46 1486.87C2611.24 1486.97 2616.55 1484.99 2620.68 1481.63C2598.92 1477.15 2576.75 1473.56 2561.68 1453Z" fill="white"/>
<path d="M747.486 2148.25L464.474 2142.66C428.871 2141.96 400.376 2112.72 400.763 2077.35L403.81 1798.78C404.197 1763.42 433.323 1734.97 468.932 1735.26L751.99 1737.51C788.26 1737.8 817.4 1767.05 817.007 1802.84L813.914 2084.75C813.522 2120.54 783.751 2148.97 747.486 2148.25Z" fill="url(#paint33_linear_168_591)"/>
<path d="M757.063 2150.17L473.511 2144.53C437.841 2143.82 409.293 2114.55 409.68 2079.15L412.73 1800.33C413.117 1764.92 442.298 1736.46 477.974 1736.74L761.572 1739.03C797.912 1739.32 827.11 1768.6 826.716 1804.43L823.62 2086.61C823.227 2122.44 793.397 2150.89 757.063 2150.17Z" fill="url(#paint34_linear_168_591)"/>
<path opacity="0.48" d="M632.547 2017.52C598.408 1970.95 633.636 1940.39 597.328 1887.8C554.01 1825.06 482.959 1838.43 455.848 1782.53C449.888 1770.23 447.375 1757.24 447.116 1744.23C426.876 1754.92 412.995 1775.98 412.728 1800.33L409.678 2079.15C409.291 2114.55 437.839 2143.82 473.509 2144.53L757.061 2150.17C786.152 2150.75 811.031 2132.6 820.014 2106.95C769.274 2050.02 680.359 2082.74 632.547 2017.52Z" fill="white"/>
<path d="M703.377 2082.03L514.671 2078.64C492.09 2078.23 474.006 2059.62 474.253 2037.07L476.303 1849.78C476.55 1827.23 495.036 1809.12 517.619 1809.35L706.346 1811.22C729.217 1811.44 747.579 1830.06 747.329 1852.8L745.258 2041.61C745.008 2064.34 726.245 2082.44 703.377 2082.03Z" fill="url(#paint35_linear_168_591)"/>
<path d="M708.888 2076.58L522.611 2073.27C500.314 2072.87 482.455 2054.63 482.697 2032.53L484.706 1848.97C484.948 1826.87 503.2 1809.13 525.5 1809.36L711.797 1811.25C734.367 1811.48 752.487 1829.72 752.243 1852L750.215 2036.98C749.971 2059.25 731.456 2076.98 708.888 2076.58Z" fill="url(#paint36_linear_168_591)"/>
<path opacity="0.48" d="M632.547 2017.52C598.408 1970.95 633.636 1940.39 597.329 1887.8C568.838 1846.53 528.337 1838.19 496.251 1821.41C489.223 1828.53 484.825 1838.22 484.707 1848.98L482.698 2032.53C482.456 2054.63 500.314 2072.87 522.612 2073.27L708.889 2076.58C718.974 2076.76 728.234 2073.3 735.433 2067.45C697.492 2059.63 658.824 2053.37 632.547 2017.52Z" fill="white"/>
<path d="M2342.09 2793.79C2342.09 2793.79 2344.41 2812.3 2342.85 2818.5C2341.29 2824.7 2287.47 2829.19 2269.2 2827.03C2250.93 2824.87 2280.08 2806.21 2291.72 2802.71C2303.36 2799.21 2342.09 2793.79 2342.09 2793.79Z" fill="url(#paint37_linear_168_591)"/>
<path d="M2315 2762.91L2320.67 2800.05C2320.67 2800.05 2335.14 2806.55 2342.09 2800.12L2342.85 2761.25L2315 2762.91Z" fill="url(#paint38_linear_168_591)"/>
<path d="M2618.4 2761.25C2618.4 2761.25 2606.98 2769.73 2610.02 2779.88C2613.07 2790.02 2639.71 2830.69 2658.7 2842.23C2677.69 2853.77 2671.74 2829.73 2666.21 2814.75C2660.69 2799.77 2646.57 2766.78 2641.05 2761.25C2635.54 2755.72 2618.4 2761.25 2618.4 2761.25Z" fill="url(#paint39_linear_168_591)"/>
<path d="M2597.86 2720.45C2603.38 2735.84 2608.68 2748.49 2612.84 2757.82C2622.03 2778.46 2627.05 2786.21 2632.74 2792.93C2637.7 2798.77 2649.44 2811.26 2652.59 2809.18C2655.8 2807.07 2647.21 2791.9 2630.65 2747.45C2628.25 2741 2620.65 2720.45 2620.65 2720.45H2597.86Z" fill="url(#paint40_linear_168_591)"/>
<path d="M2202.29 2077.49C2198.35 2116.17 2194.57 2176.2 2200.22 2249.05C2207.58 2343.97 2226.56 2404.04 2250.37 2505.25C2264.91 2567.1 2284.51 2658.13 2302.25 2771.98C2306.37 2774.34 2318.48 2780.53 2334.07 2778.22C2342.79 2776.93 2349.32 2773.46 2353.18 2770.96C2399.72 2628.75 2385.97 2540.62 2363.51 2485.72C2353.94 2462.31 2342.33 2443.85 2336.13 2407.87C2327.92 2360.27 2338.07 2333.67 2352.54 2223.41C2362.86 2144.83 2361.07 2132.68 2354.21 2120.9C2326.77 2073.78 2242.84 2074.7 2202.29 2077.49Z" fill="url(#paint41_linear_168_591)"/>
<path d="M2362.48 2094.03C2390.99 2241.26 2418.97 2318.59 2440.15 2362.33C2445.37 2373.12 2462.79 2407.92 2479.26 2457.81C2493.84 2501.98 2499.92 2534.46 2503.03 2548.76C2512.86 2593.89 2537.16 2659.79 2602.52 2746.22C2603.34 2746.7 2614.48 2753.01 2625.14 2747.39C2630.53 2744.54 2633.22 2740.01 2634.29 2737.89C2625.74 2655.26 2615.93 2585.82 2607.42 2532.22C2605.63 2520.98 2597.76 2471.81 2585.42 2406.84C2580.59 2381.41 2573.52 2344.15 2565.04 2305.89C2554.49 2258.24 2538.31 2193.41 2513.37 2115.73C2463.07 2108.49 2412.77 2101.26 2362.48 2094.03Z" fill="url(#paint42_linear_168_591)"/>
<path d="M2338.19 1511.65C2322.02 1496.71 2291.09 1479.48 2275.58 1439.43C2270.91 1427.37 2254.36 1384.65 2278.77 1351.98C2293.25 1332.58 2320.16 1319.41 2343.88 1324.07C2364.14 1328.06 2367.31 1342.17 2401.75 1370.58C2415.16 1381.64 2436.7 1399.41 2460.68 1409.29C2501.77 1426.22 2526.45 1410.29 2567.7 1412.11C2618.37 1414.34 2677.24 1442.62 2705.6 1483.75C2755.94 1556.73 2683.02 1630.78 2738.15 1716.28C2756.22 1744.3 2765.12 1738.02 2807.91 1792.25C2850.76 1846.55 2872.19 1873.69 2868.37 1906.96C2863.08 1953.14 2813.35 1997.24 2766.52 2000.24C2720.77 2003.17 2691.68 1967.18 2668.39 1982.93C2651.81 1994.13 2661.29 2015.92 2643.69 2042.11C2620.99 2075.88 2576.38 2082.61 2569.18 2083.69C2502.31 2093.78 2412.14 2015.37 2373.85 1922.47C2304.79 1754.94 2426.09 1592.9 2338.19 1511.65Z" fill="url(#paint43_linear_168_591)"/>
<path d="M2063.8 1558.16C2063.34 1511.4 2169.57 1474.03 2218.17 1461.99C2293.77 1443.26 2354.32 1455.02 2369.02 1458.13C2463.31 1478.11 2522.03 1534.69 2544.14 1558.47C2526.04 1570.25 2476.09 1606.21 2451.36 1674.43C2443.66 1695.65 2420.93 1768.21 2453.44 1836.17C2472.18 1875.33 2505.32 1904.73 2530.49 1927.07C2568.24 1960.56 2587.8 1965.71 2600.45 1995.71C2614.24 2028.39 2600.35 2044.32 2617.46 2066.69C2635.85 2090.71 2657.39 2079.55 2688.55 2103.84C2720.47 2128.72 2709.11 2149.21 2738.15 2176.7C2780.36 2216.66 2836.31 2203.68 2838.92 2221.66C2841.16 2237.13 2801.4 2258.11 2767.61 2266.62C2700.7 2283.47 2642.34 2255.18 2624.99 2246.46C2576.94 2222.33 2585.24 2206.7 2548.61 2188.3C2487.27 2157.49 2445.35 2191.78 2305.64 2195.31C2229.98 2197.22 2191.73 2197.65 2170.77 2172.05C2151.63 2148.67 2161.69 2123.03 2173.17 2012.5C2178.64 1959.89 2180.61 1906.98 2184.64 1854.25C2196.04 1705.08 2196.39 1691.95 2186.27 1671.33C2150.02 1597.45 2064.21 1600.12 2063.8 1558.16Z" fill="url(#paint44_linear_168_591)"/>
<g opacity="0.3">
<path d="M2738.15 2176.7C2709.11 2149.21 2720.46 2128.73 2688.55 2103.84C2657.39 2079.55 2635.85 2090.71 2617.46 2066.69C2600.35 2044.32 2614.24 2028.39 2600.45 1995.71C2587.79 1965.71 2568.24 1960.56 2530.49 1927.07C2505.32 1904.73 2472.18 1875.33 2453.44 1836.17C2420.93 1768.21 2443.66 1695.65 2451.36 1674.43C2476.09 1606.21 2526.04 1570.25 2544.13 1558.47C2542.39 1556.59 2540.34 1554.45 2538.14 1552.2C2418.9 1568.59 2349.37 1637.49 2340.77 1657.89C2320.9 1705.05 2352.36 1722.38 2353.18 1858.39C2353.56 1923.4 2346.55 1949.07 2367.64 1976.21C2391.77 2007.24 2419.57 1997.64 2454.46 2038.22C2481.26 2069.39 2476.97 2089.16 2502 2102.29C2528.91 2116.41 2546.05 2099.95 2576.41 2106.43C2627.12 2117.24 2637.97 2175.72 2671.49 2207.71C2696.84 2231.9 2743.72 2248.81 2836.16 2230.66C2838.3 2227.55 2839.33 2224.51 2838.92 2221.66C2836.31 2203.68 2780.36 2216.66 2738.15 2176.7Z" fill="url(#paint45_linear_168_591)"/>
</g>
<path d="M2376.95 1694.58C2364.27 1721.5 2422.52 1784.19 2487.26 1813.96C2500.45 1820.03 2595.17 1863.58 2637.39 1821.7C2672.27 1787.09 2649.76 1715.53 2641.72 1689.98C2602.25 1564.53 2481.04 1500.72 2430.25 1477.7C2392.34 1572.49 2414.67 1614.73 2423.45 1627.92C2432.63 1641.7 2458.25 1670.64 2485.46 1696.13C2504.6 1714.06 2516.52 1722.79 2514.92 1725.58C2512.92 1729.07 2490.49 1722.49 2403.35 1680.08C2393.25 1681.71 2381.28 1685.39 2376.95 1694.58Z" fill="url(#paint46_linear_168_591)"/>
<path d="M2012.33 1539.93L2055.09 1752.86C2056.46 1759.68 2061.75 1765.04 2068.55 1766.5L2387.36 1834.92C2398.79 1837.37 2409.35 1828.14 2408.44 1816.49L2391.62 1599.93C2391.03 1592.42 2385.71 1586.13 2378.39 1584.33C2327.82 1571.84 2133.17 1525.1 2030.5 1519.03C2019.04 1518.35 2010.07 1528.67 2012.33 1539.93Z" fill="url(#paint47_linear_168_591)"/>
<path d="M2330.32 1384.42C2330.32 1384.42 2336.33 1432.5 2354.08 1443.51C2371.82 1454.52 2400.51 1468.91 2403.67 1472.81C2406.83 1476.72 2293.74 1488.87 2237.71 1460.6C2256.17 1456.74 2261.2 1455.33 2261.2 1455.33C2266.21 1453.91 2275.56 1451.28 2284.93 1445.93C2291.31 1442.3 2301.59 1435.2 2311.02 1421.8L2310.82 1395.18L2330.32 1384.42Z" fill="url(#paint48_linear_168_591)"/>
<path d="M2333.02 1401.45C2333.02 1401.45 2321.45 1417.33 2303.31 1410.71C2287.06 1404.79 2296.76 1362.83 2309.64 1358.04C2313.94 1356.45 2321.83 1357.15 2327.11 1360.44C2330.82 1362.76 2340.73 1375.07 2335.05 1388.86C2339.15 1387.67 2342.76 1388.75 2343.67 1390.78C2344.82 1393.36 2341.34 1396.87 2340.55 1397.67C2337.83 1400.43 2334.53 1401.2 2333.02 1401.45Z" fill="url(#paint49_linear_168_591)"/>
<path opacity="0.3" d="M2299.43 1724.03C2265.19 1714.38 2236.8 1738.35 2209.52 1719.38C2181.58 1699.95 2199.81 1666.76 2170.76 1634.12C2139.7 1599.22 2100.3 1616.32 2071.55 1584.51C2060.88 1572.7 2051.27 1553.46 2051.13 1520.66C2043.92 1519.96 2037.03 1519.41 2030.5 1519.03C2019.04 1518.35 2010.07 1528.67 2012.33 1539.93L2055.09 1752.86C2056.46 1759.68 2061.75 1765.04 2068.55 1766.5L2374.94 1832.25C2353.31 1756.36 2324.44 1731.08 2299.43 1724.03Z" fill="url(#paint50_linear_168_591)"/>
<path d="M2032.63 1653.21C2032.63 1653.21 2012.29 1634.41 2010.08 1612.58C2007.87 1590.74 2023.21 1573.27 2038.08 1568.81C2052.95 1564.36 2060.88 1570.93 2050.9 1592.43C2040.92 1613.93 2025.09 1627.89 2032.63 1653.21Z" fill="url(#paint51_linear_168_591)"/>
</g>
<defs>
<linearGradient id="paint0_linear_168_591" x1="2006.72" y1="630.032" x2="1706.59" y2="918.514" gradientUnits="userSpaceOnUse">
<stop stop-color="#AA80F9"/>
<stop offset="0.9964" stop-color="#6165D7"/>
</linearGradient>
<linearGradient id="paint1_linear_168_591" x1="1114.67" y1="695.766" x2="2134.91" y2="2364.44" gradientUnits="userSpaceOnUse">
<stop stop-color="#AA80F9"/>
<stop offset="0.9964" stop-color="#6165D7"/>
</linearGradient>
<linearGradient id="paint2_linear_168_591" x1="1655.66" y1="1645.84" x2="827.075" y2="-20.2701" gradientUnits="userSpaceOnUse">
<stop stop-color="#AA80F9"/>
<stop offset="0.9964" stop-color="#6165D7"/>
</linearGradient>
<linearGradient id="paint3_linear_168_591" x1="1034.03" y1="1322.62" x2="1834.07" y2="1322.62" gradientUnits="userSpaceOnUse">
<stop offset="0.0036" stop-color="#26264F"/>
<stop offset="1" stop-color="#444B8C"/>
</linearGradient>
<linearGradient id="paint4_linear_168_591" x1="1562.54" y1="1935.12" x2="1331.55" y2="676.203" gradientUnits="userSpaceOnUse">
<stop stop-color="#AA80F9"/>
<stop offset="0.9964" stop-color="#6165D7"/>
</linearGradient>
<linearGradient id="paint5_linear_168_591" x1="428.585" y1="510.454" x2="808.166" y2="510.454" gradientUnits="userSpaceOnUse">
<stop stop-color="#444B8C"/>
<stop offset="0.9964" stop-color="#26264F"/>
</linearGradient>
<linearGradient id="paint6_linear_168_591" x1="436.715" y1="512.006" x2="817.019" y2="512.006" gradientUnits="userSpaceOnUse">
<stop stop-color="#AA80F9"/>
<stop offset="0.9964" stop-color="#6165D7"/>
</linearGradient>
<linearGradient id="paint7_linear_168_591" x1="495.601" y1="514.038" x2="744.625" y2="514.038" gradientUnits="userSpaceOnUse">
<stop stop-color="#444B8C"/>
<stop offset="0.9964" stop-color="#26264F"/>
</linearGradient>
<linearGradient id="paint8_linear_168_591" x1="668.364" y1="732.167" x2="595.407" y2="349.282" gradientUnits="userSpaceOnUse">
<stop offset="0.0036" stop-color="#E38DDD"/>
<stop offset="1" stop-color="#9571F6"/>
</linearGradient>
<linearGradient id="paint9_linear_168_591" x1="1804.26" y1="2187.41" x2="2319.9" y2="2187.41" gradientUnits="userSpaceOnUse">
<stop stop-color="#444B8C"/>
<stop offset="0.9964" stop-color="#26264F"/>
</linearGradient>
<linearGradient id="paint10_linear_168_591" x1="1815.3" y1="2189.52" x2="2331.92" y2="2189.52" gradientUnits="userSpaceOnUse">
<stop stop-color="#AA80F9"/>
<stop offset="0.9964" stop-color="#6165D7"/>
</linearGradient>
<linearGradient id="paint11_linear_168_591" x1="1895.29" y1="2192.28" x2="2233.58" y2="2192.28" gradientUnits="userSpaceOnUse">
<stop stop-color="#444B8C"/>
<stop offset="0.9964" stop-color="#26264F"/>
</linearGradient>
<linearGradient id="paint12_linear_168_591" x1="2129.98" y1="2488.6" x2="2030.87" y2="1968.47" gradientUnits="userSpaceOnUse">
<stop offset="0.0036" stop-color="#E38DDD"/>
<stop offset="1" stop-color="#9571F6"/>
</linearGradient>
<linearGradient id="paint13_linear_168_591" x1="2118.94" y1="787.272" x2="2535.19" y2="787.272" gradientUnits="userSpaceOnUse">
<stop stop-color="#444B8C"/>
<stop offset="0.9964" stop-color="#26264F"/>
</linearGradient>
<linearGradient id="paint14_linear_168_591" x1="2127.86" y1="788.973" x2="2544.9" y2="788.973" gradientUnits="userSpaceOnUse">
<stop stop-color="#AA80F9"/>
<stop offset="0.9964" stop-color="#6165D7"/>
</linearGradient>
<linearGradient id="paint15_linear_168_591" x1="2192.43" y1="791.202" x2="2465.51" y2="791.202" gradientUnits="userSpaceOnUse">
<stop stop-color="#444B8C"/>
<stop offset="0.9964" stop-color="#26264F"/>
</linearGradient>
<linearGradient id="paint16_linear_168_591" x1="2381.89" y1="1030.4" x2="2301.88" y2="610.529" gradientUnits="userSpaceOnUse">
<stop offset="0.0036" stop-color="#E38DDD"/>
<stop offset="1" stop-color="#9571F6"/>
</linearGradient>
<linearGradient id="paint17_linear_168_591" x1="1447.81" y1="323.448" x2="1686.49" y2="323.448" gradientUnits="userSpaceOnUse">
<stop stop-color="#444B8C"/>
<stop offset="0.9964" stop-color="#26264F"/>
</linearGradient>
<linearGradient id="paint18_linear_168_591" x1="1452.92" y1="324.422" x2="1692.06" y2="324.422" gradientUnits="userSpaceOnUse">
<stop stop-color="#AA80F9"/>
<stop offset="0.9964" stop-color="#6165D7"/>
</linearGradient>
<linearGradient id="paint19_linear_168_591" x1="1489.95" y1="325.701" x2="1646.54" y2="325.701" gradientUnits="userSpaceOnUse">
<stop stop-color="#444B8C"/>
<stop offset="0.9964" stop-color="#26264F"/>
</linearGradient>
<linearGradient id="paint20_linear_168_591" x1="1598.58" y1="462.862" x2="1552.71" y2="222.102" gradientUnits="userSpaceOnUse">
<stop offset="0.0036" stop-color="#E38DDD"/>
<stop offset="1" stop-color="#9571F6"/>
</linearGradient>
<linearGradient id="paint21_linear_168_591" x1="0.676774" y1="1290.6" x2="239.361" y2="1290.6" gradientUnits="userSpaceOnUse">
<stop stop-color="#444B8C"/>
<stop offset="0.9964" stop-color="#26264F"/>
</linearGradient>
<linearGradient id="paint22_linear_168_591" x1="5.78979" y1="1291.57" x2="244.928" y2="1291.57" gradientUnits="userSpaceOnUse">
<stop stop-color="#AA80F9"/>
<stop offset="0.9964" stop-color="#6165D7"/>
</linearGradient>
<linearGradient id="paint23_linear_168_591" x1="42.817" y1="1292.85" x2="199.405" y2="1292.85" gradientUnits="userSpaceOnUse">
<stop stop-color="#444B8C"/>
<stop offset="0.9964" stop-color="#26264F"/>
</linearGradient>
<linearGradient id="paint24_linear_168_591" x1="151.451" y1="1430.01" x2="105.575" y2="1189.25" gradientUnits="userSpaceOnUse">
<stop offset="0.0036" stop-color="#E38DDD"/>
<stop offset="1" stop-color="#9571F6"/>
</linearGradient>
<linearGradient id="paint25_linear_168_591" x1="1026.32" y1="2461.23" x2="1318.37" y2="2461.23" gradientUnits="userSpaceOnUse">
<stop stop-color="#444B8C"/>
<stop offset="0.9964" stop-color="#26264F"/>
</linearGradient>
<linearGradient id="paint26_linear_168_591" x1="1032.57" y1="2462.43" x2="1325.18" y2="2462.43" gradientUnits="userSpaceOnUse">
<stop stop-color="#AA80F9"/>
<stop offset="0.9964" stop-color="#6165D7"/>
</linearGradient>
<linearGradient id="paint27_linear_168_591" x1="1077.88" y1="2463.99" x2="1269.48" y2="2463.99" gradientUnits="userSpaceOnUse">
<stop stop-color="#444B8C"/>
<stop offset="0.9964" stop-color="#26264F"/>
</linearGradient>
<linearGradient id="paint28_linear_168_591" x1="1210.81" y1="2631.82" x2="1154.67" y2="2337.22" gradientUnits="userSpaceOnUse">
<stop offset="0.0036" stop-color="#E38DDD"/>
<stop offset="1" stop-color="#9571F6"/>
</linearGradient>
<linearGradient id="paint29_linear_168_591" x1="2428.77" y1="1409.56" x2="2667.46" y2="1409.56" gradientUnits="userSpaceOnUse">
<stop stop-color="#444B8C"/>
<stop offset="0.9964" stop-color="#26264F"/>
</linearGradient>
<linearGradient id="paint30_linear_168_591" x1="2433.89" y1="1410.54" x2="2673.02" y2="1410.54" gradientUnits="userSpaceOnUse">
<stop stop-color="#AA80F9"/>
<stop offset="0.9964" stop-color="#6165D7"/>
</linearGradient>
<linearGradient id="paint31_linear_168_591" x1="2470.91" y1="1411.82" x2="2627.5" y2="1411.82" gradientUnits="userSpaceOnUse">
<stop stop-color="#444B8C"/>
<stop offset="0.9964" stop-color="#26264F"/>
</linearGradient>
<linearGradient id="paint32_linear_168_591" x1="2579.55" y1="1548.98" x2="2533.67" y2="1308.22" gradientUnits="userSpaceOnUse">
<stop offset="0.0036" stop-color="#E38DDD"/>
<stop offset="1" stop-color="#9571F6"/>
</linearGradient>
<linearGradient id="paint33_linear_168_591" x1="400.759" y1="1941.76" x2="817.011" y2="1941.76" gradientUnits="userSpaceOnUse">
<stop stop-color="#444B8C"/>
<stop offset="0.9964" stop-color="#26264F"/>
</linearGradient>
<linearGradient id="paint34_linear_168_591" x1="409.675" y1="1943.46" x2="826.719" y2="1943.46" gradientUnits="userSpaceOnUse">
<stop stop-color="#AA80F9"/>
<stop offset="0.9964" stop-color="#6165D7"/>
</linearGradient>
<linearGradient id="paint35_linear_168_591" x1="474.25" y1="1945.69" x2="747.331" y2="1945.69" gradientUnits="userSpaceOnUse">
<stop stop-color="#444B8C"/>
<stop offset="0.9964" stop-color="#26264F"/>
</linearGradient>
<linearGradient id="paint36_linear_168_591" x1="663.702" y1="2184.89" x2="583.697" y2="1765.02" gradientUnits="userSpaceOnUse">
<stop offset="0.0036" stop-color="#E38DDD"/>
<stop offset="1" stop-color="#9571F6"/>
</linearGradient>
<linearGradient id="paint37_linear_168_591" x1="2295.49" y1="2674.72" x2="2314.09" y2="3009.58" gradientUnits="userSpaceOnUse">
<stop stop-color="#444B8C"/>
<stop offset="0.9964" stop-color="#26264F"/>
</linearGradient>
<linearGradient id="paint38_linear_168_591" x1="2315" y1="2782.11" x2="2342.85" y2="2782.11" gradientUnits="userSpaceOnUse">
<stop stop-color="#311944"/>
<stop offset="1" stop-color="#A03976"/>
</linearGradient>
<linearGradient id="paint39_linear_168_591" x1="2632.2" y1="2656.02" x2="2650.8" y2="2990.87" gradientUnits="userSpaceOnUse">
<stop stop-color="#444B8C"/>
<stop offset="0.9964" stop-color="#26264F"/>
</linearGradient>
<linearGradient id="paint40_linear_168_591" x1="2597.86" y1="2764.93" x2="2653.26" y2="2764.93" gradientUnits="userSpaceOnUse">
<stop stop-color="#311944"/>
<stop offset="1" stop-color="#A03976"/>
</linearGradient>
<linearGradient id="paint41_linear_168_591" x1="2300.05" y1="2748.55" x2="2290.74" y2="2388.9" gradientUnits="userSpaceOnUse">
<stop stop-color="#311944"/>
<stop offset="1" stop-color="#893976"/>
</linearGradient>
<linearGradient id="paint42_linear_168_591" x1="2506.85" y1="2743.21" x2="2497.54" y2="2383.55" gradientUnits="userSpaceOnUse">
<stop stop-color="#311944"/>
<stop offset="1" stop-color="#893976"/>
</linearGradient>
<linearGradient id="paint43_linear_168_591" x1="2633.8" y1="1842.93" x2="2503.58" y2="1658.45" gradientUnits="userSpaceOnUse">
<stop stop-color="#444B8C"/>
<stop offset="0.9964" stop-color="#26264F"/>
</linearGradient>
<linearGradient id="paint44_linear_168_591" x1="2235.71" y1="1787.84" x2="2936.94" y2="2195" gradientUnits="userSpaceOnUse">
<stop stop-color="#FFC444"/>
<stop offset="0.9964" stop-color="#F36F56"/>
</linearGradient>
<linearGradient id="paint45_linear_168_591" x1="2493.27" y1="1452.15" x2="2600.75" y2="2109.45" gradientUnits="userSpaceOnUse">
<stop stop-color="#FFC444"/>
<stop offset="0.9964" stop-color="#F36F56"/>
</linearGradient>
<linearGradient id="paint46_linear_168_591" x1="2471.03" y1="1455.79" x2="2578.52" y2="2113.09" gradientUnits="userSpaceOnUse">
<stop stop-color="#FFC444"/>
<stop offset="0.9964" stop-color="#F36F56"/>
</linearGradient>
<linearGradient id="paint47_linear_168_591" x1="2408.5" y1="1677.16" x2="2011.98" y2="1677.16" gradientUnits="userSpaceOnUse">
<stop stop-color="#FF9085"/>
<stop offset="1" stop-color="#FB6FBB"/>
</linearGradient>
<linearGradient id="paint48_linear_168_591" x1="2381.31" y1="1414.6" x2="2333.36" y2="1453.61" gradientUnits="userSpaceOnUse">
<stop stop-color="#311944"/>
<stop offset="1" stop-color="#A03976"/>
</linearGradient>
<linearGradient id="paint49_linear_168_591" x1="2411.9" y1="1347.63" x2="2302.65" y2="1389.11" gradientUnits="userSpaceOnUse">
<stop stop-color="#311944"/>
<stop offset="1" stop-color="#A03976"/>
</linearGradient>
<linearGradient id="paint50_linear_168_591" x1="2374.94" y1="1675.62" x2="2011.98" y2="1675.62" gradientUnits="userSpaceOnUse">
<stop stop-color="#FF9085"/>
<stop offset="1" stop-color="#FB6FBB"/>
</linearGradient>
<linearGradient id="paint51_linear_168_591" x1="2007.21" y1="1721.09" x2="2047.52" y2="1515.42" gradientUnits="userSpaceOnUse">
<stop stop-color="#311944"/>
<stop offset="1" stop-color="#A03976"/>
</linearGradient>
<clipPath id="clip0_168_591">
<rect width="2901" height="2901" fill="white"/>
</clipPath>
</defs>
</svg>
