<svg width="2901" height="2901" viewBox="0 0 2901 2901" fill="none" xmlns="http://www.w3.org/2000/svg">
<path d="M1270.39 1280.8C1319.28 1305.62 1380.71 1282.83 1407.58 1229.89C1434.46 1176.95 1416.61 1113.92 1367.73 1089.1C1365.19 1087.81 1362.61 1086.73 1360.02 1085.69C1369.1 1056.4 1375.95 1026.88 1380.54 997.349C1383.34 997.342 1386.15 997.294 1389.01 997.039C1444.79 992.067 1489.06 940.814 1487.89 882.556C1486.72 824.3 1440.56 781.103 1384.78 786.076C1381.86 786.337 1379 786.796 1376.15 787.303C1370.33 758.434 1362.34 730.232 1352.27 702.937C1354.84 701.436 1357.39 699.885 1359.89 698.137C1407.61 664.706 1422.86 598.719 1393.96 550.753C1365.06 502.788 1302.95 491.009 1255.23 524.44C1252.78 526.154 1250.48 528.006 1248.21 529.883C1229.36 509.046 1208.69 489.738 1186.32 472.114C1187.89 469.536 1189.43 466.924 1190.83 464.182C1217.7 411.246 1252.82 353.419 1203.55 329.367C1089.57 273.724 1040.66 321.356 1013.78 374.293C1012.39 377.036 1011.19 379.82 1010.03 382.61C982.609 374.953 954.822 369.657 926.878 366.735C927.053 363.792 927.189 360.844 927.129 357.858C925.96 299.603 943.247 268.077 887.257 266.988C765.165 264.615 723.973 317.609 725.141 375.861C725.202 378.906 725.456 381.883 725.758 384.84C697.778 392.816 670.302 403.012 643.555 415.346C642.284 412.746 640.964 410.164 639.455 407.656C610.555 359.691 548.442 347.913 500.719 381.347C452.997 414.782 437.742 480.767 466.642 528.73C468.121 531.189 469.744 533.486 471.391 535.754C450.258 556.889 430.468 579.838 412.179 604.456C409.814 602.973 407.415 601.524 404.882 600.237C355.993 575.415 294.572 598.207 267.697 651.143C240.82 704.079 258.665 767.116 307.552 791.939C310.084 793.225 312.671 794.305 315.265 795.34C306.182 824.631 299.333 854.152 294.74 883.685C291.937 883.693 289.126 883.739 286.272 883.991C230.49 888.966 186.222 940.219 187.39 998.477C188.557 1056.73 234.724 1099.93 290.501 1094.95C293.413 1094.69 296.277 1094.24 299.124 1093.73C304.95 1122.6 312.933 1150.8 323.004 1178.1C320.44 1179.6 317.885 1181.15 315.393 1182.9C267.673 1216.33 252.416 1282.31 281.316 1330.28C310.216 1378.24 405.895 1400.53 453.615 1367.09C456.06 1365.38 424.795 1353.03 427.07 1351.15C445.918 1371.99 466.59 1391.3 488.955 1408.92C487.386 1411.5 485.843 1414.11 484.452 1416.85C457.574 1469.79 475.419 1532.82 524.308 1557.65C573.197 1582.47 634.617 1559.68 661.496 1506.74C662.888 1504 664.087 1501.21 665.242 1498.42C692.666 1506.08 720.454 1511.37 748.399 1514.3C748.224 1517.24 748.088 1520.19 748.148 1523.17C749.315 1581.43 795.48 1624.62 851.258 1619.65C907.034 1614.68 951.305 1563.42 950.136 1505.17C950.075 1502.12 949.821 1499.15 949.517 1496.19C977.497 1488.21 1004.98 1478.02 1031.72 1465.69C1032.99 1468.28 1034.31 1470.87 1035.82 1473.37C1064.72 1521.34 1126.84 1533.12 1174.56 1499.68C1222.28 1466.25 1237.53 1400.26 1208.63 1352.3C1207.15 1349.84 1205.53 1347.54 1203.89 1345.28C1225.02 1324.14 1244.81 1301.19 1263.1 1276.57C1265.46 1278.06 1267.86 1279.51 1270.39 1280.8ZM660.946 1288.53C483.439 1198.41 418.651 969.538 516.238 777.336C613.823 585.134 836.826 502.383 1014.33 592.507C1191.84 682.63 1256.62 911.499 1159.04 1103.7C1061.45 1295.9 838.45 1378.65 660.946 1288.53Z" fill="#BFC8D6"/>
<path d="M1389.01 997.041C1444.79 992.067 1489.06 940.811 1487.89 882.555C1486.72 824.299 1440.56 781.103 1384.78 786.077C1381.86 786.337 1379 786.798 1376.15 787.302C1370.33 758.431 1362.34 730.232 1352.27 702.935C1354.84 701.436 1357.39 699.884 1359.89 698.136C1407.61 664.705 1466.64 583.919 1432.98 539.175C1369.08 454.248 1302.95 491.009 1255.23 524.44C1252.78 526.154 1250.48 528.004 1248.21 529.881C1229.36 509.044 1208.69 489.737 1186.32 472.114C1187.89 469.536 1189.43 466.924 1190.83 464.182C1205.45 435.371 1206.74 403.607 1197.08 376.603C1150.99 457.728 1105.52 539.195 1060.86 621.103C1202.47 724.871 1247.55 929.362 1159.04 1103.7C1084.03 1251.43 934.93 1334.39 789.344 1324C782.849 1340.84 776.474 1357.77 769.518 1374.45C750.646 1419.72 729.206 1464.05 707.74 1508.32C721.241 1510.87 734.801 1512.87 748.399 1514.3C748.224 1517.24 748.088 1520.19 748.148 1523.18C749.315 1581.43 784.684 1630.93 885.774 1625.57C941.694 1622.6 951.303 1563.43 950.136 1505.17C950.075 1502.13 949.821 1499.15 949.519 1496.19C977.498 1488.22 1004.98 1478.02 1031.72 1465.69C1032.99 1468.29 1034.31 1470.87 1035.82 1473.37C1064.72 1521.34 1164.98 1541.72 1212.7 1508.28C1260.42 1474.85 1237.54 1400.27 1208.64 1352.3C1207.15 1349.84 1205.53 1347.55 1203.89 1345.28C1225.02 1324.14 1244.81 1301.19 1263.1 1276.58C1265.46 1278.06 1267.86 1279.51 1270.39 1280.79C1319.28 1305.62 1380.7 1282.82 1407.58 1229.89C1434.46 1176.95 1416.61 1113.92 1367.73 1089.09C1365.19 1087.81 1362.61 1086.73 1360.01 1085.69C1369.1 1056.4 1375.94 1026.88 1380.54 997.35C1383.34 997.342 1386.15 997.294 1389.01 997.041Z" fill="#BFC8D6"/>
<path d="M1322.98 1286.78C1371.86 1311.6 1433.29 1288.81 1460.16 1235.87C1487.04 1182.93 1469.2 1119.9 1420.31 1095.07C1417.78 1093.79 1415.19 1092.71 1412.6 1091.67C1421.68 1062.38 1428.53 1032.86 1433.12 1003.33C1435.92 1003.32 1438.73 1003.27 1441.59 1003.02C1497.37 998.047 1541.64 946.791 1540.47 888.534C1539.3 830.277 1493.14 787.082 1437.36 792.054C1434.45 792.315 1431.58 792.776 1428.74 793.282C1422.91 764.412 1414.93 736.211 1404.85 708.916C1407.42 707.414 1409.97 705.862 1412.47 704.117C1460.19 670.684 1475.44 604.697 1446.54 556.732C1417.64 508.767 1355.53 496.987 1307.81 530.421C1305.36 532.133 1303.06 533.985 1300.79 535.862C1281.94 515.025 1261.27 495.717 1238.9 478.093C1240.47 475.516 1242.02 472.903 1243.41 470.161C1270.29 417.225 1252.44 354.188 1203.55 329.367C1154.66 304.544 1093.24 327.335 1066.36 380.273C1064.97 383.014 1063.77 385.799 1062.62 388.588C1035.19 380.932 1007.41 375.636 979.463 372.714C979.636 369.771 979.771 366.822 979.713 363.837C978.544 305.583 932.381 262.387 876.602 267.36C820.824 272.33 776.556 323.588 777.723 381.841C777.784 384.886 778.039 387.863 778.34 390.82C750.362 398.796 722.883 408.992 696.137 421.325C694.866 418.728 693.546 416.143 692.037 413.635C663.138 365.67 601.023 353.891 553.301 387.326C505.58 420.761 490.326 486.746 519.224 534.711C520.705 537.167 522.327 539.466 523.974 541.733C502.841 562.868 483.049 585.817 464.76 610.437C462.396 608.952 459.997 607.502 457.464 606.217C408.575 581.394 347.155 604.187 320.278 657.124C293.4 710.061 311.245 773.096 360.134 797.918C362.667 799.204 365.252 800.284 367.845 801.318C358.763 830.61 351.912 860.132 347.322 889.664C344.519 889.673 341.706 889.718 338.852 889.971C283.074 894.948 238.803 946.202 239.972 1004.46C241.139 1062.71 287.304 1105.91 343.08 1100.94C345.993 1100.68 348.859 1100.22 351.704 1099.71C357.53 1128.58 365.513 1156.78 375.586 1184.08C373.019 1185.58 370.467 1187.13 367.973 1188.88C320.254 1222.31 304.998 1288.3 333.896 1336.26C362.797 1384.23 424.911 1396 472.631 1362.57C475.076 1360.86 477.378 1359.01 479.649 1357.13C498.5 1377.97 519.17 1397.28 541.538 1414.9C539.965 1417.48 538.425 1420.09 537.035 1422.83C510.155 1475.77 528 1538.8 576.889 1563.63C625.778 1588.45 687.2 1565.66 714.076 1512.72C715.47 1509.98 716.669 1507.19 717.822 1504.4C745.248 1512.06 773.037 1517.36 800.98 1520.28C800.806 1523.22 800.669 1526.17 800.729 1529.16C801.898 1587.41 848.061 1630.61 903.839 1625.63C959.616 1620.66 1003.89 1569.4 1002.72 1511.15C1002.66 1508.11 1002.4 1505.13 1002.1 1502.17C1030.08 1494.2 1057.56 1484 1084.3 1471.67C1085.57 1474.26 1086.89 1476.85 1088.4 1479.35C1117.3 1527.32 1179.42 1539.1 1227.14 1505.67C1274.86 1472.23 1290.12 1406.25 1261.22 1358.28C1259.74 1355.83 1258.11 1353.53 1256.47 1351.26C1277.6 1330.13 1297.39 1307.18 1315.68 1282.56C1318.04 1284.04 1320.44 1285.49 1322.98 1286.78ZM713.529 1294.51C536.023 1204.39 471.236 975.517 568.821 783.313C666.407 591.111 889.409 508.361 1066.91 598.484C1244.42 688.606 1309.21 917.476 1211.62 1109.68C1114.04 1301.88 891.036 1384.63 713.529 1294.51Z" fill="#D8DEE8"/>
<path d="M2054.23 1926.39C1994.19 1927.82 1959.24 1974.41 1939.24 2012.09C1942.02 2017.15 1942.32 2020.77 1943.98 2026.47C1958.99 2077.97 1976.36 2096.74 1999.16 2145.17C2004.07 2155.59 2027.78 2181.8 2038.15 2191.89L2057.8 2210.39C2057.8 2210.39 2194.54 2190.21 2191.7 2111.6C2188.87 2032.99 2316.31 1997.35 2381.49 1970.15C2421.52 1953.44 2434.48 1932.98 2448.2 1924.48C2593.47 1834.52 2662.37 1855.72 2691.64 1797.44C2723.95 1733.11 2649.22 1688.86 2680.67 1617.03C2716.19 1535.91 2835.31 1537.87 2851.76 1453.6C2854.58 1439.15 2857.09 1424.23 2852.98 1405.02C2842.85 1357.62 2801.03 1337.28 2818.9 1289.88C2854.82 1194.62 2825.97 1085.37 2723.08 1064.84C2621.53 1044.57 2520.44 1185.99 2503.63 1415.56C2473.06 1577.45 2446.04 1593.79 2372.9 1620.35C2321.68 1638.96 2170.45 1655.47 2158.92 1749.93C2147.39 1844.39 2122.86 1924.77 2054.23 1926.39Z" fill="url(#paint0_linear_168_662)"/>
<mask id="mask0_168_662" style="mask-type:luminance" maskUnits="userSpaceOnUse" x="1917" y="1062" width="939" height="1147">
<path d="M1917.21 2062.04L2051.54 2208.81C2051.54 2208.81 2194.54 2190.21 2191.7 2111.6C2188.86 2032.99 2316.3 1997.35 2381.49 1970.15C2558.36 1896.34 2435.51 1711.02 2653.95 1597.09C2712.05 1566.78 2834.3 1529.56 2851.76 1453.6C2871.65 1367.05 2795.92 1350.83 2818.9 1289.88C2854.82 1194.62 2825.97 1085.37 2723.08 1064.84C2621.53 1044.57 2520.44 1186 2503.63 1415.56C2473.06 1577.45 2446.04 1593.79 2372.9 1620.35C2321.67 1638.96 2170.45 1655.47 2158.92 1749.93C2147.39 1844.4 2122.86 1924.77 2054.23 1926.4C1949.79 1928.87 1917.21 2062.04 1917.21 2062.04Z" fill="white"/>
</mask>
<g mask="url(#mask0_168_662)">
<g opacity="0.5">
<path d="M1983.85 2121.75L1986.15 2124.95C2003.95 2112.42 2021.74 2099.54 2039.02 2086.68C2166.94 1991.44 2280.57 1886.81 2376.74 1775.68C2458.23 1681.52 2528.36 1581.4 2585.17 1478.09C2630.87 1395.01 2668.24 1309.43 2696.25 1223.72C2715.94 1163.47 2730.84 1103.78 2740.53 1046.3C2742.22 1036.29 2743.39 1025.91 2744.52 1015.87C2746.02 1002.49 2747.58 988.663 2750.38 975.591L2746.69 974.511C2743.85 987.763 2742.28 1001.69 2740.77 1015.15C2739.64 1025.14 2738.48 1035.47 2736.81 1045.38C2727.15 1102.68 2712.3 1162.19 2692.66 1222.27C2664.72 1307.76 2627.43 1393.14 2581.85 1476.03C2525.15 1579.13 2455.16 1679.06 2373.83 1773.03C2277.82 1883.97 2164.37 1988.43 2036.65 2083.52C2019.4 2096.37 2001.63 2109.23 1983.85 2121.75Z" fill="#FCFDFE"/>
<path d="M2507.39 1598.41L2510.5 1600.8C2601.93 1472.37 2865.89 1406.04 2868.55 1405.39L2867.4 1401.65C2864.74 1402.31 2599.55 1468.94 2507.39 1598.41Z" fill="#FCFDFE"/>
<path d="M2218.88 1932.47L2221.72 1935.19C2294.47 1856.09 2264.61 1640.31 2264.3 1638.14L2260.57 1638.4C2260.88 1640.56 2290.5 1854.6 2218.88 1932.47Z" fill="#FCFDFE"/>
<path d="M2173.5 1973.42L2175.86 1976.58C2232.25 1935.01 2333.32 1910.69 2460.47 1908.1C2466.86 1907.97 2466.86 1907.97 2467.42 1907.57L2465.1 1904.38L2466.26 1905.98L2465.74 1904.11C2465.32 1904.16 2462.91 1904.21 2460.11 1904.27C2332.24 1906.87 2230.45 1931.42 2173.5 1973.42Z" fill="#FCFDFE"/>
<path d="M2015.99 2098.38L2019.09 2100.79C2064.34 2037.81 2030.77 1920.46 2030.43 1919.29L2026.82 1920.12C2027.15 1921.28 2060.2 2036.84 2015.99 2098.38Z" fill="#FCFDFE"/>
<path d="M1986.48 2127.08C2047.66 2111.96 2116.45 2114.58 2196.76 2135.09L2197.42 2131.38C2116.49 2110.71 2047.11 2108.09 1985.34 2123.35L1986.48 2127.08Z" fill="#FCFDFE"/>
<path d="M2675.33 1272.41L2678.55 1274.64C2725.25 1200.04 2792.17 1134.01 2814.16 1112.31C2819.49 1107.05 2821.36 1105.2 2821.89 1104.43L2818.74 1102.07C2818.33 1102.66 2815.29 1105.66 2811.43 1109.46C2789.37 1131.23 2722.23 1197.47 2675.33 1272.41Z" fill="#FCFDFE"/>
<path d="M2617.95 1406.49L2621.61 1407.7C2642.16 1326.16 2554.79 1172.81 2551.06 1166.32L2547.84 1168.06C2548.75 1169.64 2638.12 1326.47 2617.95 1406.49Z" fill="#FCFDFE"/>
</g>
</g>
<path d="M1973.28 1828.14C1982.96 1837.75 1921.09 1955.55 2015.77 1931.52C2039.42 1925.51 2107.18 1886.76 2171.72 1963.56C2184.25 1978.46 2196.78 1993.37 2209.3 2008.28C2254.06 1994.55 2293.7 1973.32 2270.53 1916.49C2234.55 1828.22 2355.08 1733.91 2413.76 1721.05C2486.38 1705.14 2654.52 1664.55 2600.99 1527.34C2556.43 1413.12 2504.83 1347.18 2614.06 1253.89C2723.3 1160.6 2743.56 1041.16 2651.94 937.849C2555.52 829.127 2627.55 625.264 2505.84 568.62C2293.76 469.925 2157.28 808.817 2239.28 1062.41C2321.27 1316 2164.12 1254.13 2066.38 1319.81C2057.66 1326.42 2044.64 1337.34 2031.72 1353.15C1952.17 1450.48 2014.35 1564.34 1991.62 1698.28C1960.62 1880.96 1956.96 1811.96 1973.28 1828.14Z" fill="url(#paint1_linear_168_662)"/>
<mask id="mask1_168_662" style="mask-type:luminance" maskUnits="userSpaceOnUse" x="1978" y="551" width="732" height="1470">
<path d="M1978.87 1773.33L2175.25 2020.64C2220.12 2009.22 2296.41 1979.98 2270.53 1916.49C2234.55 1828.23 2355.08 1733.92 2413.76 1721.06C2486.38 1705.14 2654.52 1664.55 2600.99 1527.34C2556.43 1413.12 2504.83 1347.19 2614.06 1253.89C2723.3 1160.6 2743.56 1041.16 2651.94 937.851C2555.52 829.13 2627.55 625.266 2505.83 568.624C2293.76 469.928 2157.28 808.82 2239.28 1062.41C2321.27 1316 2164.12 1254.13 2066.38 1319.81C1932.96 1409.48 2101.52 1569.42 2088.66 1655.23C2078.58 1722.51 2018.87 1756.77 1978.87 1773.33Z" fill="white"/>
</mask>
<g mask="url(#mask1_168_662)">
<g opacity="0.5">
<path d="M2108.49 1861.08L2113.65 1865.58C2420.71 1506.32 2543.04 989.35 2432.9 516.405L2426.42 517.556C2536.09 988.508 2414.27 1503.32 2108.49 1861.08Z" fill="#FCFDFE"/>
<path d="M2258.27 1649.87L2262.5 1655.24C2410.09 1542.34 2629.25 1586.58 2631.45 1587.04L2632.45 1580.52C2630.22 1580.05 2408.19 1535.18 2258.27 1649.87Z" fill="#FCFDFE"/>
<path d="M2163.08 1793.34L2169.24 1796.21C2242.39 1621.11 2037.01 1322.29 2034.92 1319.29L2029.53 1322.88C2031.59 1325.84 2234.84 1621.57 2163.08 1793.34Z" fill="#FCFDFE"/>
<path d="M2427.65 1214.35L2433.58 1217.72C2503.55 1084.97 2729.69 1031.18 2731.97 1030.65L2730.12 1024.16C2727.81 1024.69 2498.92 1079.15 2427.65 1214.35Z" fill="#FCFDFE"/>
<path d="M2465.95 910.266L2472.55 909.735C2448.42 734.951 2262.23 578.082 2260.35 576.517L2256.27 581.533C2258.13 583.077 2442.21 738.205 2465.95 910.266Z" fill="#FCFDFE"/>
</g>
</g>
<path d="M1158.14 2469.69V2568.15L1158.28 2568.15C1164.31 2627.58 1412.87 2736.72 1773.88 2738.74C2304.7 2741.71 2483.96 2623.17 2492.3 2562.48H2492.5V2471.75L1158.14 2469.69Z" fill="url(#paint2_linear_168_662)"/>
<path d="M2492.5 2472.12C2492.5 2533.32 2186.23 2581.65 1814.53 2580.09C1449.41 2578.56 1158.13 2529.3 1158.13 2470.04C1158.13 2410.79 1449.41 2362.43 1814.53 2362.03C2186.23 2361.63 2492.5 2410.91 2492.5 2472.12Z" fill="url(#paint3_linear_168_662)"/>
<path d="M2487.33 2464.67C2487.33 2525.41 2183.4 2573.48 1814.45 2572.06C1451.93 2570.65 1162.66 2521.83 1162.66 2462.99C1162.66 2404.15 1451.93 2356.07 1814.45 2355.58C2183.4 2355.09 2487.33 2403.92 2487.33 2464.67Z" fill="url(#paint4_linear_168_662)"/>
<path d="M2492.5 2562.48V2471.75L1158.14 2469.69V2568.15L2492.5 2562.48Z" fill="url(#paint5_linear_168_662)"/>
<path d="M2492.5 2472.12C2492.5 2533.32 2186.23 2581.65 1814.53 2580.09C1449.41 2578.56 1158.13 2529.3 1158.13 2470.04C1158.13 2410.79 1449.41 2362.43 1814.53 2362.03C2186.23 2361.63 2492.5 2410.91 2492.5 2472.12Z" fill="url(#paint6_linear_168_662)"/>
<path d="M2487.33 2464.67C2487.33 2525.41 2183.4 2573.48 1814.45 2572.06C1451.93 2570.65 1162.66 2521.83 1162.66 2462.99C1162.66 2404.15 1451.93 2356.07 1814.45 2355.58C2183.4 2355.09 2487.33 2403.92 2487.33 2464.67Z" fill="url(#paint7_linear_168_662)"/>
<path d="M1158.14 2283.08V2381.54L1158.28 2381.54C1164.31 2440.97 1412.87 2544.94 1773.88 2543.08C2345.97 2540.14 2483.96 2436.56 2492.3 2375.87H2492.5V2285.14L1158.14 2283.08Z" fill="url(#paint8_linear_168_662)"/>
<path d="M2492.5 2285.51C2492.5 2346.71 2186.23 2395.04 1814.53 2393.48C1449.41 2391.95 1158.13 2342.69 1158.13 2283.43C1158.13 2224.17 1449.41 2175.82 1814.53 2175.42C2186.23 2175.02 2492.5 2224.3 2492.5 2285.51Z" fill="url(#paint9_linear_168_662)"/>
<path d="M2487.33 2278.06C2487.33 2338.8 2183.4 2386.87 1814.45 2385.44C1451.93 2384.04 1162.66 2335.22 1162.66 2276.38C1162.66 2217.54 1451.93 2169.46 1814.45 2168.97C2183.4 2168.48 2487.33 2217.31 2487.33 2278.06Z" fill="url(#paint10_linear_168_662)"/>
<path d="M2492.5 2375.87V2285.14L1158.14 2283.08V2381.54L2492.5 2375.87Z" fill="url(#paint11_linear_168_662)"/>
<path d="M2492.5 2285.51C2492.5 2346.71 2186.23 2395.04 1814.53 2393.48C1449.41 2391.95 1158.13 2342.69 1158.13 2283.43C1158.13 2224.17 1449.41 2175.82 1814.53 2175.42C2186.23 2175.02 2492.5 2224.3 2492.5 2285.51Z" fill="url(#paint12_linear_168_662)"/>
<path d="M2487.33 2278.06C2487.33 2338.8 2183.4 2386.87 1814.45 2385.44C1451.93 2384.04 1162.66 2335.22 1162.66 2276.38C1162.66 2217.54 1451.93 2169.46 1814.45 2168.97C2183.4 2168.48 2487.33 2217.31 2487.33 2278.06Z" fill="url(#paint13_linear_168_662)"/>
<path d="M1158.14 2096.01V2194.47L1158.28 2194.47C1164.31 2253.9 1412.87 2357.87 1773.88 2356.01C2345.97 2353.07 2483.96 2249.49 2492.3 2188.8H2492.5V2098.07L1158.14 2096.01Z" fill="url(#paint14_linear_168_662)"/>
<path d="M2492.5 2098.44C2492.5 2159.64 2186.23 2207.97 1814.53 2206.41C1449.41 2204.88 1158.13 2155.62 1158.13 2096.36C1158.13 2037.11 1449.41 1988.75 1814.53 1988.36C2186.23 1987.95 2492.5 2037.23 2492.5 2098.44Z" fill="url(#paint15_linear_168_662)"/>
<path d="M2487.33 2090.99C2487.33 2151.74 2183.4 2199.8 1814.45 2198.38C1451.93 2196.97 1162.66 2148.16 1162.66 2089.32C1162.66 2030.47 1451.93 1982.39 1814.45 1981.9C2183.4 1981.41 2487.33 2030.25 2487.33 2090.99Z" fill="url(#paint16_linear_168_662)"/>
<path d="M2492.5 2188.8V2098.07L1158.14 2096.01V2194.47L2492.5 2188.8Z" fill="url(#paint17_linear_168_662)"/>
<path d="M2492.5 2098.44C2492.5 2159.64 2186.23 2207.97 1814.53 2206.41C1449.41 2204.88 1158.13 2155.62 1158.13 2096.36C1158.13 2037.11 1449.41 1988.75 1814.53 1988.36C2186.23 1987.95 2492.5 2037.23 2492.5 2098.44Z" fill="url(#paint18_linear_168_662)"/>
<path d="M2487.33 2090.99C2487.33 2151.74 2183.4 2199.8 1814.45 2198.38C1451.93 2196.97 1162.66 2148.16 1162.66 2089.32C1162.66 2030.47 1451.93 1982.39 1814.45 1981.9C2183.4 1981.41 2487.33 2030.25 2487.33 2090.99Z" fill="url(#paint19_linear_168_662)"/>
<path d="M1158.14 1908.94V2007.4L1158.28 2007.4C1164.31 2066.83 1412.87 2170.8 1773.88 2168.94C2345.97 2166 2483.96 2062.42 2492.3 2001.73H2492.5V1911L1158.14 1908.94Z" fill="url(#paint20_linear_168_662)"/>
<path d="M2492.5 1911.37C2492.5 1972.57 2186.23 2020.9 1814.53 2019.34C1449.41 2017.81 1158.13 1968.55 1158.13 1909.29C1158.13 1850.03 1449.41 1801.68 1814.53 1801.28C2186.23 1800.88 2492.5 1850.16 2492.5 1911.37Z" fill="url(#paint21_linear_168_662)"/>
<path d="M2487.33 1903.92C2487.33 1964.66 2183.4 2012.73 1814.45 2011.31C1451.93 2009.9 1162.66 1961.09 1162.66 1902.25C1162.66 1843.4 1451.93 1795.32 1814.45 1794.83C2183.4 1794.34 2487.33 1843.17 2487.33 1903.92Z" fill="url(#paint22_linear_168_662)"/>
<path d="M2492.5 2001.73V1911L1158.14 1908.94V2007.4L2492.5 2001.73Z" fill="url(#paint23_linear_168_662)"/>
<path d="M2492.5 1911.37C2492.5 1972.57 2186.23 2020.9 1814.53 2019.34C1449.41 2017.81 1158.13 1968.55 1158.13 1909.29C1158.13 1850.03 1449.41 1801.68 1814.53 1801.28C2186.23 1800.88 2492.5 1850.16 2492.5 1911.37Z" fill="url(#paint24_linear_168_662)"/>
<path d="M2487.33 1903.92C2487.33 1964.66 2183.4 2012.73 1814.45 2011.31C1451.93 2009.9 1162.66 1961.09 1162.66 1902.25C1162.66 1843.4 1451.93 1795.32 1814.45 1794.83C2183.4 1794.34 2487.33 1843.17 2487.33 1903.92Z" fill="url(#paint25_linear_168_662)"/>
<path d="M1158.14 1721.87V1820.33L1158.28 1820.33C1164.31 1879.76 1412.87 1983.73 1773.88 1981.87C2345.97 1978.93 2483.96 1875.35 2492.3 1814.66H2492.5V1723.93L1158.14 1721.87Z" fill="url(#paint26_linear_168_662)"/>
<path d="M2492.5 1724.3C2492.5 1785.5 2186.23 1833.83 1814.53 1832.27C1449.41 1830.74 1158.13 1781.48 1158.13 1722.22C1158.13 1662.96 1449.41 1614.61 1814.53 1614.21C2186.23 1613.81 2492.5 1663.09 2492.5 1724.3Z" fill="url(#paint27_linear_168_662)"/>
<path d="M2487.33 1716.85C2487.33 1777.59 2183.4 1825.66 1814.45 1824.24C1451.93 1822.83 1162.66 1774.02 1162.66 1715.17C1162.66 1656.33 1451.93 1608.25 1814.45 1607.76C2183.4 1607.27 2487.33 1656.11 2487.33 1716.85Z" fill="url(#paint28_linear_168_662)"/>
<path d="M2492.5 1814.66V1723.93L1158.14 1721.87V1820.33L2492.5 1814.66Z" fill="url(#paint29_linear_168_662)"/>
<path d="M2492.5 1724.3C2492.5 1785.5 2186.23 1833.83 1814.53 1832.27C1449.41 1830.74 1158.13 1781.48 1158.13 1722.22C1158.13 1662.96 1449.41 1614.61 1814.53 1614.21C2186.23 1613.81 2492.5 1663.09 2492.5 1724.3Z" fill="url(#paint30_linear_168_662)"/>
<path d="M2487.33 1716.85C2487.33 1777.59 2183.4 1825.66 1814.45 1824.24C1451.93 1822.83 1162.66 1774.02 1162.66 1715.17C1162.66 1656.33 1451.93 1608.25 1814.45 1607.76C2183.4 1607.27 2487.33 1656.11 2487.33 1716.85Z" fill="url(#paint31_linear_168_662)"/>
<path d="M1158.14 1534.8V1633.26L1158.28 1633.26C1164.31 1692.69 1412.87 1796.66 1773.88 1794.8C2345.97 1791.86 2483.96 1688.28 2492.3 1627.59H2492.5V1536.86L1158.14 1534.8Z" fill="url(#paint32_linear_168_662)"/>
<path d="M2492.5 1537.23C2492.5 1598.43 2186.23 1646.76 1814.53 1645.2C1449.41 1643.67 1158.13 1594.41 1158.13 1535.15C1158.13 1475.9 1449.41 1427.54 1814.53 1427.15C2186.23 1426.74 2492.5 1476.03 2492.5 1537.23Z" fill="url(#paint33_linear_168_662)"/>
<path d="M2487.33 1529.78C2487.33 1590.53 2183.4 1638.59 1814.45 1637.17C1451.93 1635.77 1162.66 1586.95 1162.66 1528.11C1162.66 1469.27 1451.93 1421.18 1814.45 1420.69C2183.4 1420.2 2487.33 1469.04 2487.33 1529.78Z" fill="url(#paint34_linear_168_662)"/>
<path d="M2492.5 1627.59V1536.86L1158.14 1534.8V1633.26L2492.5 1627.59Z" fill="url(#paint35_linear_168_662)"/>
<path d="M2492.5 1537.23C2492.5 1598.43 2186.23 1646.76 1814.53 1645.2C1449.41 1643.67 1158.13 1594.41 1158.13 1535.15C1158.13 1475.9 1449.41 1427.54 1814.53 1427.15C2186.23 1426.74 2492.5 1476.03 2492.5 1537.23Z" fill="url(#paint36_linear_168_662)"/>
<path d="M2487.33 1529.78C2487.33 1590.53 2183.4 1638.59 1814.45 1637.17C1451.93 1635.77 1162.66 1586.95 1162.66 1528.11C1162.66 1469.27 1451.93 1421.18 1814.45 1420.69C2183.4 1420.2 2487.33 1469.04 2487.33 1529.78Z" fill="url(#paint37_linear_168_662)"/>
<path d="M1158.14 1347.73V1446.19L1158.28 1446.2C1164.31 1505.62 1412.87 1609.59 1773.88 1607.73C2345.97 1604.79 2483.96 1501.21 2492.3 1440.52H2492.5V1349.79L1158.14 1347.73Z" fill="url(#paint38_linear_168_662)"/>
<path d="M2492.5 1350.16C2492.5 1411.36 2186.23 1459.69 1814.53 1458.13C1449.41 1456.6 1158.13 1407.34 1158.13 1348.08C1158.13 1288.83 1449.41 1240.47 1814.53 1240.08C2186.23 1239.67 2492.5 1288.95 2492.5 1350.16Z" fill="url(#paint39_linear_168_662)"/>
<path d="M2487.33 1342.71C2487.33 1403.46 2183.4 1451.52 1814.45 1450.1C1451.93 1448.69 1162.66 1399.88 1162.66 1341.03C1162.66 1282.19 1451.93 1234.11 1814.45 1233.62C2183.4 1233.13 2487.33 1281.97 2487.33 1342.71Z" fill="url(#paint40_linear_168_662)"/>
<path d="M2492.5 1440.52V1349.79L1158.14 1347.73V1446.19L2492.5 1440.52Z" fill="url(#paint41_linear_168_662)"/>
<path d="M2492.5 1350.16C2492.5 1411.36 2186.23 1459.69 1814.53 1458.13C1449.41 1456.6 1158.13 1407.34 1158.13 1348.08C1158.13 1288.83 1449.41 1240.47 1814.53 1240.08C2186.23 1239.67 2492.5 1288.95 2492.5 1350.16Z" fill="url(#paint42_linear_168_662)"/>
<path d="M2487.33 1342.71C2487.33 1403.46 2183.4 1451.52 1814.45 1450.1C1451.93 1448.69 1162.66 1399.88 1162.66 1341.03C1162.66 1282.19 1451.93 1234.11 1814.45 1233.62C2183.4 1233.13 2487.33 1281.97 2487.33 1342.71Z" fill="url(#paint43_linear_168_662)"/>
<path opacity="0.62" d="M2677.72 127.621C2677.72 97.8633 2296.09 73.7383 1825.32 73.7383C1354.55 73.7383 972.917 97.8633 972.917 127.621C972.917 128.771 973.555 129.911 974.677 131.043L1449.35 1339.29C1449.35 1369.05 1617.68 1393.17 1825.32 1393.17C2032.96 1393.17 2201.29 1369.05 2201.29 1339.29L2675.96 131.043C2677.08 129.911 2677.72 128.771 2677.72 127.621Z" fill="white"/>
<path d="M1839.84 1366C1814.24 1366.74 1789.26 1360.29 1767.63 1347.32C1701.72 1307.81 1604.34 1242.57 1516.72 1157.16C1405.55 1048.78 1341.67 938.616 1327.69 830.437L1327.48 828.742L1324.76 367.145C1324.76 275.92 1384.27 201.869 1495.98 153.21C1588.27 113.009 1710.61 93.0891 1839.84 96.8301C1967.57 100.527 2085.77 126.882 2173.25 170.796C2277.24 222.999 2331.8 296.36 2331.8 383.337L2329.33 824.396L2329.13 826.018C2316.36 929.61 2257.59 1036.69 2153.71 1144.97C2070.39 1231.82 1976.24 1300.64 1911.58 1343.29C1890.19 1357.4 1865.39 1365.26 1839.84 1366Z" fill="url(#paint44_linear_168_662)"/>
<path d="M1865.19 1366C1839.93 1366.74 1815.28 1360.29 1793.93 1347.32C1728.9 1307.81 1632.8 1242.57 1546.34 1157.16C1436.63 1048.78 1373.6 938.616 1359.81 830.437L1359.59 828.742L1356.92 367.145C1356.92 275.92 1415.63 201.869 1525.87 153.21C1616.95 113.009 1737.66 93.0891 1865.19 96.8301C1991.24 100.527 2107.87 126.882 2194.19 170.796C2296.81 222.999 2350.65 296.36 2350.65 383.337L2348.21 824.396L2348.02 826.018C2335.41 929.61 2277.42 1036.69 2174.91 1144.97C2092.7 1231.82 1999.79 1300.64 1935.98 1343.29C1914.87 1357.4 1890.4 1365.26 1865.19 1366Z" fill="url(#paint45_linear_168_662)"/>
<path d="M1387.4 367.477L1390.09 826.742C1420.32 1061.07 1695.71 1250.79 1815.65 1322.87C1850.01 1343.52 1893.94 1342.29 1928.06 1319.85C2045.49 1242.57 2305.8 1048.02 2333.61 822.728L2336.08 382.885C2336.08 56.5569 1387.4 26.724 1387.4 367.477Z" fill="url(#paint46_linear_168_662)"/>
<path d="M1872 1252.08C1869.8 1252.13 1866.47 1251.76 1863.11 1249.73C1813.73 1219.82 1717.99 1157.18 1634.71 1075.37C1544.75 987.009 1492.87 901.096 1480.97 820.406L1478.33 368.746C1478.44 325.41 1512.75 288.32 1579.99 258.643C1655.06 225.511 1761.67 208.127 1872 210.747C1981.23 213.341 2084.73 235.329 2156.43 270.909C2219.85 302.379 2251.92 339.48 2252.02 381.318L2249.56 817.341C2238.46 895.423 2189.76 979.599 2104.26 1068.08C2023.87 1151.28 1929.96 1217.24 1880.88 1249.31C1877.52 1251.5 1874.2 1252.03 1872 1252.08Z" fill="url(#paint47_linear_168_662)"/>
<path d="M1860.73 1221.21C1810.85 1190.49 1722.17 1131.18 1644.79 1055.03C1560.25 971.825 1511.33 891.986 1499.83 818.111L1497.21 369.074C1497.29 338.089 1525.77 309.666 1581.65 284.927C1652.76 253.439 1754.64 236.847 1860.73 239.228C1965.79 241.587 2064.82 262.338 2132.87 296.01C2185.75 322.171 2212.5 350.71 2212.57 380.929L2210.12 815.348C2199.33 887.024 2153.18 965.412 2072.49 1048.78C1997.57 1126.17 1910.38 1188.41 1860.73 1221.21Z" fill="url(#paint48_linear_168_662)"/>
<path d="M2039.18 633.297L1703.34 636.284C1677.52 636.514 1656.49 656.64 1656.49 681.223V896.401C1656.49 920.84 1677.44 939.783 1703.17 938.73L2037.82 925.027C2061.63 924.053 2080.93 904.347 2081.05 880.997L2082.12 675.438C2082.24 651.958 2063.07 633.085 2039.18 633.297Z" fill="white"/>
<path d="M2034.46 611.953C2024.38 612.019 2016.22 604.006 2016.26 594.053L2016.47 547.18C2016.67 500.103 1977.75 461.375 1929.25 460.893L1819.63 459.805C1769.43 459.306 1728.15 498.451 1728.11 547.016L1728.07 595.37C1728.06 605.637 1719.32 614.016 1708.52 614.087C1697.7 614.157 1688.92 605.86 1688.92 595.549L1688.94 546.994C1688.97 477.584 1748.08 421.848 1819.7 422.843L1929.37 424.368C1998.27 425.325 2053.3 480.466 2052.98 547.2L2052.76 593.886C2052.71 603.799 2044.53 611.887 2034.46 611.953Z" fill="white"/>
<path d="M1917.21 756.688C1917.29 732.924 1896.89 714.136 1871.98 715.712C1849.93 717.105 1831.64 734.913 1830.4 756.284C1829.44 772.86 1838.41 787.22 1852.06 794.509C1857.86 797.608 1860.73 804.105 1859.58 810.518L1849.88 864.875C1848.64 871.794 1854.13 877.881 1861.36 877.628L1885.93 876.765C1893.11 876.514 1898.57 870.077 1897.39 863.276L1888 809.435C1886.87 803.006 1890.19 796.632 1896.01 793.129C1908.67 785.515 1917.16 771.965 1917.21 756.688Z" fill="url(#paint49_linear_168_662)"/>
<path opacity="0.5" d="M1089.37 93.2351C1164.99 309.674 1498.98 1121.44 1588.67 1381.16C1643.3 1387.51 1710.59 1391.7 1784.28 1392.85L1560.16 78.9951C1378.99 80.5361 1215.87 85.6741 1089.37 93.2351Z" fill="white"/>
<path opacity="0.5" d="M2283.1 91.6836C2250.22 311.179 2100.03 1129.32 2060.07 1381.37C2102.76 1376.48 2137.83 1370.28 2162.34 1363.19C2229.23 1110.06 2427.14 329.966 2487.33 101.087C2427.28 97.3486 2358.5 94.1706 2283.1 91.6836Z" fill="white"/>
<path d="M1040.28 1118.35C1134.88 1146.95 1255.91 1258.26 1319.2 1319.29C1465.17 1460.04 1739.22 1934.92 1579.55 2104.51C1470.92 2219.89 1280.02 2171.4 1195.85 2055.08C1133.95 1969.52 1171.44 1891.65 1184.47 1737.61C1198.49 1571.86 1139.09 1282.12 1040.28 1118.35Z" fill="url(#paint50_linear_168_662)"/>
<path d="M1119.99 1164.01C1185.21 1241.46 1208.09 1234.99 1258.91 1341.62C1335.49 1502.27 1279.09 1685.89 1271.05 1883.75C1262.23 2100.8 1270.91 2504.79 1380 2713.55C1381.9 2717.19 1382.83 2717.95 1382.75 2723.39C1379.41 2944.74 333.59 2789.67 335.249 2708.84C343.48 2307.41 604.948 1428.31 540.182 1137.55C569.583 1137.02 627.75 1106.32 651.42 1099.7C752.986 1071.29 844.696 1066.5 940.735 1079.58C975.868 1084.36 993.55 1092.44 1019.19 1102.29C1060.84 1118.3 1087.71 1142.07 1119.99 1164.01Z" fill="url(#paint51_linear_168_662)"/>
<path d="M747.789 858.094C749.164 925.476 727.053 1022.58 718.337 1083.01C709.621 1143.44 833.132 1145.99 873.5 1117.96C910.57 1092.23 882.664 1022.45 846.9 985.832C811.133 949.211 784.31 895.58 747.789 858.094Z" fill="url(#paint52_linear_168_662)"/>
<path d="M933.573 837.008C990.503 786.755 1000.95 608.475 943.253 573.569C915.275 556.642 866.488 644.564 834.747 661.528C792.123 684.31 676.444 709.651 653.522 755.337C636.235 789.79 670.959 861.209 684.902 886.746C700.676 915.637 702.538 905.76 721.476 926.263C747.739 954.693 782.727 987.975 809.401 1019.86C815.177 995.623 813.651 995.637 823.841 964.318C827.758 952.273 859.191 901.372 874.469 881.733C884.176 869.254 926.6 843.163 933.573 837.008Z" fill="url(#paint53_linear_168_662)"/>
<path d="M751.028 975.647C794.82 1016.15 816.221 1065.43 895.645 1050.66C966.755 1037.44 978.677 859.893 914.006 807.515C892.433 790.042 860.925 790.234 834.12 798.209C818.29 802.919 801.752 813.465 785.929 819.524C771.336 825.112 759.015 818.322 745.619 833.121C728.858 851.637 740.234 898.866 749.839 921.693C742.495 915.251 734.22 906.173 724.596 903.18C717.81 901.069 706.02 889.806 699.619 899.563C689.169 915.495 711.832 945.869 725.135 958.366C731.224 964.085 743.585 971.105 751.028 975.647Z" fill="url(#paint54_linear_168_662)"/>
<path d="M740.493 821.764C750.235 827.39 732.901 845.368 735.502 863.161C740.548 897.707 751.578 960.074 801.996 966.114C831.802 969.685 863.034 943.074 894.282 939.882C913.628 937.906 934.978 938.951 954.221 944.137C966.669 981.334 967.181 1039.87 934.924 1062.92C900.183 1087.73 877.413 1074.83 840.521 1064.19C815.836 1057.07 788.594 1035.76 773.072 1011.54C756.9 986.316 745.032 959.818 728.989 933.271C720.131 918.612 709.406 900.256 698.973 884.878C696.14 880.701 691.815 874.016 689.767 868.479C698.14 860.429 726.395 813.62 740.493 821.764Z" fill="url(#paint55_linear_168_662)"/>
<path d="M914.965 969.591C900.294 977.782 883.086 977.718 867.125 977.944C866.349 977.955 862.905 976.596 864.23 979.499C869.21 990.415 890.808 994.178 901.772 991.019C909.558 988.776 922.721 979.279 921.312 970.763C920.719 967.169 916.432 970.347 914.965 969.591Z" fill="url(#paint56_linear_168_662)"/>
<path opacity="0.3" d="M1028.19 2443.9C1056.27 2412.2 1100.91 2361.79 1103.56 2291.41C1110.37 2110.47 830.476 2040 841.492 1892.76C850.054 1778.3 1021.39 1791.2 1118.89 1588.04C1135.63 1553.16 1196.88 1420.59 1152.46 1270.46C1134.72 1210.5 1105.57 1166.15 1083.8 1138.29C1095.83 1146.77 1107.51 1155.52 1119.99 1164.01C1185.2 1241.46 1208.09 1234.99 1258.92 1341.62C1335.49 1502.27 1279.09 1685.89 1271.05 1883.75C1262.24 2100.79 1270.91 2504.78 1380 2713.55C1381.9 2717.19 1383.18 2719.55 1382.75 2723.39C1358.35 2943.41 333.592 2789.67 335.25 2708.84C336.243 2660.44 340.943 2605.05 348.282 2544.63C384.611 2554.64 827.202 2670.86 1028.19 2443.9Z" fill="url(#paint57_linear_168_662)"/>
<path d="M1321.98 1748.86C1379.19 1745.99 1339.67 1711.4 1357 1716.43C1367.85 1719.58 1633.3 1980.57 1549.65 2118.27C1469.87 2249.58 1138.46 2160.53 1021.68 2118.89C956.78 2095.75 764.037 2024.07 646.969 1837.63C636.449 1820.88 628.569 1806.43 623.342 1796.37C879.177 1762.81 1001.7 1754.77 1065.88 1754.41C1107.05 1754.19 1148.57 1757.54 1321.98 1748.86Z" fill="url(#paint58_linear_168_662)"/>
<path d="M1225.29 1722.36C1218.07 1779.99 1188.3 1957.9 1038.06 2103.69C1008.19 2132.68 805.553 2322.7 521.457 2274.81C299.459 2237.39 101.764 2067.33 56.0659 1854.93C-33.1451 1440.28 496.682 1074.47 618.356 1137.2C700.034 1179.31 723.346 1479.27 601.1 1630.86C574.531 1663.8 525.134 1709.52 532.788 1766.93C540.137 1822.05 595.942 1856.85 627.55 1875.97C776.644 1966.18 1103.28 1733.35 1189.69 1714.24C1195.92 1714.05 1200.61 1708.15 1225.29 1722.36Z" fill="url(#paint59_linear_168_662)"/>
<path opacity="0.3" d="M432.648 1628.91C484.13 1576.76 543.772 1549.3 610.843 1528.68C627.587 1524.15 644.342 1519.95 660.916 1515.62C647.209 1558.24 627.574 1598.03 601.1 1630.86C574.53 1663.8 525.132 1709.52 532.787 1766.93C540.136 1822.05 595.94 1856.85 627.549 1875.97C776.644 1966.18 1103.27 1733.35 1189.69 1714.24C1195.92 1714.05 1200.61 1708.14 1225.28 1722.36C1223.48 1736.81 1220.25 1758.82 1214.06 1785.99C1091.46 1746.73 958.466 1869.73 852.454 1929.85C716.204 2006.92 546.67 2056.75 413.822 1954.96C314.26 1880.39 350.363 1714.49 432.648 1628.91Z" fill="url(#paint60_linear_168_662)"/>
<path opacity="0.3" d="M367.514 1224.48C390.758 1302.63 393.563 1381.78 346.983 1457.27C279.849 1563.67 204.848 1652.53 177.551 1771.61C153.093 1872.69 167.888 1972.17 196.957 2071.07C205.395 2097.4 218.448 2120.21 234.473 2140.7C145.57 2065.68 79.9863 1966.11 56.0663 1854.93C-0.118701 1593.79 189.225 1352.03 367.514 1224.48Z" fill="url(#paint61_linear_168_662)"/>
<path d="M646.97 1837.63C639.881 1854.58 604.861 1871.96 587.865 1869.99C559.368 1866.69 539.253 1847.28 521.386 1838.81C505.425 1831.26 469.791 1821 467.654 1808.32C463.607 1784.32 502.538 1777.56 525.376 1775.24C557.392 1771.99 591.543 1781.33 623.345 1796.37C631.248 1810.26 640.118 1823.88 646.97 1837.63Z" fill="url(#paint62_linear_168_662)"/>
<path d="M1276.52 1751C1164.71 1766.7 1138.86 1758.99 1135.76 1749.13C1131.8 1736.56 1161.94 1711.12 1194.11 1706.74C1226.76 1702.3 1259.89 1719.77 1276.52 1751Z" fill="url(#paint63_linear_168_662)"/>
<defs>
<linearGradient id="paint0_linear_168_662" x1="2879.07" y1="1152.05" x2="1934.78" y2="2400.04" gradientUnits="userSpaceOnUse">
<stop stop-color="#FFC444"/>
<stop offset="0.5135" stop-color="#F9984D"/>
<stop offset="0.9964" stop-color="#F36F56"/>
</linearGradient>
<linearGradient id="paint1_linear_168_662" x1="2580.82" y1="754.846" x2="2112.87" y2="1996.61" gradientUnits="userSpaceOnUse">
<stop stop-color="#FF9085"/>
<stop offset="1" stop-color="#FB6FBB"/>
</linearGradient>
<linearGradient id="paint2_linear_168_662" x1="1418.51" y1="2208.63" x2="1983.84" y2="2652.02" gradientUnits="userSpaceOnUse">
<stop offset="0.0036" stop-color="#E38DDD"/>
<stop offset="1" stop-color="#9571F6"/>
</linearGradient>
<linearGradient id="paint3_linear_168_662" x1="2935.58" y1="2678.55" x2="1280.26" y2="2404.4" gradientUnits="userSpaceOnUse">
<stop stop-color="#311944"/>
<stop offset="1" stop-color="#893976"/>
</linearGradient>
<linearGradient id="paint4_linear_168_662" x1="1826.82" y1="2556.97" x2="1827.36" y2="2322.35" gradientUnits="userSpaceOnUse">
<stop offset="0.0036" stop-color="#E38DDD"/>
<stop offset="1" stop-color="#9571F6"/>
</linearGradient>
<linearGradient id="paint5_linear_168_662" x1="1422.08" y1="2203.68" x2="1984.19" y2="2644.56" gradientUnits="userSpaceOnUse">
<stop offset="0.0036" stop-color="#E38DDD"/>
<stop offset="1" stop-color="#9571F6"/>
</linearGradient>
<linearGradient id="paint6_linear_168_662" x1="2935.58" y1="2678.55" x2="1280.26" y2="2404.4" gradientUnits="userSpaceOnUse">
<stop stop-color="#311944"/>
<stop offset="1" stop-color="#893976"/>
</linearGradient>
<linearGradient id="paint7_linear_168_662" x1="1826.82" y1="2556.97" x2="1827.36" y2="2322.35" gradientUnits="userSpaceOnUse">
<stop offset="0.0036" stop-color="#E38DDD"/>
<stop offset="1" stop-color="#9571F6"/>
</linearGradient>
<linearGradient id="paint8_linear_168_662" x1="1418.67" y1="2021.89" x2="1984.61" y2="2465.77" gradientUnits="userSpaceOnUse">
<stop offset="0.0036" stop-color="#E38DDD"/>
<stop offset="1" stop-color="#9571F6"/>
</linearGradient>
<linearGradient id="paint9_linear_168_662" x1="2935.58" y1="2491.94" x2="1280.26" y2="2217.79" gradientUnits="userSpaceOnUse">
<stop stop-color="#311944"/>
<stop offset="1" stop-color="#893976"/>
</linearGradient>
<linearGradient id="paint10_linear_168_662" x1="1826.82" y1="2370.36" x2="1827.36" y2="2135.74" gradientUnits="userSpaceOnUse">
<stop offset="0.0036" stop-color="#E38DDD"/>
<stop offset="1" stop-color="#9571F6"/>
</linearGradient>
<linearGradient id="paint11_linear_168_662" x1="1422.08" y1="2017.07" x2="1984.19" y2="2457.95" gradientUnits="userSpaceOnUse">
<stop offset="0.0036" stop-color="#E38DDD"/>
<stop offset="1" stop-color="#9571F6"/>
</linearGradient>
<linearGradient id="paint12_linear_168_662" x1="2935.58" y1="2491.94" x2="1280.26" y2="2217.79" gradientUnits="userSpaceOnUse">
<stop stop-color="#311944"/>
<stop offset="1" stop-color="#893976"/>
</linearGradient>
<linearGradient id="paint13_linear_168_662" x1="1826.82" y1="2370.36" x2="1827.36" y2="2135.74" gradientUnits="userSpaceOnUse">
<stop offset="0.0036" stop-color="#E38DDD"/>
<stop offset="1" stop-color="#9571F6"/>
</linearGradient>
<linearGradient id="paint14_linear_168_662" x1="1418.67" y1="1834.82" x2="1984.61" y2="2278.7" gradientUnits="userSpaceOnUse">
<stop offset="0.0036" stop-color="#E38DDD"/>
<stop offset="1" stop-color="#9571F6"/>
</linearGradient>
<linearGradient id="paint15_linear_168_662" x1="2935.58" y1="2304.87" x2="1280.26" y2="2030.72" gradientUnits="userSpaceOnUse">
<stop stop-color="#311944"/>
<stop offset="1" stop-color="#893976"/>
</linearGradient>
<linearGradient id="paint16_linear_168_662" x1="1826.82" y1="2183.29" x2="1827.36" y2="1948.68" gradientUnits="userSpaceOnUse">
<stop offset="0.0036" stop-color="#E38DDD"/>
<stop offset="1" stop-color="#9571F6"/>
</linearGradient>
<linearGradient id="paint17_linear_168_662" x1="1422.08" y1="1830" x2="1984.19" y2="2270.88" gradientUnits="userSpaceOnUse">
<stop offset="0.0036" stop-color="#E38DDD"/>
<stop offset="1" stop-color="#9571F6"/>
</linearGradient>
<linearGradient id="paint18_linear_168_662" x1="2935.58" y1="2304.87" x2="1280.26" y2="2030.72" gradientUnits="userSpaceOnUse">
<stop stop-color="#311944"/>
<stop offset="1" stop-color="#893976"/>
</linearGradient>
<linearGradient id="paint19_linear_168_662" x1="1826.82" y1="2183.29" x2="1827.36" y2="1948.68" gradientUnits="userSpaceOnUse">
<stop offset="0.0036" stop-color="#E38DDD"/>
<stop offset="1" stop-color="#9571F6"/>
</linearGradient>
<linearGradient id="paint20_linear_168_662" x1="1418.67" y1="1647.75" x2="1984.61" y2="2091.63" gradientUnits="userSpaceOnUse">
<stop offset="0.0036" stop-color="#E38DDD"/>
<stop offset="1" stop-color="#9571F6"/>
</linearGradient>
<linearGradient id="paint21_linear_168_662" x1="2935.58" y1="2117.8" x2="1280.26" y2="1843.65" gradientUnits="userSpaceOnUse">
<stop stop-color="#311944"/>
<stop offset="1" stop-color="#893976"/>
</linearGradient>
<linearGradient id="paint22_linear_168_662" x1="1826.82" y1="1996.22" x2="1827.36" y2="1761.61" gradientUnits="userSpaceOnUse">
<stop offset="0.0036" stop-color="#E38DDD"/>
<stop offset="1" stop-color="#9571F6"/>
</linearGradient>
<linearGradient id="paint23_linear_168_662" x1="1422.08" y1="1642.93" x2="1984.19" y2="2083.81" gradientUnits="userSpaceOnUse">
<stop offset="0.0036" stop-color="#E38DDD"/>
<stop offset="1" stop-color="#9571F6"/>
</linearGradient>
<linearGradient id="paint24_linear_168_662" x1="2935.58" y1="2117.8" x2="1280.26" y2="1843.65" gradientUnits="userSpaceOnUse">
<stop stop-color="#311944"/>
<stop offset="1" stop-color="#893976"/>
</linearGradient>
<linearGradient id="paint25_linear_168_662" x1="1826.82" y1="1996.22" x2="1827.36" y2="1761.61" gradientUnits="userSpaceOnUse">
<stop offset="0.0036" stop-color="#E38DDD"/>
<stop offset="1" stop-color="#9571F6"/>
</linearGradient>
<linearGradient id="paint26_linear_168_662" x1="1418.67" y1="1460.68" x2="1984.61" y2="1904.56" gradientUnits="userSpaceOnUse">
<stop offset="0.0036" stop-color="#E38DDD"/>
<stop offset="1" stop-color="#9571F6"/>
</linearGradient>
<linearGradient id="paint27_linear_168_662" x1="2935.58" y1="1930.73" x2="1280.26" y2="1656.58" gradientUnits="userSpaceOnUse">
<stop stop-color="#311944"/>
<stop offset="1" stop-color="#893976"/>
</linearGradient>
<linearGradient id="paint28_linear_168_662" x1="1826.82" y1="1809.15" x2="1827.36" y2="1574.53" gradientUnits="userSpaceOnUse">
<stop offset="0.0036" stop-color="#E38DDD"/>
<stop offset="1" stop-color="#9571F6"/>
</linearGradient>
<linearGradient id="paint29_linear_168_662" x1="1422.08" y1="1455.86" x2="1984.19" y2="1896.74" gradientUnits="userSpaceOnUse">
<stop offset="0.0036" stop-color="#E38DDD"/>
<stop offset="1" stop-color="#9571F6"/>
</linearGradient>
<linearGradient id="paint30_linear_168_662" x1="2935.58" y1="1930.73" x2="1280.26" y2="1656.58" gradientUnits="userSpaceOnUse">
<stop stop-color="#311944"/>
<stop offset="1" stop-color="#893976"/>
</linearGradient>
<linearGradient id="paint31_linear_168_662" x1="1826.82" y1="1809.15" x2="1827.36" y2="1574.53" gradientUnits="userSpaceOnUse">
<stop offset="0.0036" stop-color="#E38DDD"/>
<stop offset="1" stop-color="#9571F6"/>
</linearGradient>
<linearGradient id="paint32_linear_168_662" x1="1418.67" y1="1273.62" x2="1984.61" y2="1717.49" gradientUnits="userSpaceOnUse">
<stop offset="0.0036" stop-color="#E38DDD"/>
<stop offset="1" stop-color="#9571F6"/>
</linearGradient>
<linearGradient id="paint33_linear_168_662" x1="2935.58" y1="1743.66" x2="1280.26" y2="1469.51" gradientUnits="userSpaceOnUse">
<stop stop-color="#311944"/>
<stop offset="1" stop-color="#893976"/>
</linearGradient>
<linearGradient id="paint34_linear_168_662" x1="1826.82" y1="1622.08" x2="1827.36" y2="1387.47" gradientUnits="userSpaceOnUse">
<stop offset="0.0036" stop-color="#E38DDD"/>
<stop offset="1" stop-color="#9571F6"/>
</linearGradient>
<linearGradient id="paint35_linear_168_662" x1="1422.08" y1="1268.79" x2="1984.19" y2="1709.67" gradientUnits="userSpaceOnUse">
<stop offset="0.0036" stop-color="#E38DDD"/>
<stop offset="1" stop-color="#9571F6"/>
</linearGradient>
<linearGradient id="paint36_linear_168_662" x1="2935.58" y1="1743.66" x2="1280.26" y2="1469.51" gradientUnits="userSpaceOnUse">
<stop stop-color="#311944"/>
<stop offset="1" stop-color="#893976"/>
</linearGradient>
<linearGradient id="paint37_linear_168_662" x1="1826.82" y1="1622.08" x2="1827.36" y2="1387.47" gradientUnits="userSpaceOnUse">
<stop offset="0.0036" stop-color="#E38DDD"/>
<stop offset="1" stop-color="#9571F6"/>
</linearGradient>
<linearGradient id="paint38_linear_168_662" x1="1418.67" y1="1086.55" x2="1984.61" y2="1530.42" gradientUnits="userSpaceOnUse">
<stop offset="0.0036" stop-color="#E38DDD"/>
<stop offset="1" stop-color="#9571F6"/>
</linearGradient>
<linearGradient id="paint39_linear_168_662" x1="2935.58" y1="1556.59" x2="1280.26" y2="1282.44" gradientUnits="userSpaceOnUse">
<stop stop-color="#311944"/>
<stop offset="1" stop-color="#893976"/>
</linearGradient>
<linearGradient id="paint40_linear_168_662" x1="1826.82" y1="1435.01" x2="1827.36" y2="1200.4" gradientUnits="userSpaceOnUse">
<stop offset="0.0036" stop-color="#E38DDD"/>
<stop offset="1" stop-color="#9571F6"/>
</linearGradient>
<linearGradient id="paint41_linear_168_662" x1="1422.08" y1="1081.72" x2="1984.19" y2="1522.6" gradientUnits="userSpaceOnUse">
<stop offset="0.0036" stop-color="#E38DDD"/>
<stop offset="1" stop-color="#9571F6"/>
</linearGradient>
<linearGradient id="paint42_linear_168_662" x1="2935.58" y1="1556.59" x2="1280.26" y2="1282.44" gradientUnits="userSpaceOnUse">
<stop stop-color="#311944"/>
<stop offset="1" stop-color="#893976"/>
</linearGradient>
<linearGradient id="paint43_linear_168_662" x1="1826.82" y1="1435.01" x2="1827.36" y2="1200.4" gradientUnits="userSpaceOnUse">
<stop offset="0.0036" stop-color="#E38DDD"/>
<stop offset="1" stop-color="#9571F6"/>
</linearGradient>
<linearGradient id="paint44_linear_168_662" x1="2418.98" y1="61.5166" x2="2128.73" y2="340.495" gradientUnits="userSpaceOnUse">
<stop stop-color="#311944"/>
<stop offset="1" stop-color="#893976"/>
</linearGradient>
<linearGradient id="paint45_linear_168_662" x1="2020.16" y1="338.155" x2="1819.15" y2="659.318" gradientUnits="userSpaceOnUse">
<stop stop-color="#311944"/>
<stop offset="1" stop-color="#893976"/>
</linearGradient>
<linearGradient id="paint46_linear_168_662" x1="2021.52" y1="298.609" x2="1286.78" y2="1675.67" gradientUnits="userSpaceOnUse">
<stop stop-color="#893976"/>
<stop offset="1" stop-color="#311944"/>
</linearGradient>
<linearGradient id="paint47_linear_168_662" x1="1886.17" y1="583.986" x2="1284.02" y2="1385.53" gradientUnits="userSpaceOnUse">
<stop stop-color="#311944"/>
<stop offset="1" stop-color="#893976"/>
</linearGradient>
<linearGradient id="paint48_linear_168_662" x1="1989.43" y1="1323.61" x2="1766.05" y2="106.167" gradientUnits="userSpaceOnUse">
<stop stop-color="#FFC444"/>
<stop offset="0.5135" stop-color="#F9984D"/>
<stop offset="0.9964" stop-color="#F36F56"/>
</linearGradient>
<linearGradient id="paint49_linear_168_662" x1="1830.33" y1="796.627" x2="1917.21" y2="796.627" gradientUnits="userSpaceOnUse">
<stop stop-color="#311944"/>
<stop offset="1" stop-color="#893976"/>
</linearGradient>
<linearGradient id="paint50_linear_168_662" x1="1099.57" y1="2250.75" x2="676.003" y2="3493.22" gradientUnits="userSpaceOnUse">
<stop stop-color="#FFC444"/>
<stop offset="0.5135" stop-color="#F9984D"/>
<stop offset="0.9964" stop-color="#F36F56"/>
</linearGradient>
<linearGradient id="paint51_linear_168_662" x1="879.55" y1="2175.74" x2="455.98" y2="3418.22" gradientUnits="userSpaceOnUse">
<stop stop-color="#FFC444"/>
<stop offset="0.9964" stop-color="#F36F56"/>
</linearGradient>
<linearGradient id="paint52_linear_168_662" x1="855.477" y1="838.982" x2="665.896" y2="1544.64" gradientUnits="userSpaceOnUse">
<stop stop-color="#893976"/>
<stop offset="1" stop-color="#311944"/>
</linearGradient>
<linearGradient id="paint53_linear_168_662" x1="780.266" y1="904.667" x2="896.12" y2="378.054" gradientUnits="userSpaceOnUse">
<stop offset="0.0036" stop-color="#26264F"/>
<stop offset="1" stop-color="#444B8C"/>
</linearGradient>
<linearGradient id="paint54_linear_168_662" x1="779.923" y1="950.753" x2="1368.45" y2="769.516" gradientUnits="userSpaceOnUse">
<stop stop-color="#893976"/>
<stop offset="1" stop-color="#311944"/>
</linearGradient>
<linearGradient id="paint55_linear_168_662" x1="830.959" y1="915.819" x2="946.814" y2="389.205" gradientUnits="userSpaceOnUse">
<stop offset="0.0036" stop-color="#26264F"/>
<stop offset="1" stop-color="#444B8C"/>
</linearGradient>
<linearGradient id="paint56_linear_168_662" x1="924.438" y1="857.509" x2="734.857" y2="1563.17" gradientUnits="userSpaceOnUse">
<stop stop-color="#893976"/>
<stop offset="1" stop-color="#311944"/>
</linearGradient>
<linearGradient id="paint57_linear_168_662" x1="735.049" y1="3096.9" x2="1255.78" y2="1256.25" gradientUnits="userSpaceOnUse">
<stop stop-color="#FF9085"/>
<stop offset="1" stop-color="#FB6FBB"/>
</linearGradient>
<linearGradient id="paint58_linear_168_662" x1="1193.57" y1="1711.65" x2="847.655" y2="2509.38" gradientUnits="userSpaceOnUse">
<stop stop-color="#FFC444"/>
<stop offset="0.5135" stop-color="#F9984D"/>
<stop offset="0.9964" stop-color="#F36F56"/>
</linearGradient>
<linearGradient id="paint59_linear_168_662" x1="522.627" y1="2054.07" x2="99.0584" y2="3296.53" gradientUnits="userSpaceOnUse">
<stop stop-color="#FFC444"/>
<stop offset="0.9964" stop-color="#F36F56"/>
</linearGradient>
<linearGradient id="paint60_linear_168_662" x1="831.824" y1="2354.8" x2="766.274" y2="1461.36" gradientUnits="userSpaceOnUse">
<stop stop-color="#FF9085"/>
<stop offset="1" stop-color="#FB6FBB"/>
</linearGradient>
<linearGradient id="paint61_linear_168_662" x1="306.718" y1="2797.51" x2="185.999" y2="1152.12" gradientUnits="userSpaceOnUse">
<stop stop-color="#FF9085"/>
<stop offset="1" stop-color="#FB6FBB"/>
</linearGradient>
<linearGradient id="paint62_linear_168_662" x1="534.312" y1="1594.77" x2="569.42" y2="1943.5" gradientUnits="userSpaceOnUse">
<stop stop-color="#893976"/>
<stop offset="1" stop-color="#311944"/>
</linearGradient>
<linearGradient id="paint63_linear_168_662" x1="1183.84" y1="1529.38" x2="1218.95" y2="1878.11" gradientUnits="userSpaceOnUse">
<stop stop-color="#893976"/>
<stop offset="1" stop-color="#311944"/>
</linearGradient>
</defs>
</svg>
