<svg width="2901" height="2901" viewBox="0 0 2901 2901" fill="none" xmlns="http://www.w3.org/2000/svg">
<path d="M2698.36 549.775L2642.06 549.872C2638.18 512.678 2629.23 476.975 2615.93 443.433L2663.54 415.824C2676.55 408.278 2681 391.26 2673.5 377.773L2653.49 341.796C2645.95 328.227 2629.19 323.243 2616.04 330.705L2569.03 357.389C2547.14 326.725 2521.03 299.079 2491.45 275.299L2518.49 228.847C2526.25 215.518 2521.65 197.978 2508.19 189.626L2472.2 167.296C2458.59 158.855 2441.13 162.844 2433.23 176.252L2406.12 222.229C2371.3 206.008 2333.67 194.306 2293.98 188.029V133.507C2293.98 117.422 2280.74 103.78 2264.37 103.033L2220.55 101.033C2203.97 100.277 2190.48 112.843 2190.48 129.105V184.226C2149.57 187.635 2110.12 196.833 2073.05 211.065L2043.79 161.232C2035.2 146.588 2016.11 140.911 2001.12 148.595L1961.05 169.147C1945.9 176.92 1940.69 195.208 1949.46 209.952L1979.77 260.935C1946.6 284.386 1916.94 312.461 1891.82 344.294L1837 313.278C1821.46 304.484 1801.52 309.044 1792.48 323.509L1768.38 362.108C1759.29 376.671 1764.69 395.569 1780.41 404.268L1837.14 435.659C1821.41 471.882 1810.78 510.711 1806.16 551.31L1738.12 551.427C1719.81 551.458 1704.91 565.338 1704.91 582.429V627.879C1704.91 644.969 1719.81 658.638 1738.12 658.41L1807.97 657.541C1813.86 697.19 1825.51 734.936 1842.06 769.98L1780.41 804.971C1764.69 813.894 1759.29 832.867 1768.38 847.301L1792.48 885.559C1801.52 899.897 1821.46 904.173 1837 895.16L1899.36 858.997C1924.28 888.466 1953.25 914.359 1985.41 935.909L1949.46 996.894C1940.69 1011.76 1945.9 1029.98 1961.05 1037.53L2001.12 1057.52C2016.11 1064.99 2035.2 1059.04 2043.79 1044.28L2079.45 983.03C2114.66 995.448 2151.92 1003.33 2190.48 1006.05V1074.33C2190.48 1090.59 2203.97 1102.96 2220.55 1101.97L2264.37 1099.35C2280.74 1098.37 2293.98 1084.54 2293.98 1068.46V1000.92C2331.41 994.525 2367.01 983.325 2400.15 968.094L2433.23 1023.74C2441.13 1037.04 2458.59 1040.78 2472.2 1032.15L2508.19 1009.31C2521.65 1000.76 2526.25 983.157 2518.49 969.938L2486.38 915.23C2515.12 892.482 2540.71 866.166 2562.48 837.059L2616.04 866.699C2629.19 873.975 2645.95 868.754 2653.49 855.078L2673.5 818.818C2681 805.225 2676.55 788.27 2663.54 780.909L2611.74 751.606C2625.77 718.7 2635.59 683.671 2640.54 647.183L2698.36 646.464C2713.27 646.279 2725.31 633.687 2725.31 618.339V577.522C2725.31 562.171 2713.27 549.749 2698.36 549.775ZM2242.51 885.778C2075.9 891.96 1936.47 762.652 1936.47 596.759C1936.47 430.867 2075.9 299.776 2242.51 303.829C2403.46 307.744 2529.98 437.142 2529.98 592.966C2529.98 748.791 2403.46 879.806 2242.51 885.778Z" fill="#97A6B7"/>
<path d="M2056.08 146.457L2015.98 145.074L2002.15 181.028L2056.08 146.457Z" fill="#97A6B7"/>
<path d="M2453.74 163.052L2499.99 163.513V197.624L2453.74 163.052Z" fill="#97A6B7"/>
<path d="M2629.97 327.597L2676.07 329.459L2664.55 355.273L2629.97 327.597Z" fill="#97A6B7"/>
<path d="M2702.35 550.259L2748.9 553.946L2733.69 576.533L2702.35 550.259Z" fill="#97A6B7"/>
<path d="M2624.91 869.703L2670.08 876.156L2675.61 839.28L2624.91 869.703Z" fill="#97A6B7"/>
<path d="M2452.04 1036.11L2492.61 1043.49L2495.84 1013.52L2452.04 1036.11Z" fill="#97A6B7"/>
<path d="M2249.22 1108.02L2212.81 1101.57L2244.15 1055.01L2249.22 1108.02Z" fill="#97A6B7"/>
<path d="M2051.93 1068.84L2009.52 1060.08L2042.25 1020.44L2051.93 1068.84Z" fill="#97A6B7"/>
<path d="M1813.62 309.177L1857.87 310.559L1840.35 342.827L1813.62 309.177Z" fill="#97A6B7"/>
<path d="M1725.57 656.278L1766.14 662.271L1762.91 629.082L1725.57 656.278Z" fill="#97A6B7"/>
<path d="M1812.69 899.205L1852.34 905.659L1855.56 879.384L1812.69 899.205Z" fill="#97A6B7"/>
<path d="M2743.85 553.432L2687.08 553.53C2683.17 516.033 2674.15 480.039 2660.74 446.224L2708.74 418.39C2721.86 410.783 2726.34 393.626 2718.78 380.029L2698.61 343.759C2691 330.079 2674.11 325.055 2660.85 332.578L2613.45 359.479C2591.38 328.566 2565.05 300.694 2535.23 276.72L2562.49 229.889C2570.32 216.452 2565.68 198.769 2552.1 190.349L2515.81 167.837C2502.09 159.327 2484.49 163.349 2476.52 176.865L2449.2 223.217C2414.08 206.864 2376.14 195.067 2336.12 188.739V133.772C2336.12 117.556 2322.78 103.802 2306.27 103.049L2262.08 101.033C2245.36 100.27 2231.77 112.94 2231.77 129.333V184.904C2190.51 188.341 2150.74 197.613 2113.35 211.961L2083.86 161.722C2075.19 146.959 2055.94 141.235 2040.84 148.981L2000.43 169.701C1985.15 177.537 1979.91 195.974 1988.74 210.838L2019.3 262.236C1985.86 285.879 1955.96 314.182 1930.63 346.275L1875.36 315.007C1859.69 306.142 1839.58 310.738 1830.47 325.322L1806.17 364.235C1797 378.916 1802.44 397.968 1818.3 406.739L1875.49 438.385C1859.63 474.903 1848.92 514.049 1844.26 554.979L1775.65 555.097C1757.19 555.129 1742.17 569.122 1742.17 586.351V632.171C1742.17 649.4 1757.19 663.181 1775.65 662.951L1846.08 662.075C1852.03 702.048 1863.77 740.101 1880.46 775.43L1818.3 810.706C1802.45 819.701 1797 838.83 1806.17 853.381L1830.47 891.951C1839.58 906.406 1859.69 910.717 1875.36 901.63L1938.23 865.172C1963.35 894.881 1992.57 920.985 2024.99 942.711L1988.75 1004.19C1979.91 1019.18 1985.15 1037.54 2000.43 1045.16L2040.84 1065.31C2055.95 1072.84 2075.2 1066.85 2083.86 1051.96L2119.81 990.216C2155.31 1002.73 2192.88 1010.68 2231.77 1013.42V1082.26C2231.77 1098.65 2245.37 1111.13 2262.09 1110.13L2306.27 1107.49C2322.78 1106.5 2336.12 1092.56 2336.12 1076.34V1008.25C2373.86 1001.8 2409.76 990.514 2443.17 975.159L2476.52 1031.26C2484.49 1044.66 2502.1 1048.44 2515.81 1039.73L2552.1 1016.7C2565.68 1008.09 2570.32 990.344 2562.49 977.017L2530.11 921.862C2559.1 898.929 2584.9 872.398 2606.85 843.055L2660.85 872.936C2674.11 880.271 2691.01 875.008 2698.61 861.22L2718.78 824.664C2726.35 810.96 2721.86 793.867 2708.74 786.446L2656.52 756.904C2670.66 723.73 2680.56 688.416 2685.55 651.631L2743.86 650.906C2758.89 650.719 2771.03 638.025 2771.03 622.552V581.403C2771.03 565.929 2758.88 553.406 2743.85 553.432ZM2284.22 892.173C2116.23 898.406 1975.65 768.044 1975.65 600.8C1975.65 433.556 2116.23 301.398 2284.22 305.484C2446.51 309.431 2574.07 439.883 2574.07 596.976C2574.07 754.07 2446.51 886.152 2284.22 892.173Z" fill="#D8DEE8"/>
<path d="M2364.32 668.964C2231.84 613.654 2086.98 634.339 1970.26 711.396C1927.61 496.666 1792.1 311.564 1590.32 227.316C1259.68 89.268 876.325 274.28 734.073 640.548C697.416 734.932 680.396 832.137 680.91 926.81C663.867 915.545 645.638 905.755 626.285 897.674C445.636 822.251 236.187 923.334 158.467 1123.45C80.7461 1323.56 161.522 1554.23 344.835 1622.35C442.742 1658.74 597.653 1664.6 597.653 1664.6C597.653 1664.6 2104.49 1603.38 2150.96 1605.34C2336.58 1613.17 2519.52 1492.34 2597.19 1292.36C2694.31 1042.31 2590.05 763.208 2364.32 668.964Z" fill="url(#paint0_linear_168_82)"/>
<path d="M2409.12 670.66C2276.65 615.35 2131.78 636.036 2015.06 713.091C1972.42 498.361 1836.91 313.258 1635.12 229.011C1304.48 90.9634 921.13 275.974 778.879 642.243C742.222 736.627 725.201 833.831 725.716 928.504C708.673 917.239 690.444 907.45 671.091 899.368C490.442 823.945 280.993 925.028 203.272 1125.14C125.551 1325.26 208.991 1548.63 389.64 1624.05C427.869 1640.01 642.458 1666.3 642.458 1666.3C642.458 1666.3 2149.29 1605.07 2195.77 1607.03C2381.39 1614.87 2564.33 1494.04 2642 1294.06C2739.11 1044.01 2634.85 764.904 2409.12 670.66Z" fill="url(#paint1_linear_168_82)"/>
<path d="M2717.73 2606.23L314.355 2585.75V2646.36C314.355 2662.82 324.838 2676.8 339.034 2679.3L1018.64 2798.66C1026.7 2800.08 1034.88 2800.45 1043.02 2799.78L2691.61 2663.69C2706.33 2662.47 2717.73 2648.44 2717.73 2631.54V2606.23Z" fill="#26264F"/>
<path d="M1845.55 2509.1L339.208 2619.98C312.253 2621.97 290.337 2600.88 290.337 2572.89V1451.15C290.337 1423.16 312.254 1400.46 339.208 1400.46H1845.55C1867.76 1400.46 1885.71 1420.98 1885.71 1446.29V2460.31C1885.71 2485.62 1867.76 2507.46 1845.55 2509.1Z" fill="#26264F"/>
<path d="M1869.57 2509.1L363.227 2619.98C336.271 2621.97 314.355 2600.88 314.355 2572.89V1451.15C314.355 1423.16 336.271 1400.46 363.227 1400.46H1869.57C1891.78 1400.46 1909.73 1420.98 1909.73 1446.29V2460.31C1909.73 2485.62 1891.78 2507.46 1869.57 2509.1Z" fill="url(#paint2_linear_168_82)"/>
<path d="M1822.65 2437.61L419.642 2533.93C397.707 2535.43 379.881 2518.13 379.881 2495.27V1513.19C379.881 1490.34 397.707 1471.73 419.642 1471.64L1822.65 1465.59C1840.96 1465.51 1855.78 1482.32 1855.78 1503.14V2397.64C1855.78 2418.45 1840.96 2436.35 1822.65 2437.61Z" fill="white"/>
<path d="M1169.6 1431.14C1169.6 1441.56 1161.85 1450.04 1152.27 1450.07C1142.69 1450.1 1134.91 1441.65 1134.91 1431.21C1134.91 1420.76 1142.69 1412.29 1152.27 1412.28C1161.85 1412.27 1169.6 1420.72 1169.6 1431.14Z" fill="white"/>
<path d="M1929.61 2502.95L314.355 2619.67L1018.64 2743.36C1026.7 2744.78 1034.88 2745.15 1043.02 2744.48L2717.73 2606.23L1955.3 2503.74C1946.78 2502.59 1938.18 2502.33 1929.61 2502.95Z" fill="url(#paint3_linear_168_82)"/>
<path d="M550.046 2620.67L1894.79 2522.05L2310.98 2577.55L977.818 2682.97L550.046 2620.67Z" fill="#26264F"/>
<path d="M985.743 2493.42L413.396 2531.93C396.604 2533.06 382.362 2519.75 382.362 2502.92V1500.51C382.362 1484.49 395.311 1471.49 411.327 1471.43L985.744 1469.11L985.743 2493.42Z" fill="#D8DEE8"/>
<path d="M1724.87 1946.79L1121.84 1967.98V1907.01L1724.87 1888.11V1946.79Z" fill="#D8DEE8"/>
<path d="M1724.87 2042.93L1121.84 2067.87V2006.9L1724.87 1984.25V2042.93Z" fill="#D8DEE8"/>
<path d="M926.707 1957.74L580.438 1969.55V1923.97L926.707 1913.12V1957.74Z" fill="white"/>
<path d="M926.707 2030.84L580.438 2044.2V1998.63L926.707 1986.22V2030.84Z" fill="white"/>
<path d="M926.707 2103.95L580.438 2118.86V2073.29L926.707 2059.32V2103.95Z" fill="white"/>
<path d="M926.707 2177.05L580.438 2193.52V2147.95L926.707 2132.43V2177.05Z" fill="white"/>
<path d="M1388.32 2155.08L1121.84 2167.76V2106.79L1388.32 2095.12V2155.08Z" fill="#D8DEE8"/>
<path d="M1345.41 1677.29V1768.88C1345.41 1795.36 1367.69 1816.25 1395.08 1815.53L1463.02 1813.76C1490.09 1813.05 1511.96 1791.24 1511.96 1765.04V1674.41L1345.41 1677.29ZM1407.97 1771.98L1420.6 1733.72C1415.19 1730.93 1411.53 1725.43 1411.53 1719.02C1411.53 1709.62 1419.41 1701.85 1429.13 1701.67C1438.83 1701.48 1446.69 1708.94 1446.69 1718.32C1446.69 1724.71 1443.03 1730.35 1437.64 1733.36L1450.22 1770.99L1407.97 1771.98Z" fill="#D8DEE8"/>
<path d="M1492.65 1666.47C1485.45 1666.59 1479.6 1661.01 1479.6 1654.01C1479.6 1627.09 1457 1605.48 1429.13 1605.84C1401.16 1606.2 1378.33 1628.53 1378.33 1655.63C1378.33 1662.67 1372.4 1668.49 1365.08 1668.61C1357.76 1668.73 1351.82 1663.11 1351.82 1656.05C1351.82 1614.81 1386.59 1580.88 1429.13 1580.4C1471.43 1579.92 1505.69 1612.76 1505.69 1653.6C1505.68 1660.59 1499.85 1666.35 1492.65 1666.47Z" fill="#D8DEE8"/>
<path opacity="0.48" d="M363.221 2619.98L1861.94 2509.66L1869.57 2509.1C1879.76 2508.35 1889.03 2503.31 1896.1 2495.67C1788.25 2489.77 1721.27 2451.49 1678.05 2411.95C1591.28 2332.53 1606.33 2254.21 1512.75 2201.99C1396.03 2136.86 1304.25 2219.39 1215.68 2137.96C1161.98 2088.6 1188.34 2051.79 1122.27 1978.02C1049.09 1896.31 1001.44 1923.78 927.898 1850.24C834.905 1757.26 881.414 1684.91 801.311 1618.15C704.135 1537.17 599.335 1612.13 506.831 1534.46C466.933 1500.96 445.04 1452.25 433.609 1400.46H363.229C336.273 1400.46 314.357 1423.16 314.357 1451.15V2572.89C314.355 2600.88 336.267 2621.96 363.221 2619.98Z" fill="white"/>
<path d="M1009.58 1757.38C987.223 1758.03 965.417 1752.39 946.53 1741.08C888.986 1706.58 803.958 1649.61 727.461 1575.04C630.393 1480.42 574.622 1384.23 562.42 1289.78L562.229 1288.3L559.861 885.279C559.861 805.629 611.812 740.975 709.349 698.491C789.934 663.391 896.742 645.999 1009.58 649.265C1121.1 652.493 1224.3 675.504 1300.68 713.845C1391.47 759.423 1439.11 823.475 1439.11 899.416L1436.95 1284.51L1436.78 1285.92C1425.63 1376.37 1374.31 1469.86 1283.62 1564.4C1210.87 1640.23 1128.67 1700.32 1072.22 1737.55C1053.54 1749.87 1031.88 1756.74 1009.58 1757.38Z" fill="url(#paint4_linear_168_82)"/>
<path d="M1031.71 1757.38C1009.65 1758.03 988.133 1752.39 969.495 1741.08C912.711 1706.58 828.807 1649.61 753.321 1575.04C657.536 1480.42 602.502 1384.23 590.462 1289.78L590.271 1288.3L587.935 885.279C587.935 805.629 639.2 740.975 735.447 698.491C814.968 663.391 920.364 645.999 1031.71 649.265C1141.76 652.493 1243.59 675.504 1318.96 713.845C1408.56 759.423 1455.57 823.475 1455.57 899.416L1453.44 1284.51L1453.27 1285.92C1442.26 1376.37 1391.63 1469.86 1302.13 1564.4C1230.35 1640.23 1149.23 1700.32 1093.52 1737.55C1075.09 1749.87 1053.72 1756.74 1031.71 1757.38Z" fill="url(#paint5_linear_168_82)"/>
<path d="M614.545 885.569L616.898 1286.55C643.293 1491.15 883.737 1656.79 988.458 1719.73C1018.46 1737.76 1056.81 1736.69 1086.6 1717.09C1189.13 1649.62 1416.41 1479.76 1440.69 1283.05L1442.85 899.02C1442.85 614.103 614.545 588.057 614.545 885.569Z" fill="url(#paint6_linear_168_82)"/>
<path d="M1037.65 1657.92C1035.73 1657.96 1032.83 1657.65 1029.89 1655.87C986.774 1629.76 903.19 1575.06 830.474 1503.64C751.931 1426.49 706.632 1351.48 696.244 1281.03L693.94 886.68C694.035 848.843 723.987 816.46 782.7 790.549C848.243 761.622 941.322 746.443 1037.65 748.731C1133.02 750.995 1223.39 770.194 1285.99 801.259C1341.37 828.736 1369.36 861.129 1369.45 897.657L1367.3 1278.35C1357.61 1346.52 1315.09 1420.02 1240.44 1497.28C1170.25 1569.92 1088.26 1627.5 1045.41 1655.5C1042.47 1657.42 1039.57 1657.87 1037.65 1657.92Z" fill="url(#paint7_linear_168_82)"/>
<path d="M1027.81 1630.97C984.268 1604.15 906.836 1552.36 839.278 1485.87C765.465 1413.23 722.75 1343.52 712.709 1279.02L710.422 886.965C710.49 859.912 735.357 835.096 784.145 813.495C846.234 786.003 935.191 771.516 1027.81 773.595C1119.54 775.655 1206.01 793.773 1265.43 823.172C1311.59 846.014 1334.95 870.931 1335.01 897.316L1332.87 1276.61C1323.45 1339.19 1283.16 1407.63 1212.7 1480.41C1147.29 1547.99 1071.16 1602.33 1027.81 1630.97Z" fill="#F4F7FA"/>
<path d="M1183.62 1117.66L890.395 1120.27C867.854 1120.47 849.489 1138.04 849.489 1159.5V1347.38C849.489 1368.71 867.786 1385.25 890.245 1384.33L1182.44 1372.37C1203.22 1371.52 1220.07 1354.31 1220.18 1333.93L1221.11 1154.45C1221.22 1133.95 1204.48 1117.47 1183.62 1117.66Z" fill="url(#paint8_linear_168_82)"/>
<path d="M1077.13 1225.39C1077.2 1204.64 1059.39 1188.24 1037.64 1189.61C1018.39 1190.83 1002.42 1206.38 1001.34 1225.04C1000.5 1239.51 1008.33 1252.05 1020.24 1258.41C1025.31 1261.12 1027.82 1266.79 1026.82 1272.39L1018.34 1319.85C1017.26 1325.89 1022.05 1331.21 1028.36 1330.98L1049.82 1330.23C1056.09 1330.01 1060.86 1324.39 1059.82 1318.45L1051.62 1271.44C1050.64 1265.83 1053.53 1260.27 1058.62 1257.21C1069.67 1250.56 1077.09 1238.73 1077.13 1225.39Z" fill="url(#paint9_linear_168_82)"/>
<path d="M1179.5 1099.02C1170.7 1099.08 1163.58 1092.08 1163.61 1083.39L1163.79 1042.47C1163.97 1001.37 1129.99 967.553 1087.64 967.132L991.93 966.182C948.1 965.746 912.063 999.924 912.026 1042.33L911.989 1084.54C911.981 1093.51 904.35 1100.82 894.923 1100.89C885.475 1100.95 877.804 1093.7 877.807 1084.7L877.823 1042.31C877.847 981.705 929.457 933.041 991.992 933.91L1087.74 935.241C1147.9 936.077 1195.95 984.221 1195.67 1042.49L1195.47 1083.25C1195.43 1091.9 1188.29 1098.96 1179.5 1099.02Z" fill="url(#paint10_linear_168_82)"/>
<path d="M2046.42 1435.48C2127.84 1395.72 2286.64 1539.73 2363.92 1677.68C2394.72 1732.65 2430.87 1797.19 2422 1873.92C2406.27 2009.94 2255.38 2129.26 2047.69 2169.1C2041.84 2148.21 2035.99 2127.33 2030.15 2106.45C2052.86 2082.8 2086.81 2048.65 2130.22 2009.53C2196.89 1949.43 2210.59 1945.43 2213.78 1926.46C2224.26 1864.31 2064.44 1812.28 2007.59 1703.01C1958.72 1609.06 1983.88 1466.02 2046.42 1435.48Z" fill="url(#paint11_linear_168_82)"/>
<path d="M2153.39 2528.77C2153.39 2528.77 2140.02 2561.74 2146.67 2574.66C2153.32 2587.57 2185.39 2579.4 2230.61 2586.32C2275.84 2593.23 2307.04 2603.8 2309.55 2594.43C2312.05 2585.06 2218.34 2535.61 2210.85 2528.77C2203.36 2521.93 2153.39 2528.77 2153.39 2528.77Z" fill="url(#paint12_linear_168_82)"/>
<path d="M2165.36 2479.47L2196.99 2528.77C2196.99 2528.77 2182.41 2543.15 2157.65 2537.8L2122.86 2491.09L2165.36 2479.47Z" fill="url(#paint13_linear_168_82)"/>
<path opacity="0.3" d="M2007.59 1703.01C1958.72 1609.06 1983.88 1466.02 2046.42 1435.48C2062.83 1427.47 2082.4 1427.02 2103.78 1432.38C2092.52 1464.89 2094.75 1488.4 2100.31 1505.05C2125.09 1579.32 2232.22 1570.87 2265.69 1655.4C2286.85 1708.84 2253.21 1735.35 2283.24 1778.19C2314.36 1822.58 2365.24 1815.13 2380.96 1858.37C2392.68 1890.59 2369.58 1908.91 2378.46 1936.05C2380.93 1943.62 2385.81 1951.21 2394 1958.42C2338.96 2057.41 2210.88 2137.8 2047.69 2169.1C2041.84 2148.21 2035.99 2127.33 2030.15 2106.45C2052.86 2082.8 2086.82 2048.65 2130.22 2009.53C2196.89 1949.43 2210.59 1945.43 2213.78 1926.46C2224.25 1864.31 2064.44 1812.28 2007.59 1703.01Z" fill="url(#paint14_linear_168_82)"/>
<path d="M2101.98 1464.96C2098.46 1607.34 2100.43 1761.28 2110.74 1925.17C2123.91 2134.44 2148.57 2326.65 2178.72 2499.37C2165.33 2503.63 2151.94 2507.89 2138.55 2512.15C2000.79 2377.94 1959.57 2259.87 1948.29 2174.94C1940.31 2114.91 1952.38 2109.75 1941.62 2034.61C1921.11 1891.53 1867.63 1842.53 1830.07 1708.57C1815.97 1658.3 1800.28 1582.34 1801.28 1483.34C1901.51 1477.21 2001.75 1471.08 2101.98 1464.96Z" fill="url(#paint15_linear_168_82)"/>
<path d="M2200.66 1209.93C2198.16 1210.5 2187.3 1214.11 2183 1259.48C2172.65 1368.87 2229.6 1413.15 2215.58 1472.48C2202.12 1529.42 2133.46 1557.04 2062.8 1585.48C2015.58 1604.48 1869.52 1663.25 1784.59 1597.16C1748.84 1569.35 1744.93 1535.77 1719.42 1412.34C1654.63 1098.72 1629.53 1071.78 1656.78 1003.88C1703.58 887.297 1828.88 839.015 1849.73 830.983C2072.02 745.327 2334.53 902.754 2438.26 1083.61C2451.92 1107.43 2533.5 1249.65 2476.18 1317.11C2441.51 1357.92 2361.83 1364.51 2309.25 1336.68C2238.99 1299.5 2224.06 1204.56 2200.66 1209.93Z" fill="url(#paint16_linear_168_82)"/>
<path d="M2443.61 1292.89C2444.31 1292.89 2445.01 1292.74 2445.69 1292.43C2448.2 1291.29 2449.31 1288.32 2448.17 1285.8C2446.26 1281.63 2400.38 1183.15 2294.34 1144.28C2291.74 1143.32 2288.86 1144.66 2287.91 1147.27C2286.96 1149.86 2288.3 1152.74 2290.89 1153.69C2392.89 1191.07 2438.6 1288.97 2439.05 1289.96C2439.89 1291.8 2441.71 1292.89 2443.61 1292.89Z" fill="url(#paint17_linear_168_82)"/>
<path opacity="0.3" d="M1802.12 963.792C1816.15 1001.99 1774.05 1035.08 1792.09 1076.55C1817.95 1135.99 1920.73 1105.48 1957.48 1164.26C2001.03 1233.92 1901.3 1348.17 1942.44 1387.28C1961.19 1405.1 1982.85 1382.27 2037.66 1394.8C2115.72 1412.63 2139.18 1474.31 2175.48 1464.96C2186.9 1462.02 2200.75 1451.65 2212.39 1419.74C2217.47 1437.44 2219.88 1454.25 2215.58 1472.48C2202.12 1529.42 2133.46 1557.04 2062.8 1585.48C2015.58 1604.48 1869.52 1663.25 1784.59 1597.16C1748.84 1569.35 1744.93 1535.77 1719.42 1412.34C1654.63 1098.72 1629.53 1071.78 1656.78 1003.88C1671.64 966.865 1694.42 936.756 1719.25 912.611C1772.79 924.438 1794.77 943.797 1802.12 963.792Z" fill="url(#paint18_linear_168_82)"/>
<path d="M1936.49 1203.41C1930.5 1208.86 1869.68 1262.43 1796.53 1244.14C1732.82 1228.2 1693.7 1166.26 1686.85 1114.14C1670.55 990.186 1832.05 886.139 1812.14 861.053C1800.28 846.114 1736.7 875.048 1694.36 901.146C1650.42 928.235 1531.66 1001.44 1506.35 1145.09C1504.2 1157.3 1476.28 1328.57 1574.05 1399.3C1664.45 1464.7 1841.52 1429.13 1961.45 1274.43C1953.13 1250.76 1944.81 1227.08 1936.49 1203.41Z" fill="url(#paint19_linear_168_82)"/>
<path d="M2328.59 1090.18L2256.18 1321.48C2253.81 1329.07 2246.91 1334.33 2238.97 1334.61L1849.31 1348.37C1837.1 1348.8 1827.75 1337.62 1830.34 1325.68L1880.73 1093.43C1882.55 1085.03 1889.86 1078.95 1898.45 1078.68L2310.13 1065.86C2323.01 1065.46 2332.44 1077.88 2328.59 1090.18Z" fill="#D8DEE8"/>
<path d="M2325.12 1097.79L2254.84 1322.27C2252.54 1329.63 2245.84 1334.74 2238.13 1335.01L1859.95 1348.37C1848.1 1348.79 1839.03 1337.93 1841.54 1326.35L1890.44 1100.94C1892.21 1092.79 1899.31 1086.88 1907.65 1086.62L2307.2 1074.18C2319.7 1073.79 2328.86 1085.85 2325.12 1097.79Z" fill="url(#paint20_linear_168_82)"/>
<path d="M1841.54 1326.35L1888.22 1111.19C1896.14 1129.92 1906.36 1139.38 1916.13 1144.21C1944.27 1158.11 1966.19 1133.06 2027.64 1135.44C2051.14 1136.35 2099.19 1138.21 2129.13 1169.27C2157.26 1198.46 2145.3 1228.45 2162.96 1269.5C2171.87 1290.23 2188.41 1313.72 2220.28 1335.64L1859.95 1348.37C1848.1 1348.79 1839.03 1337.93 1841.54 1326.35Z" fill="url(#paint21_linear_168_82)"/>
<path d="M2078.87 808.697C2074.73 823.235 2083.48 838.344 2098.17 841.89C2115.97 846.186 2137.66 852.124 2147.02 857.482C2164.21 867.318 2094.66 855.956 2030.7 854.455C1990.76 853.519 1960.92 849.036 1944.14 845.8C1939.63 844.93 1939.28 838.641 1943.64 837.222C1959.63 832.022 1985.62 824.364 2007.58 821.604C2034.77 818.185 2063.93 758.185 2063.93 758.185L2087.23 779.353L2078.87 808.697Z" fill="url(#paint22_linear_168_82)"/>
<path d="M2310.33 1163.9L2305.91 1156.67C2302 1141.65 2287.57 1131.85 2272.17 1133.75L2248.93 1136.61C2241.66 1137.51 2236.74 1144.43 2238.24 1151.6C2240.4 1161.97 2245.96 1174.37 2260.24 1173.41C2284.49 1171.78 2299.99 1207.12 2299.99 1207.12L2309.29 1194.01C2315.64 1185.08 2316.04 1173.24 2310.33 1163.9Z" fill="url(#paint23_linear_168_82)"/>
<path d="M2130.81 777.945C2150.9 774.968 2173.42 758.073 2172.98 744.114C2172.38 724.928 2128.52 714.421 2106.37 709.116C2084.16 703.795 2074.74 705.721 2068.38 710.561C2061.88 715.507 2057.62 724.36 2056.22 731.995C2055.46 736.155 2055.42 741.88 2056.13 753.288C2056.76 763.412 2056.58 762.967 2056.84 765.958C2057.47 773.141 2059.43 785.776 2066.43 803.288C2069.35 800.091 2073.21 796.271 2078.09 792.505C2079.96 791.057 2087.39 785.447 2095.83 782.049C2110.32 776.215 2118.61 779.752 2130.81 777.945Z" fill="url(#paint24_linear_168_82)"/>
<path d="M2055.74 783.769C2055.74 783.769 2057.04 811.765 2083.42 824.056C2107.04 835.061 2138.39 785.745 2129.77 766.913C2126.89 760.632 2117.98 753.798 2108.85 751.682C2103.46 750.432 2100.82 751.508 2092.04 749.296C2083.96 747.254 2082.38 745.372 2079.26 746.001C2075.35 746.787 2070.37 751.233 2066.65 768.631C2064.71 761.842 2060.41 757.291 2055.76 757.012C2055.01 756.968 2052.86 757.175 2051.1 758.307C2044.71 762.402 2045.96 772.784 2055.74 783.769Z" fill="url(#paint25_linear_168_82)"/>
<defs>
<linearGradient id="paint0_linear_168_82" x1="129" y1="894.056" x2="2633.53" y2="894.056" gradientUnits="userSpaceOnUse">
<stop stop-color="#40447E"/>
<stop offset="0.9964" stop-color="#3C3B6B"/>
</linearGradient>
<linearGradient id="paint1_linear_168_82" x1="1951.85" y1="635.063" x2="861.858" y2="1819.86" gradientUnits="userSpaceOnUse">
<stop stop-color="#AA80F9"/>
<stop offset="0.9964" stop-color="#6165D7"/>
</linearGradient>
<linearGradient id="paint2_linear_168_82" x1="314.355" y1="2010.29" x2="1909.73" y2="2010.29" gradientUnits="userSpaceOnUse">
<stop stop-color="#444B8C"/>
<stop offset="0.9964" stop-color="#26264F"/>
</linearGradient>
<linearGradient id="paint3_linear_168_82" x1="314.355" y1="2623.71" x2="2717.73" y2="2623.71" gradientUnits="userSpaceOnUse">
<stop stop-color="#444B8C"/>
<stop offset="0.9964" stop-color="#26264F"/>
</linearGradient>
<linearGradient id="paint4_linear_168_82" x1="1515.23" y1="618.434" x2="1261.81" y2="862.011" gradientUnits="userSpaceOnUse">
<stop stop-color="#FF9085"/>
<stop offset="1" stop-color="#FB6FBB"/>
</linearGradient>
<linearGradient id="paint5_linear_168_82" x1="824.093" y1="1420.2" x2="391.136" y2="2141.8" gradientUnits="userSpaceOnUse">
<stop stop-color="#FF9085"/>
<stop offset="1" stop-color="#FB6FBB"/>
</linearGradient>
<linearGradient id="paint6_linear_168_82" x1="1218.81" y1="1476.12" x2="519.202" y2="69.3566" gradientUnits="userSpaceOnUse">
<stop stop-color="#FF9085"/>
<stop offset="1" stop-color="#FB6FBB"/>
</linearGradient>
<linearGradient id="paint7_linear_168_82" x1="693.941" y1="1203.21" x2="1369.45" y2="1203.21" gradientUnits="userSpaceOnUse">
<stop stop-color="#311944"/>
<stop offset="1" stop-color="#893976"/>
</linearGradient>
<linearGradient id="paint8_linear_168_82" x1="1246.86" y1="854.694" x2="969.033" y2="1368.25" gradientUnits="userSpaceOnUse">
<stop offset="0.0036" stop-color="#E38DDD"/>
<stop offset="1" stop-color="#9571F6"/>
</linearGradient>
<linearGradient id="paint9_linear_168_82" x1="1001.28" y1="1260.26" x2="1077.13" y2="1260.26" gradientUnits="userSpaceOnUse">
<stop stop-color="#311944"/>
<stop offset="1" stop-color="#893976"/>
</linearGradient>
<linearGradient id="paint10_linear_168_82" x1="1166.58" y1="811.265" x2="888.755" y2="1324.82" gradientUnits="userSpaceOnUse">
<stop offset="0.0036" stop-color="#E38DDD"/>
<stop offset="1" stop-color="#9571F6"/>
</linearGradient>
<linearGradient id="paint11_linear_168_82" x1="2423.37" y1="1798.93" x2="1981.88" y2="1798.93" gradientUnits="userSpaceOnUse">
<stop stop-color="#444B8C"/>
<stop offset="0.9964" stop-color="#3E4177"/>
</linearGradient>
<linearGradient id="paint12_linear_168_82" x1="2309.6" y1="2561.93" x2="2144.81" y2="2561.93" gradientUnits="userSpaceOnUse">
<stop stop-color="#AA80F9"/>
<stop offset="0.9964" stop-color="#6165D7"/>
</linearGradient>
<linearGradient id="paint13_linear_168_82" x1="2122.11" y1="2273.17" x2="2179.74" y2="2634.01" gradientUnits="userSpaceOnUse">
<stop stop-color="#311944"/>
<stop offset="1" stop-color="#A03976"/>
</linearGradient>
<linearGradient id="paint14_linear_168_82" x1="2423.37" y1="1798.96" x2="1981.89" y2="1798.96" gradientUnits="userSpaceOnUse">
<stop stop-color="#444B8C"/>
<stop offset="0.9964" stop-color="#3E4177"/>
</linearGradient>
<linearGradient id="paint15_linear_168_82" x1="2178.72" y1="1988.55" x2="1801.24" y2="1988.55" gradientUnits="userSpaceOnUse">
<stop stop-color="#444B8C"/>
<stop offset="0.9964" stop-color="#3E4177"/>
</linearGradient>
<linearGradient id="paint16_linear_168_82" x1="1935.34" y1="718.881" x2="2209.31" y2="1694.49" gradientUnits="userSpaceOnUse">
<stop stop-color="#FFC444"/>
<stop offset="0.9964" stop-color="#F36F56"/>
</linearGradient>
<linearGradient id="paint17_linear_168_82" x1="2374.85" y1="1196.56" x2="2327.24" y2="1351.09" gradientUnits="userSpaceOnUse">
<stop stop-color="#FFC444"/>
<stop offset="0.9964" stop-color="#F36F56"/>
</linearGradient>
<linearGradient id="paint18_linear_168_82" x1="1778.76" y1="762.852" x2="2052.73" y2="1738.46" gradientUnits="userSpaceOnUse">
<stop stop-color="#FFC444"/>
<stop offset="0.9964" stop-color="#F36F56"/>
</linearGradient>
<linearGradient id="paint19_linear_168_82" x1="1602.96" y1="812.22" x2="1876.93" y2="1787.82" gradientUnits="userSpaceOnUse">
<stop stop-color="#FFC444"/>
<stop offset="0.9964" stop-color="#F36F56"/>
</linearGradient>
<linearGradient id="paint20_linear_168_82" x1="2130.72" y1="1106.47" x2="1965.34" y2="1404.67" gradientUnits="userSpaceOnUse">
<stop offset="0.494" stop-color="#EBEFF2"/>
<stop offset="1" stop-color="white"/>
</linearGradient>
<linearGradient id="paint21_linear_168_82" x1="1867.84" y1="1423.61" x2="2059.95" y2="1217.29" gradientUnits="userSpaceOnUse">
<stop offset="0.494" stop-color="#EBEFF2"/>
<stop offset="1" stop-color="white"/>
</linearGradient>
<linearGradient id="paint22_linear_168_82" x1="2019.23" y1="630.094" x2="2050.97" y2="900.725" gradientUnits="userSpaceOnUse">
<stop stop-color="#311944"/>
<stop offset="1" stop-color="#A03976"/>
</linearGradient>
<linearGradient id="paint23_linear_168_82" x1="2314.35" y1="1170.31" x2="2237.97" y2="1170.31" gradientUnits="userSpaceOnUse">
<stop stop-color="#311944"/>
<stop offset="1" stop-color="#A03976"/>
</linearGradient>
<linearGradient id="paint24_linear_168_82" x1="1982.57" y1="848.203" x2="2137.94" y2="717.742" gradientUnits="userSpaceOnUse">
<stop stop-color="#311944"/>
<stop offset="1" stop-color="#6B3976"/>
</linearGradient>
<linearGradient id="paint25_linear_168_82" x1="2047.92" y1="666.673" x2="2077.99" y2="741.848" gradientUnits="userSpaceOnUse">
<stop stop-color="#311944"/>
<stop offset="1" stop-color="#A03976"/>
</linearGradient>
</defs>
</svg>
